<?xml version="1.0" encoding="UTF-8"?>
<!DOCTYPE svg PUBLIC "-//W3C//DTD SVG 1.1//EN" "http://www.w3.org/Graphics/SVG/1.1/DTD/svg11.dtd">
<!-- Creator: CorelDRAW X6 -->
<svg xmlns="http://www.w3.org/2000/svg" xml:space="preserve" width="202px" height="202px" version="1.1" style="shape-rendering:geometricPrecision; text-rendering:geometricPrecision; image-rendering:optimizeQuality; fill-rule:evenodd; clip-rule:evenodd"
viewBox="0 0 7446 7446"
 xmlns:xlink="http://www.w3.org/1999/xlink">
 <defs>
  <style type="text/css">
   <![CDATA[
    .fil5 {fill:#6B7F9E}
    .fil7 {fill:#83CF8F}
    .fil2 {fill:#E4E7ED}
    .fil8 {fill:#ECF0F1}
    .fil6 {fill:#FF7069}
    .fil0 {fill:#FFE356}
    .fil1 {fill:white}
    .fil4 {fill:#83CF8F;fill-rule:nonzero}
    .fil3 {fill:#E4E7ED;fill-rule:nonzero}
    .fil9 {fill:white;fill-rule:nonzero}
   ]]>
  </style>
 </defs>
 <g id="Layer_x0020_1">
  <metadata id="CorelCorpID_0Corel-Layer"/>
  <g id="_525315488">
   <circle class="fil0" cx="3723" cy="3723" r="3723"/>
   <path class="fil1" d="M5619 519l0 5070 -4663 0 0 -4356c681,-757 1669,-1232 2767,-1232 693,0 1341,189 1896,519z"/>
   <path class="fil2" d="M1790 1001l2849 0 0 84 -2849 0 0 -84zm0 155l2849 0 0 84 -2849 0 0 -84zm0 155l2849 0 0 84 -2849 0 0 -84zm0 155l2849 0 0 84 -2849 0 0 -84zm0 155l2182 0 0 84 -2182 0 0 -84z"/>
   <path class="fil3" d="M1697 3869l2871 0c70,0 134,29 180,75l0 0c46,46 75,110 75,180l0 694c0,70 -29,134 -75,180 -46,46 -110,75 -180,75l-2871 0c-70,0 -134,-29 -180,-75 -46,-46 -75,-110 -75,-180l0 -694c0,-70 29,-134 75,-180l0 0c46,-46 110,-75 180,-75zm2871 108l-2871 0c-40,0 -77,17 -103,43l0 0c-26,26 -43,63 -43,103l0 694c0,40 17,77 43,103 27,27 63,43 103,43l2871 0c40,0 77,-17 103,-43 27,-27 43,-63 43,-103l0 -694c0,-40 -16,-77 -43,-103l0 0c-27,-27 -63,-43 -103,-43z"/>
   <path class="fil4" d="M1951 4168l84 605 -150 0 -8 -109 -53 0 -8 109 -152 0 74 -605 212 0zm-78 389c-7,-69 -14,-153 -22,-255 -15,116 -24,201 -28,255l50 0zm193 -389l148 0c40,0 71,3 92,10 21,7 38,16 48,29 11,13 18,28 22,46 4,18 6,46 6,84l0 53c0,38 -4,67 -11,84 -7,18 -21,31 -41,41 -20,9 -46,14 -78,14l-39 0 0 244 -147 0 0 -605zm147 103l0 154c4,0 8,0 11,0 13,0 23,-4 28,-11 5,-7 8,-22 8,-44l0 -50c0,-21 -3,-34 -9,-40 -6,-6 -18,-9 -37,-9zm217 -103l148 0c40,0 71,3 92,10 21,7 38,16 48,29 11,13 18,28 22,46 4,18 6,46 6,84l0 53c0,38 -4,67 -11,84 -7,18 -21,31 -41,41 -20,9 -46,14 -78,14l-39 0 0 244 -147 0 0 -605zm147 103l0 154c4,0 8,0 11,0 13,0 23,-4 28,-11 5,-7 8,-22 8,-44l0 -50c0,-21 -3,-34 -9,-40 -6,-6 -18,-9 -37,-9zm217 -103l104 0c69,0 116,3 140,8 24,6 44,20 60,44 15,23 23,61 23,113 0,47 -5,79 -16,95 -11,16 -32,26 -64,29 29,8 49,18 59,31 10,13 16,25 19,36 3,11 4,41 4,89l0 160 -136 0 0 -201c0,-32 -2,-52 -7,-60 -5,-8 -17,-12 -37,-12l0 273 -147 0 0 -605zm147 103l0 135c16,0 28,-2 34,-7 7,-5 10,-21 10,-47l0 -33c0,-19 -3,-32 -9,-38 -6,-6 -18,-9 -35,-9zm578 251c0,61 -1,104 -4,129 -3,25 -11,48 -25,69 -14,21 -33,37 -57,48 -24,11 -52,17 -83,17 -30,0 -57,-5 -81,-16 -24,-11 -43,-26 -58,-47 -15,-21 -23,-44 -26,-69 -3,-25 -4,-69 -4,-131l0 -103c0,-61 1,-104 4,-129 3,-25 11,-48 25,-69 14,-21 33,-37 57,-48 24,-11 52,-17 83,-17 30,0 57,5 81,16 24,11 43,26 58,48 15,21 23,44 26,69 3,25 4,69 4,131l0 103zm-147 -199c0,-28 -1,-46 -4,-54 -3,-8 -9,-12 -17,-12 -7,0 -13,3 -17,10 -4,6 -6,25 -6,56l0 282c0,35 1,57 4,65 3,8 9,12 18,12 10,0 16,-5 19,-14 3,-9 4,-32 4,-68l0 -278zm556 -156l-74 605 -222 0 -85 -605 155 0c17,167 30,308 38,423 8,-117 16,-220 24,-310l10 -113 155 0zm32 0l245 0 0 121 -98 0 0 115 91 0 0 115 -91 0 0 133 108 0 0 121 -255 0 0 -605zm302 0l110 0c71,0 119,3 144,10 25,7 44,18 57,34 13,16 21,34 24,53 3,20 5,58 5,115l0 212c0,54 -2,91 -7,109 -5,18 -13,33 -25,43 -12,10 -27,17 -44,22 -17,4 -44,6 -79,6l-185 0 0 -605zm147 103l0 398c21,0 34,-5 38,-14 5,-9 7,-34 7,-74l0 -235c0,-27 -1,-45 -2,-53 -2,-8 -5,-13 -11,-17 -6,-4 -16,-5 -32,-5z"/>
   <path class="fil2" d="M1790 1989l2849 0 0 84 -2849 0 0 -84zm0 155l2849 0 0 84 -2849 0 0 -84zm0 155l2849 0 0 84 -2849 0 0 -84zm0 155l2849 0 0 84 -2849 0 0 -84zm0 155l2182 0 0 84 -2182 0 0 -84z"/>
   <g>
    <path class="fil5" d="M5055 2980l255 174c113,-37 273,-112 419,-260 345,-350 53,-896 328,-1298 234,-342 701,-430 1044,-196 342,234 430,701 196,1044 -261,381 -889,362 -1079,785 -85,190 -97,367 -91,485l210 144c252,173 319,520 148,773l-249 -170 -1686 -1153 -270 -185c174,-251 522,-315 774,-142z"/>
    <path class="fil6" d="M5055 2980l255 174 818 560 210 144c252,173 319,520 148,773l-249 -170 -1686 -1153 -270 -185c174,-251 522,-315 774,-142z"/>
    <polygon class="fil7" points="6349,4522 6228,4700 4332,3403 4453,3225 "/>
    <circle class="fil8" cx="6431" cy="1780" r="181"/>
   </g>
   <g>
    <circle class="fil6" cx="727" cy="1685" r="682"/>
    <g>
     <path class="fil9" d="M313 1697c-18,-22 -15,-54 6,-72 22,-18 54,-15 72,6l181 216 496 -435c21,-19 54,-17 72,5 19,21 17,54 -5,72l-536 469 0 0 -1 1c-22,18 -54,15 -72,-6l-215 -256z"/>
     <path class="fil9" d="M727 957c201,0 383,81 514,213 132,132 213,314 213,514 0,201 -81,383 -213,514 -132,132 -314,213 -514,213 -201,0 -383,-81 -514,-213 -132,-132 -213,-313 -213,-514 0,-201 81,-383 213,-514 132,-132 314,-213 514,-213zm446 282c-114,-114 -272,-185 -446,-185 -174,0 -332,71 -446,185 -114,114 -185,272 -185,446 0,174 71,332 185,446 114,114 272,185 446,185 174,0 332,-71 446,-185 114,-114 185,-272 185,-446 0,-174 -71,-332 -185,-446z"/>
    </g>
   </g>
  </g>
 </g>
</svg>
