<?xml version="1.0" encoding="UTF-8"?>
<!DOCTYPE svg PUBLIC "-//W3C//DTD SVG 1.1//EN" "http://www.w3.org/Graphics/SVG/1.1/DTD/svg11.dtd">
<!-- Creator: CorelDRAW X6 -->
<svg xmlns="http://www.w3.org/2000/svg" xml:space="preserve" width="202px" height="202px" version="1.1" style="shape-rendering:geometricPrecision; text-rendering:geometricPrecision; image-rendering:optimizeQuality; fill-rule:evenodd; clip-rule:evenodd"
viewBox="0 0 2810 2810"
 xmlns:xlink="http://www.w3.org/1999/xlink">
 <defs>
  <style type="text/css">
   <![CDATA[
    .fil0 {fill:#6B7F9E}
    .fil7 {fill:#83CF8F}
    .fil8 {fill:#F0BA7D}
    .fil2 {fill:#F7635B}
    .fil5 {fill:#FCD34E}
    .fil6 {fill:#FED298}
    .fil1 {fill:#FF7069}
    .fil3 {fill:#FFE356}
    .fil4 {fill:white}
   ]]>
  </style>
 </defs>
 <g id="Layer_x0020_1">
  <metadata id="CorelCorpID_0Corel-Layer"/>
  <g id="_704803784">
   <circle class="fil0" cx="1405" cy="1405" r="1405"/>
   <path class="fil1" d="M454 1082l1902 0c81,0 147,66 147,147l0 1351c0,81 -66,147 -147,147l-1902 0c-81,0 -147,-66 -147,-147l0 -1351c0,-81 66,-147 147,-147z"/>
   <path class="fil2" d="M2491 2639c-23,52 -75,88 -135,88l-1902 0c-60,0 -112,-36 -135,-88l2172 0z"/>
   <polygon class="fil2" points="302,2007 2504,2007 2504,2079 302,2079 "/>
   <path class="fil2" d="M1783 2007l246 0 -26 135c-13,68 -79,123 -147,123l0 0c-68,0 -113,-55 -100,-123l26 -135z"/>
   <path class="fil2" d="M786 2007l246 0 -26 135c-13,68 -79,123 -147,123l0 0c-68,0 -113,-55 -100,-123l26 -135z"/>
   <path class="fil1" d="M302 1082l2206 0c46,0 83,37 83,83l0 760c0,46 -37,83 -83,83l-2206 0c-46,0 -83,-37 -83,-83l0 -760c0,-46 37,-83 83,-83z"/>
   <path class="fil3" d="M737 1943l246 0 0 199c0,68 -55,123 -123,123l0 0c-68,0 -123,-55 -123,-123l0 -199z"/>
   <path class="fil3" d="M1726 1943l246 0 0 199c0,68 -55,123 -123,123l0 0c-68,0 -123,-55 -123,-123l0 -199z"/>
   <circle class="fil4" cx="860" cy="2157" r="50"/>
   <path class="fil3" d="M1018 787l774 0c43,0 78,38 78,84l0 211 -108 0 0 -148c0,-15 -11,-27 -25,-27l-665 0c-14,0 -25,12 -25,27l0 148 -108 0 0 -211c0,-46 35,-84 78,-84z"/>
   <path class="fil5" d="M1790 1082l-28 0 0 -148c0,-15 -11,-27 -25,-27l-665 0c-14,0 -25,12 -25,27l0 148 -28 0 0 -160c0,-47 22,-45 49,-45l672 0c27,0 49,-2 49,45l0 160z"/>
   <g>
    <path class="fil6" d="M1413 0l-82 427c0,0 -211,78 -226,122 -16,44 -78,237 -78,237l135 0 0 130 0 69c0,25 20,45 45,45l49 0c25,0 45,-20 45,-45 0,25 20,45 45,45l49 0c25,0 45,-20 45,-45 0,25 20,45 45,45l49 0c25,0 45,-20 45,-45 0,25 20,45 45,45l49 0c25,0 45,-20 45,-45l0 -69c0,0 23,-143 18,-243 -4,-100 -45,-262 -45,-262l54 -371c-106,-26 -217,-41 -331,-41z"/>
    <polygon class="fil4" points="1297,274 1791,274 1791,356 1297,356 "/>
    <path class="fil7" d="M1880 82l-12 201 -586 0 -29 -276c50,-5 101,-8 153,-8 167,0 327,29 475,82z"/>
   </g>
   <path class="fil8" d="M1163 837l0 142 0 7c0,25 20,45 45,45l49 0c25,0 45,-20 45,-45 0,25 20,45 45,45l49 0c25,0 45,-20 45,-45 0,25 20,45 45,45l49 0c25,0 45,-20 45,-45 0,25 20,45 45,45l49 0c25,0 45,-20 45,-45l0 -7 0 0 2 -72c-40,57 -98,51 -139,24 -52,32 -84,32 -131,0 -54,44 -100,32 -147,0 -25,15 -78,18 -103,-3 -20,-17 -23,-50 -35,-92z"/>
   <circle class="fil4" cx="1850" cy="2157" r="50"/>
   <polygon class="fil8" points="1136,787 1164,736 1164,787 "/>
   <path class="fil8" d="M1059 912l10 18c5,9 14,15 24,15l70 0 0 -37 -5 -1 -85 0c-5,0 -10,2 -14,5z"/>
  </g>
 </g>
</svg>
