<?xml version="1.0" encoding="UTF-8"?>
<!DOCTYPE svg PUBLIC "-//W3C//DTD SVG 1.1//EN" "http://www.w3.org/Graphics/SVG/1.1/DTD/svg11.dtd">
<!-- Creator: CorelDRAW X6 -->
<svg xmlns="http://www.w3.org/2000/svg" xml:space="preserve" width="202px" height="202px" version="1.1" style="shape-rendering:geometricPrecision; text-rendering:geometricPrecision; image-rendering:optimizeQuality; fill-rule:evenodd; clip-rule:evenodd"
viewBox="0 0 9028 9028"
 xmlns:xlink="http://www.w3.org/1999/xlink">
 <defs>
  <style type="text/css">
   <![CDATA[
    .fil0 {fill:#6B7F9E}
    .fil3 {fill:#C6CBD6}
    .fil2 {fill:#E4E7ED}
    .fil5 {fill:#FCD34E}
    .fil4 {fill:#FFE356}
    .fil1 {fill:white}
   ]]>
  </style>
 </defs>
 <g id="Layer_x0020_1">
  <metadata id="CorelCorpID_0Corel-Layer"/>
  <g id="_499807664">
   <circle class="fil0" cx="4514" cy="4514" r="4514"/>
   <polygon class="fil1" points="538,2667 4451,624 8363,2667 8363,3148 543,3148 "/>
   <polygon class="fil2" points="1095,2667 7806,2667 4451,939 "/>
   <polygon class="fil3" points="1095,2667 1731,2667 4451,939 "/>
   <polygon class="fil3" points="1806,3148 7096,3148 7096,7514 1806,7514 "/>
   <polygon class="fil1" points="1049,7509 8097,7509 8097,7963 1049,7963 "/>
   <polygon class="fil2" points="656,7865 8489,7865 8489,8404 656,8404 "/>
   <polygon class="fil2" points="1127,3148 2323,3148 2323,3265 2170,3265 2170,3383 1280,3383 1280,3265 1127,3265 "/>
   <polygon class="fil1" points="1403,3383 2025,3383 2025,7509 1403,7509 "/>
   <polygon class="fil2" points="2656,3148 3852,3148 3852,3265 3699,3265 3699,3383 2809,3383 2809,3265 2656,3265 "/>
   <polygon class="fil1" points="2932,3383 3554,3383 3554,7509 2932,7509 "/>
   <polygon class="fil2" points="5050,3148 6245,3148 6245,3265 6093,3265 6093,3383 5203,3383 5203,3265 5050,3265 "/>
   <polygon class="fil1" points="5325,3383 5948,3383 5948,7509 5325,7509 "/>
   <polygon class="fil2" points="6578,3148 7774,3148 7774,3265 7621,3265 7621,3383 6731,3383 6731,3265 6578,3265 "/>
   <polygon class="fil1" points="6854,3383 7476,3383 7476,7509 6854,7509 "/>
   <path class="fil0" d="M4451 5554l0 0c243,0 441,199 441,441l0 1519 -883 0 0 -1519c0,-243 199,-441 441,-441z"/>
   <g>
    <g>
     <path class="fil4" d="M7328 0c454,0 823,368 823,823 0,454 -368,823 -823,823 -454,0 -823,-368 -823,-823 0,-454 368,-823 823,-823z"/>
     <path class="fil5" d="M7328 224c331,0 599,268 599,599 0,331 -268,599 -599,599 -331,0 -599,-268 -599,-599 0,-331 268,-599 599,-599z"/>
    </g>
    <path class="fil1" d="M7538 582c0,0 -49,-67 -146,-82l0 -88 -103 0 0 94c-7,2 -14,4 -22,6 -180,54 -141,194 -139,215 2,22 40,80 123,120 82,40 177,73 184,112 7,39 -27,95 -99,88 -72,-7 -159,-74 -159,-74l-71 84c0,0 56,72 184,88l0 89 103 0 0 -90c132,-21 152,-121 152,-121 0,0 36,-113 -53,-178 -89,-65 -223,-82 -244,-147 -22,-65 50,-120 114,-99 64,21 116,67 116,67l62 -84z"/>
   </g>
   <g>
    <path class="fil3" d="M4555 1377c293,0 530,237 530,530 0,293 -237,530 -530,530 -293,0 -530,-237 -530,-530 0,-293 237,-530 530,-530z"/>
    <path class="fil1" d="M4741 1694c0,0 -43,-60 -130,-73l0 -78 -92 0 0 83c-6,1 -13,3 -19,5 -160,48 -125,171 -123,191 2,19 36,71 109,106 73,36 157,64 163,99 6,35 -24,85 -88,78 -64,-6 -141,-65 -141,-65l-63 75c0,0 50,63 163,78l0 79 92 0 0 -79c117,-18 135,-107 135,-107 0,0 32,-100 -47,-158 -79,-57 -197,-73 -217,-130 -19,-57 44,-106 101,-88 57,19 103,59 103,59l55 -74z"/>
   </g>
  </g>
 </g>
</svg>
