<?xml version="1.0" encoding="UTF-8"?>
<!DOCTYPE svg PUBLIC "-//W3C//DTD SVG 1.1//EN" "http://www.w3.org/Graphics/SVG/1.1/DTD/svg11.dtd">
<!-- Creator: CorelDRAW X6 -->
<svg xmlns="http://www.w3.org/2000/svg" xml:space="preserve" width="202px" height="202px" version="1.1" style="shape-rendering:geometricPrecision; text-rendering:geometricPrecision; image-rendering:optimizeQuality; fill-rule:evenodd; clip-rule:evenodd"
viewBox="0 0 9028 9028"
 xmlns:xlink="http://www.w3.org/1999/xlink">
 <defs>
  <style type="text/css">
   <![CDATA[
    .fil9 {fill:#5D718F}
    .fil12 {fill:#666666}
    .fil10 {fill:#6B7F9E}
    .fil1 {fill:#75BD80}
    .fil0 {fill:#83CF8F}
    .fil4 {fill:#DCE3DB}
    .fil11 {fill:#ECF0F1}
    .fil8 {fill:#F7635B}
    .fil3 {fill:#F8FAFA}
    .fil6 {fill:#FCD34E}
    .fil7 {fill:#FF7069}
    .fil5 {fill:#FFE356}
    .fil2 {fill:white}
   ]]>
  </style>
 </defs>
 <g id="Layer_x0020_1">
  <metadata id="CorelCorpID_0Corel-Layer"/>
  <g id="_607624936">
   <circle class="fil0" cx="4514" cy="4514" r="4514"/>
   <path class="fil1" d="M7238 1618l133 33 1114 5011c-46,84 -94,166 -145,247l-1102 -5291z"/>
   <path class="fil1" d="M1896 945c1017,0 1842,825 1842,1842 0,1017 -825,1842 -1842,1842 -815,0 -1506,-529 -1749,-1263 254,-972 824,-1815 1594,-2415 51,-4 103,-7 155,-7z"/>
   <path class="fil2" d="M1477 2818l5761 -1200 1102 5291c-798,1273 -2213,2119 -3826,2119 -649,0 -1266,-137 -1824,-384l-1213 -5826z"/>
   <path class="fil3" d="M1477 2818l2100 -437c71,171 110,358 110,554 0,799 -647,1446 -1446,1446 -158,0 -311,-26 -454,-73l-310 -1490z"/>
   <polygon class="fil0" points="1954,3108 6874,2083 6984,2611 2064,3635 "/>
   <path class="fil1" d="M1954 3108l1721 -359c8,61 12,122 12,185 0,129 -17,254 -49,373l-1574 328 -110 -528z"/>
   <polygon class="fil3" points="2205,4314 7125,3289 7614,5636 2694,6661 "/>
   <polygon class="fil4" points="2790,7124 5676,6523 5705,6663 2819,7264 "/>
   <polygon class="fil4" points="2871,7512 5757,6911 5786,7050 2900,7652 "/>
   <polygon class="fil4" points="2952,7899 5837,7298 5867,7438 2981,8039 "/>
   <polygon class="fil4" points="3032,8287 5918,7686 5947,7826 3062,8427 "/>
   <polygon class="fil4" points="3113,8674 5999,8073 6028,8213 3142,8814 "/>
   <path class="fil4" d="M3706 8955l2374 -494 29 140 -1972 411c-146,-12 -289,-31 -431,-56z"/>
   <polygon class="fil4" points="6047,6445 7711,6099 7740,6239 6077,6586 "/>
   <polygon class="fil5" points="6118,6785 7781,6438 7971,7348 6308,7695 "/>
   <path class="fil4" d="M6370 7996l1319 -275c-65,65 -133,127 -202,188l-1088 227 -29 -140z"/>
   <path class="fil4" d="M6451 8384l576 -120c-119,80 -242,154 -369,223l-178 37 -29 -140z"/>
   <path class="fil0" d="M2629 4970l318 -66 286 1373 -318 66 -286 -1373zm3958 -1296l318 -66 380 1825 -318 66 -380 -1825zm-471 637l318 -66 272 1308 -318 66 -272 -1308zm-449 745l318 -66 142 683 -318 66 -142 -683zm-745 -679l318 -66 309 1483 -318 66 -309 -1483zm-421 877l318 -66 151 727 -318 66 -151 -727zm-507 465l318 -66 80 382 -318 66 -80 -382zm-879 -1322l318 -66 380 1825 -318 66 -380 -1825z"/>
   <polygon class="fil5" points="2113,3872 7034,2848 7076,3052 2156,4077 "/>
   <path class="fil6" d="M2113 3872l1424 -297c-43,87 -95,169 -154,245l-1227 256 -43 -204z"/>
   <g>
    <path class="fil4" d="M3055 2639l795 249c140,44 218,194 175,334l0 0c-44,140 -194,218 -334,175l-794 -249 159 -508z"/>
    <path class="fil2" d="M3103 2671l716 224c126,39 197,175 157,301l0 0c-39,126 -175,197 -300,157l-716 -224 143 -458z"/>
    <path class="fil4" d="M3328 3021c-38,120 -108,192 -201,198l-28 -9c37,-73 69,-151 94,-232 29,-92 48,-186 59,-278l33 10c53,43 96,137 42,310z"/>
    <circle class="fil2" transform="matrix(0.545502 0.170678 -0.170678 0.545502 1681.57 2487.92)" r="2781"/>
    <circle class="fil7" transform="matrix(0.435409 0.136232 -0.136232 0.435409 1681.57 2487.92)" r="2781"/>
    <path class="fil8" d="M2061 1277c350,109 619,357 765,663 -153,-196 -365,-350 -621,-430 -669,-209 -1381,163 -1590,832 -100,319 -67,648 67,927 -248,-317 -340,-747 -211,-1160 209,-669 921,-1041 1590,-832z"/>
   </g>
   <polygon class="fil9" points="5418,1596 5393,1703 8710,2471 8735,2364 "/>
   <polygon class="fil9" points="5368,1810 5344,1918 8660,2685 8685,2578 "/>
   <polygon class="fil5" points="4674,1593 5344,1918 5418,1596 "/>
   <polygon class="fil10" points="5361,1842 5401,1671 8717,2439 8678,2610 "/>
   <polygon class="fil11" points="8735,2364 8660,2685 8765,2710 8840,2388 "/>
   <path class="fil7" d="M9025 2541l-26 112c-13,58 -71,94 -129,80l-105 -24 74 -322 105 24c58,13 94,71 80,129z"/>
   <polygon class="fil12" points="4625,1575 4622,1588 4925,1715 4953,1595 "/>
  </g>
 </g>
</svg>
