<?xml version="1.0" encoding="UTF-8"?>
<!DOCTYPE svg PUBLIC "-//W3C//DTD SVG 1.1//EN" "http://www.w3.org/Graphics/SVG/1.1/DTD/svg11.dtd">
<!-- Creator: CorelDRAW X6 -->
<svg xmlns="http://www.w3.org/2000/svg" xml:space="preserve" width="202px" height="202px" version="1.1" style="shape-rendering:geometricPrecision; text-rendering:geometricPrecision; image-rendering:optimizeQuality; fill-rule:evenodd; clip-rule:evenodd"
viewBox="0 0 4286 4286"
 xmlns:xlink="http://www.w3.org/1999/xlink">
 <defs>
  <style type="text/css">
   <![CDATA[
    .fil5 {fill:#6B7F9E}
    .fil0 {fill:#83CF8F}
    .fil2 {fill:#DCE3DB}
    .fil4 {fill:#FF7069}
    .fil3 {fill:#FFE356}
    .fil1 {fill:white}
   ]]>
  </style>
 </defs>
 <g id="Layer_x0020_1">
  <metadata id="CorelCorpID_0Corel-Layer"/>
  <g id="_356994312">
   <circle class="fil0" cx="2143" cy="2143" r="2143"/>
   <g>
    <path class="fil1" d="M1244 604l2390 0c402,390 652,935 652,1539 0,1184 -960,2143 -2143,2143 -321,0 -626,-71 -899,-197l0 -3485z"/>
    <path class="fil2" d="M1244 713l159 0 0 -109 24 0 0 109 227 0 0 -109 24 0 0 109 227 0 0 -109 24 0 0 109 227 0 0 -109 24 0 0 109 227 0 0 -109 24 0 0 109 227 0 0 -109 24 0 0 109 227 0 0 -109 24 0 0 109 227 0 0 -109 24 0 0 109 227 0 0 -109 24 0 0 109 227 0 0 -84c8,8 16,16 24,24l0 60 56 0c7,8 14,16 21,24l-77 0 0 229 227 0 0 -35c8,12 16,23 24,35l0 0 0 0c5,8 10,16 16,24l-16 0 0 229 143 0c4,8 7,16 11,24l-154 0 0 229 227 0 0 -51c9,25 17,50 25,75l-2 0 0 229 61 0c2,8 3,16 5,24l-65 0 0 229 95 0c1,8 1,16 2,24l-97 0 0 229 100 0c0,8 -1,16 -1,24l-99 0 0 229 75 0c-1,8 -3,16 -4,24l-71 0 0 229 19 0c-2,8 -5,16 -7,24l-12 0 0 37c-7,23 -15,46 -24,69l0 -107 -227 0 0 229 179 0c-3,8 -7,16 -10,24l-169 0 0 229 50 0c-5,8 -10,16 -14,24l-35 0 0 55c-8,12 -16,23 -24,35l0 -90 -227 0 0 229 123 0c-6,8 -13,16 -20,24l-104 0 0 115c-8,8 -16,16 -24,24l0 -139 -227 0 0 229 131 0c-9,8 -18,16 -27,24l-104 0 0 84c-8,6 -16,12 -24,17l0 -101 -227 0 0 229 31 0c-18,10 -36,21 -55,30l0 -7 -227 0 0 113c-8,3 -16,6 -24,9l0 -122 -227 0 0 194c-8,2 -16,4 -24,6l0 -200 -227 0 0 229 89 0c-59,10 -118,18 -178,24l-161 0 0 9c-8,0 -16,0 -24,0l0 -9 -209 0c-60,-5 -120,-13 -178,-24l136 0 0 -229 -227 0 0 211c-8,-2 -16,-3 -24,-5l0 -206 -227 0 0 139c-8,-3 -16,-5 -24,-8l0 -131 -159 0 0 -24 159 0 0 -229 -159 0 0 -24 159 0 0 -229 -159 0 0 -24 159 0 0 -229 -159 0 0 -24 159 0 0 -229 -159 0 0 -24 159 0 0 -229 -159 0 0 -24 159 0 0 -229 -159 0 0 -24 159 0 0 -229 -159 0 0 -24 159 0 0 -229 -159 0 0 -24 159 0 0 -229 -159 0 0 -24 159 0 0 -229 -159 0 0 -24 159 0 0 -229 -159 0 0 -24 159 0 0 -229 -159 0 0 -24 159 0 0 -229 -159 0 0 -24zm2416 24l-227 0 0 229 227 0 0 -229zm-251 0l-227 0 0 229 227 0 0 -229zm-251 0l-227 0 0 229 227 0 0 -229zm-251 0l-227 0 0 229 227 0 0 -229zm-251 0l-227 0 0 229 227 0 0 -229zm-251 0l-227 0 0 229 227 0 0 -229zm-251 0l-227 0 0 229 227 0 0 -229zm-251 0l-227 0 0 229 227 0 0 -229zm-251 0l-227 0 0 229 227 0 0 -229zm2507 2000l0 -229 -227 0 0 229 227 0zm0 -253l0 -229 -227 0 0 229 227 0zm0 -253l0 -229 -227 0 0 229 227 0zm0 -253l0 -229 -227 0 0 229 227 0zm0 -253l0 -229 -227 0 0 229 227 0zm-251 1517l0 -229 -227 0 0 229 227 0zm0 -253l0 -229 -227 0 0 229 227 0zm0 -253l0 -229 -227 0 0 229 227 0zm0 -253l0 -229 -227 0 0 229 227 0zm0 -253l0 -229 -227 0 0 229 227 0zm0 -253l0 -229 -227 0 0 229 227 0zm0 -253l0 -229 -227 0 0 229 227 0zm0 -253l0 -229 -227 0 0 229 227 0zm0 -253l0 -229 -227 0 0 229 227 0zm-251 2276l0 -229 -227 0 0 229 227 0zm0 -253l0 -229 -227 0 0 229 227 0zm0 -253l0 -229 -227 0 0 229 227 0zm0 -253l0 -229 -227 0 0 229 227 0zm0 -253l0 -229 -227 0 0 229 227 0zm0 -253l0 -229 -227 0 0 229 227 0zm0 -253l0 -229 -227 0 0 229 227 0zm0 -253l0 -229 -227 0 0 229 227 0zm0 -253l0 -229 -227 0 0 229 227 0zm0 -253l0 -229 -227 0 0 229 227 0zm-251 2529l0 -229 -227 0 0 229 227 0zm0 -253l0 -229 -227 0 0 229 227 0zm0 -253l0 -229 -227 0 0 229 227 0zm0 -253l0 -229 -227 0 0 229 227 0zm0 -253l0 -229 -227 0 0 229 227 0zm0 -253l0 -229 -227 0 0 229 227 0zm0 -253l0 -229 -227 0 0 229 227 0zm0 -253l0 -229 -227 0 0 229 227 0zm0 -253l0 -229 -227 0 0 229 227 0zm0 -253l0 -229 -227 0 0 229 227 0zm0 -253l0 -229 -227 0 0 229 227 0zm-251 2782l0 -229 -227 0 0 229 227 0zm0 -253l0 -229 -227 0 0 229 227 0zm0 -253l0 -229 -227 0 0 229 227 0zm0 -253l0 -229 -227 0 0 229 227 0zm0 -253l0 -229 -227 0 0 229 227 0zm0 -253l0 -229 -227 0 0 229 227 0zm0 -253l0 -229 -227 0 0 229 227 0zm0 -253l0 -229 -227 0 0 229 227 0zm0 -253l0 -229 -227 0 0 229 227 0zm0 -253l0 -229 -227 0 0 229 227 0zm0 -253l0 -229 -227 0 0 229 227 0zm0 -253l0 -229 -227 0 0 229 227 0zm-251 2782l0 -229 -227 0 0 229 227 0zm0 -253l0 -229 -227 0 0 229 227 0zm0 -253l0 -229 -227 0 0 229 227 0zm0 -253l0 -229 -227 0 0 229 227 0zm0 -253l0 -229 -227 0 0 229 227 0zm0 -253l0 -229 -227 0 0 229 227 0zm0 -253l0 -229 -227 0 0 229 227 0zm0 -253l0 -229 -227 0 0 229 227 0zm0 -253l0 -229 -227 0 0 229 227 0zm0 -253l0 -229 -227 0 0 229 227 0zm0 -253l0 -229 -227 0 0 229 227 0zm0 -253l0 -229 -227 0 0 229 227 0zm-251 2782l0 -229 -227 0 0 229 227 0zm0 -253l0 -229 -227 0 0 229 227 0zm0 -253l0 -229 -227 0 0 229 227 0zm0 -253l0 -229 -227 0 0 229 227 0zm0 -253l0 -229 -227 0 0 229 227 0zm0 -253l0 -229 -227 0 0 229 227 0zm0 -253l0 -229 -227 0 0 229 227 0zm0 -253l0 -229 -227 0 0 229 227 0zm0 -253l0 -229 -227 0 0 229 227 0zm0 -253l0 -229 -227 0 0 229 227 0zm0 -253l0 -229 -227 0 0 229 227 0zm0 -253l0 -229 -227 0 0 229 227 0zm-251 3035l0 -229 -227 0 0 229 227 0zm0 -253l0 -229 -227 0 0 229 227 0zm0 -253l0 -229 -227 0 0 229 227 0zm0 -253l0 -229 -227 0 0 229 227 0zm0 -253l0 -229 -227 0 0 229 227 0zm0 -253l0 -229 -227 0 0 229 227 0zm0 -253l0 -229 -227 0 0 229 227 0zm0 -253l0 -229 -227 0 0 229 227 0zm0 -253l0 -229 -227 0 0 229 227 0zm0 -253l0 -229 -227 0 0 229 227 0zm0 -253l0 -229 -227 0 0 229 227 0zm0 -253l0 -229 -227 0 0 229 227 0zm0 -253l0 -229 -227 0 0 229 227 0zm-251 3035l0 -229 -227 0 0 229 227 0zm0 -253l0 -229 -227 0 0 229 227 0zm0 -253l0 -229 -227 0 0 229 227 0zm0 -253l0 -229 -227 0 0 229 227 0zm0 -253l0 -229 -227 0 0 229 227 0zm0 -253l0 -229 -227 0 0 229 227 0zm0 -253l0 -229 -227 0 0 229 227 0zm0 -253l0 -229 -227 0 0 229 227 0zm0 -253l0 -229 -227 0 0 229 227 0zm0 -253l0 -229 -227 0 0 229 227 0zm0 -253l0 -229 -227 0 0 229 227 0zm0 -253l0 -229 -227 0 0 229 227 0zm0 -253l0 -229 -227 0 0 229 227 0zm-251 2782l0 -229 -227 0 0 229 227 0zm0 -253l0 -229 -227 0 0 229 227 0zm0 -253l0 -229 -227 0 0 229 227 0zm0 -253l0 -229 -227 0 0 229 227 0zm0 -253l0 -229 -227 0 0 229 227 0zm0 -253l0 -229 -227 0 0 229 227 0zm0 -253l0 -229 -227 0 0 229 227 0zm0 -253l0 -229 -227 0 0 229 227 0zm0 -253l0 -229 -227 0 0 229 227 0zm0 -253l0 -229 -227 0 0 229 227 0zm0 -253l0 -229 -227 0 0 229 227 0zm0 -253l0 -229 -227 0 0 229 227 0zm-251 2782l0 -229 -227 0 0 229 227 0zm0 -253l0 -229 -227 0 0 229 227 0zm0 -253l0 -229 -227 0 0 229 227 0zm0 -253l0 -229 -227 0 0 229 227 0zm0 -253l0 -229 -227 0 0 229 227 0zm0 -253l0 -229 -227 0 0 229 227 0zm0 -253l0 -229 -227 0 0 229 227 0zm0 -253l0 -229 -227 0 0 229 227 0zm0 -253l0 -229 -227 0 0 229 227 0zm0 -253l0 -229 -227 0 0 229 227 0zm0 -253l0 -229 -227 0 0 229 227 0zm0 -253l0 -229 -227 0 0 229 227 0z"/>
   </g>
   <polygon class="fil3" points="2155,3242 2429,3242 2429,3771 2155,3771 "/>
   <polygon class="fil4" points="2657,2760 2931,2760 2931,3771 2657,3771 "/>
   <polygon class="fil5" points="3158,2483 3432,2483 3432,3771 3158,3771 "/>
   <path class="fil3" d="M198 3116c14,24 19,52 11,81 -15,57 -73,91 -130,76 -57,-15 -91,-73 -76,-130 14,-52 63,-85 115,-79l918 -1340c-16,-24 -22,-55 -14,-86 15,-57 73,-91 130,-76 58,15 91,74 75,132l1145 675c11,-4 23,-6 35,-6l981 -1932 -112 -50 362 -382 -58 518 -109 -49 -982 1935c20,25 29,60 20,93 -15,57 -73,91 -130,76 -60,-16 -94,-80 -73,-138l-1138 -672c-15,7 -33,10 -50,9l-920 1344z"/>
   <g>
    <path class="fil4" d="M702 1393c-85,117 -118,270 -78,420 71,264 343,420 607,349 158,-43 278,-158 333,-300l142 55c-72,186 -228,336 -435,392 -345,93 -700,-111 -793,-456 -53,-197 -10,-397 101,-549l123 90z"/>
    <path class="fil3" d="M934 1060c-148,40 -271,129 -354,244l123 90c64,-88 158,-156 271,-187l-40 -147z"/>
    <path class="fil5" d="M1727 1516c-93,-345 -448,-549 -793,-456l40 147c264,-71 535,85 607,349 28,106 21,212 -16,307l142 55c48,-124 58,-263 21,-401z"/>
   </g>
  </g>
 </g>
</svg>
