<?xml version="1.0" encoding="UTF-8"?>
<!DOCTYPE svg PUBLIC "-//W3C//DTD SVG 1.1//EN" "http://www.w3.org/Graphics/SVG/1.1/DTD/svg11.dtd">
<!-- Creator: CorelDRAW X6 -->
<svg xmlns="http://www.w3.org/2000/svg" xml:space="preserve" width="202px" height="202px" version="1.1" style="shape-rendering:geometricPrecision; text-rendering:geometricPrecision; image-rendering:optimizeQuality; fill-rule:evenodd; clip-rule:evenodd"
viewBox="0 0 85014 85014"
 xmlns:xlink="http://www.w3.org/1999/xlink">
 <defs>
  <style type="text/css">
   <![CDATA[
    .fil5 {fill:#83CF8F}
    .fil4 {fill:#E4E7ED}
    .fil3 {fill:#ECF0F1}
    .fil1 {fill:#F7635B}
    .fil0 {fill:#FF7069}
    .fil6 {fill:#FFE356}
    .fil2 {fill:white}
   ]]>
  </style>
 </defs>
 <g id="Layer_x0020_1">
  <metadata id="CorelCorpID_0Corel-Layer"/>
  <g id="_704809424">
   <path class="fil0" d="M42507 0c23476,0 42507,19031 42507,42507 0,23476 -19031,42507 -42507,42507 -23476,0 -42507,-19031 -42507,-42507 0,-23476 19031,-42507 42507,-42507z"/>
   <path class="fil1" d="M24675 22117c-9482,0 -17169,7687 -17169,17169 0,9482 7687,17168 17169,17168 5185,0 9834,-2298 12982,-5933l-12982 -11235 0 -17169z"/>
   <path class="fil2" d="M26288 21246l48991 0 0 48334c-7772,9398 -19509,15395 -32648,15433l-248 0c-5699,-16 -11133,-1155 -16096,-3206l0 -60561z"/>
   <path class="fil3" d="M26288 22966l2517 0 0 -1720 371 0 0 1720 3591 0 0 -1720 371 0 0 1720 3591 0 0 -1720 371 0 0 1720 3591 0 0 -1720 371 0 0 1720 3591 0 0 -1720 372 0 0 1720 3590 0 0 -1720 372 0 0 1720 3591 0 0 -1720 372 0 0 1720 3591 0 0 -1720 371 0 0 1720 3590 0 0 -1720 372 0 0 1720 3591 0 0 -1720 371 0 0 1720 3591 0 0 -1720 371 0 0 1720 3591 0 0 -1720 371 0 0 1720 2517 0 0 375 -2517 0 0 3622 2517 0 0 375 -2517 0 0 3622 2517 0 0 375 -2517 0 0 3622 2517 0 0 375 -2517 0 0 3622 2517 0 0 375 -2517 0 0 3622 2517 0 0 375 -2517 0 0 3622 2517 0 0 374 -2517 0 0 3622 2517 0 0 375 -2517 0 0 3622 2517 0 0 375 -2517 0 0 3622 2517 0 0 374 -2517 0 0 3622 2517 0 0 375 -2517 0 0 3622 2517 0 0 375 -2517 0 0 3623 1352 0c-113,125 -227,250 -342,374l-1010 0 0 1059c-123,125 -247,249 -371,372l0 -1432 -3591 0 0 3622 1199 0c-148,125 -294,252 -443,375l-756 0 0 609c-123,97 -248,191 -371,287l0 -896 -3591 0 0 3381c-124,77 -247,154 -371,229l0 -3610 -3591 0 0 3622 3570 0c-210,127 -422,252 -634,375l-2937 0 0 1555c-123,59 -248,115 -372,173l0 -1728 -3590 0 0 3213c-124,44 -248,87 -371,131l0 -3343 -3591 0 0 3622 2768 0c-400,131 -803,255 -1208,375l-1560 0 0 427c-124,31 -248,61 -372,91l0 -518 -3591 0 0 1231c-123,19 -248,34 -372,52l0 -1282 -3590 0 0 1645c-124,7 -248,16 -372,22l0 -1668 -3591 0 0 1695c-124,-4 -248,-9 -371,-14l0 -1680 -3591 0 0 1381c-124,-16 -248,-35 -371,-52l0 -1329 -3591 0 0 683c-124,-28 -248,-56 -371,-85l0 -599 -2263 0c-405,-119 -808,-245 -1208,-375l3471 0 0 -3622 -3591 0 0 3582c-124,-41 -248,-81 -371,-122l0 -3460 -2517 0 0 -375 2517 0 0 -3622 -2517 0 0 -375 2517 0 0 -3622 -2517 0 0 -374 2517 0 0 -3623 -2517 0 0 -375 2517 0 0 -3622 -2517 0 0 -375 2517 0 0 -3622 -2517 0 0 -374 2517 0 0 -3622 -2517 0 0 -375 2517 0 0 -3622 -2517 0 0 -375 2517 0 0 -3622 -2517 0 0 -374 2517 0 0 -3622 -2517 0 0 -375 2517 0 0 -3622 -2517 0 0 -375 2517 0 0 -3622 -2517 0 0 -375 2517 0 0 -3622 -2517 0 0 -375 2517 0 0 -3622 -2517 0 0 -375 2517 0 0 -3622 -2517 0 0 -375zm46103 375l-3591 0 0 3622 3591 0 0 -3622zm-3962 0l-3591 0 0 3622 3591 0 0 -3622zm-3963 0l-3591 0 0 3622 3591 0 0 -3622zm-3963 0l-3590 0 0 3622 3590 0 0 -3622zm-3962 0l-3591 0 0 3622 3591 0 0 -3622zm-3963 0l-3591 0 0 3622 3591 0 0 -3622zm-3963 0l-3590 0 0 3622 3590 0 0 -3622zm-3962 0l-3591 0 0 3622 3591 0 0 -3622zm-3962 0l-3591 0 0 3622 3591 0 0 -3622zm-3962 0l-3591 0 0 3622 3591 0 0 -3622zm-3963 0l-3591 0 0 3622 3591 0 0 -3622zm39624 47588l0 -3623 -3591 0 0 3623 3591 0zm0 -3997l0 -3622 -3591 0 0 3622 3591 0zm0 -3997l0 -3622 -3591 0 0 3622 3591 0zm0 -3996l0 -3622 -3591 0 0 3622 3591 0zm0 -3997l0 -3622 -3591 0 0 3622 3591 0zm0 -3997l0 -3622 -3591 0 0 3622 3591 0zm0 -3996l0 -3622 -3591 0 0 3622 3591 0zm0 -3997l0 -3622 -3591 0 0 3622 3591 0zm0 -3997l0 -3622 -3591 0 0 3622 3591 0zm0 -3997l0 -3622 -3591 0 0 3622 3591 0zm0 -3997l0 -3622 -3591 0 0 3622 3591 0zm-3962 43965l0 -3622 -3591 0 0 3622 3591 0zm0 -3996l0 -3623 -3591 0 0 3623 3591 0zm0 -3997l0 -3622 -3591 0 0 3622 3591 0zm0 -3997l0 -3622 -3591 0 0 3622 3591 0zm0 -3996l0 -3622 -3591 0 0 3622 3591 0zm0 -3997l0 -3622 -3591 0 0 3622 3591 0zm0 -3997l0 -3622 -3591 0 0 3622 3591 0zm0 -3996l0 -3622 -3591 0 0 3622 3591 0zm0 -3997l0 -3622 -3591 0 0 3622 3591 0zm0 -3997l0 -3622 -3591 0 0 3622 3591 0zm0 -3997l0 -3622 -3591 0 0 3622 3591 0zm0 -3997l0 -3622 -3591 0 0 3622 3591 0zm-3963 43965l0 -3622 -3591 0 0 3622 3591 0zm0 -3996l0 -3623 -3591 0 0 3623 3591 0zm0 -3997l0 -3622 -3591 0 0 3622 3591 0zm0 -3997l0 -3622 -3591 0 0 3622 3591 0zm0 -3996l0 -3622 -3591 0 0 3622 3591 0zm0 -3997l0 -3622 -3591 0 0 3622 3591 0zm0 -3997l0 -3622 -3591 0 0 3622 3591 0zm0 -3996l0 -3622 -3591 0 0 3622 3591 0zm0 -3997l0 -3622 -3591 0 0 3622 3591 0zm0 -3997l0 -3622 -3591 0 0 3622 3591 0zm0 -3997l0 -3622 -3591 0 0 3622 3591 0zm0 -3997l0 -3622 -3591 0 0 3622 3591 0zm-3963 47962l0 -3622 -3590 0 0 3622 3590 0zm0 -3996l0 -3622 -3590 0 0 3622 3590 0zm0 -3996l0 -3623 -3590 0 0 3623 3590 0zm0 -3997l0 -3622 -3590 0 0 3622 3590 0zm0 -3997l0 -3622 -3590 0 0 3622 3590 0zm0 -3996l0 -3622 -3590 0 0 3622 3590 0zm0 -3997l0 -3622 -3590 0 0 3622 3590 0zm0 -3997l0 -3622 -3590 0 0 3622 3590 0zm0 -3996l0 -3622 -3590 0 0 3622 3590 0zm0 -3997l0 -3622 -3590 0 0 3622 3590 0zm0 -3997l0 -3622 -3590 0 0 3622 3590 0zm0 -3997l0 -3622 -3590 0 0 3622 3590 0zm0 -3997l0 -3622 -3590 0 0 3622 3590 0zm-3962 47962l0 -3622 -3591 0 0 3622 3591 0zm0 -3996l0 -3622 -3591 0 0 3622 3591 0zm0 -3996l0 -3623 -3591 0 0 3623 3591 0zm0 -3997l0 -3622 -3591 0 0 3622 3591 0zm0 -3997l0 -3622 -3591 0 0 3622 3591 0zm0 -3996l0 -3622 -3591 0 0 3622 3591 0zm0 -3997l0 -3622 -3591 0 0 3622 3591 0zm0 -3997l0 -3622 -3591 0 0 3622 3591 0zm0 -3996l0 -3622 -3591 0 0 3622 3591 0zm0 -3997l0 -3622 -3591 0 0 3622 3591 0zm0 -3997l0 -3622 -3591 0 0 3622 3591 0zm0 -3997l0 -3622 -3591 0 0 3622 3591 0zm0 -3997l0 -3622 -3591 0 0 3622 3591 0zm-3963 51959l0 -3622 -3591 0 0 3622 3591 0zm0 -3997l0 -3622 -3591 0 0 3622 3591 0zm0 -3996l0 -3622 -3591 0 0 3622 3591 0zm0 -3996l0 -3623 -3591 0 0 3623 3591 0zm0 -3997l0 -3622 -3591 0 0 3622 3591 0zm0 -3997l0 -3622 -3591 0 0 3622 3591 0zm0 -3996l0 -3622 -3591 0 0 3622 3591 0zm0 -3997l0 -3622 -3591 0 0 3622 3591 0zm0 -3997l0 -3622 -3591 0 0 3622 3591 0zm0 -3996l0 -3622 -3591 0 0 3622 3591 0zm0 -3997l0 -3622 -3591 0 0 3622 3591 0zm0 -3997l0 -3622 -3591 0 0 3622 3591 0zm0 -3997l0 -3622 -3591 0 0 3622 3591 0zm0 -3997l0 -3622 -3591 0 0 3622 3591 0zm-3963 51959l0 -3622 -3590 0 0 3622 3590 0zm0 -3997l0 -3622 -3590 0 0 3622 3590 0zm0 -3996l0 -3622 -3590 0 0 3622 3590 0zm0 -3996l0 -3623 -3590 0 0 3623 3590 0zm0 -3997l0 -3622 -3590 0 0 3622 3590 0zm0 -3997l0 -3622 -3590 0 0 3622 3590 0zm0 -3996l0 -3622 -3590 0 0 3622 3590 0zm0 -3997l0 -3622 -3590 0 0 3622 3590 0zm0 -3997l0 -3622 -3590 0 0 3622 3590 0zm0 -3996l0 -3622 -3590 0 0 3622 3590 0zm0 -3997l0 -3622 -3590 0 0 3622 3590 0zm0 -3997l0 -3622 -3590 0 0 3622 3590 0zm0 -3997l0 -3622 -3590 0 0 3622 3590 0zm0 -3997l0 -3622 -3590 0 0 3622 3590 0zm-3962 51959l0 -3622 -3591 0 0 3622 3591 0zm0 -3997l0 -3622 -3591 0 0 3622 3591 0zm0 -3996l0 -3622 -3591 0 0 3622 3591 0zm0 -3996l0 -3623 -3591 0 0 3623 3591 0zm0 -3997l0 -3622 -3591 0 0 3622 3591 0zm0 -3997l0 -3622 -3591 0 0 3622 3591 0zm0 -3996l0 -3622 -3591 0 0 3622 3591 0zm0 -3997l0 -3622 -3591 0 0 3622 3591 0zm0 -3997l0 -3622 -3591 0 0 3622 3591 0zm0 -3996l0 -3622 -3591 0 0 3622 3591 0zm0 -3997l0 -3622 -3591 0 0 3622 3591 0zm0 -3997l0 -3622 -3591 0 0 3622 3591 0zm0 -3997l0 -3622 -3591 0 0 3622 3591 0zm0 -3997l0 -3622 -3591 0 0 3622 3591 0zm-3962 51959l0 -3622 -3591 0 0 3622 3591 0zm0 -3997l0 -3622 -3591 0 0 3622 3591 0zm0 -3996l0 -3622 -3591 0 0 3622 3591 0zm0 -3996l0 -3623 -3591 0 0 3623 3591 0zm0 -3997l0 -3622 -3591 0 0 3622 3591 0zm0 -3997l0 -3622 -3591 0 0 3622 3591 0zm0 -3996l0 -3622 -3591 0 0 3622 3591 0zm0 -3997l0 -3622 -3591 0 0 3622 3591 0zm0 -3997l0 -3622 -3591 0 0 3622 3591 0zm0 -3996l0 -3622 -3591 0 0 3622 3591 0zm0 -3997l0 -3622 -3591 0 0 3622 3591 0zm0 -3997l0 -3622 -3591 0 0 3622 3591 0zm0 -3997l0 -3622 -3591 0 0 3622 3591 0zm0 -3997l0 -3622 -3591 0 0 3622 3591 0zm-3962 51959l0 -3622 -3591 0 0 3622 3591 0zm0 -3997l0 -3622 -3591 0 0 3622 3591 0zm0 -3996l0 -3622 -3591 0 0 3622 3591 0zm0 -3996l0 -3623 -3591 0 0 3623 3591 0zm0 -3997l0 -3622 -3591 0 0 3622 3591 0zm0 -3997l0 -3622 -3591 0 0 3622 3591 0zm0 -3996l0 -3622 -3591 0 0 3622 3591 0zm0 -3997l0 -3622 -3591 0 0 3622 3591 0zm0 -3997l0 -3622 -3591 0 0 3622 3591 0zm0 -3996l0 -3622 -3591 0 0 3622 3591 0zm0 -3997l0 -3622 -3591 0 0 3622 3591 0zm0 -3997l0 -3622 -3591 0 0 3622 3591 0zm0 -3997l0 -3622 -3591 0 0 3622 3591 0zm0 -3997l0 -3622 -3591 0 0 3622 3591 0zm-3963 47962l0 -3622 -3591 0 0 3622 3591 0zm0 -3996l0 -3622 -3591 0 0 3622 3591 0zm0 -3996l0 -3623 -3591 0 0 3623 3591 0zm0 -3997l0 -3622 -3591 0 0 3622 3591 0zm0 -3997l0 -3622 -3591 0 0 3622 3591 0zm0 -3996l0 -3622 -3591 0 0 3622 3591 0zm0 -3997l0 -3622 -3591 0 0 3622 3591 0zm0 -3997l0 -3622 -3591 0 0 3622 3591 0zm0 -3996l0 -3622 -3591 0 0 3622 3591 0zm0 -3997l0 -3622 -3591 0 0 3622 3591 0zm0 -3997l0 -3622 -3591 0 0 3622 3591 0zm0 -3997l0 -3622 -3591 0 0 3622 3591 0zm0 -3997l0 -3622 -3591 0 0 3622 3591 0z"/>
   <polygon class="fil4" points="45026,63309 48616,63309 48616,74924 45026,74924 "/>
   <polygon class="fil5" points="52951,54940 56541,54940 56541,74924 52951,74924 "/>
   <polygon class="fil6" points="60875,47321 64837,47321 64837,74924 60875,74924 "/>
   <g>
    <path class="fil5" d="M36911 25079l-12257 12022 12982 11235c2609,-3011 4186,-6939 4186,-11235 0,-4681 -1873,-8925 -4911,-12022z"/>
    <path class="fil4" d="M25153 17326l0 17168 12257 -12022c-3116,-3176 -7457,-5146 -12257,-5146z"/>
    <path class="fil6" d="M23708 20762c-9482,0 -17168,7686 -17168,17168 0,9483 7686,17169 17168,17169 5185,0 9835,-2299 12983,-5933l-12983 -11236 0 -17168z"/>
   </g>
   <path class="fil1" d="M76282 21251l-1003 -5 0 48334c779,-941 1516,-1919 2213,-2927l-1210 -45402z"/>
  </g>
 </g>
</svg>
