<?xml version="1.0" encoding="UTF-8"?>
<!DOCTYPE svg PUBLIC "-//W3C//DTD SVG 1.1//EN" "http://www.w3.org/Graphics/SVG/1.1/DTD/svg11.dtd">
<!-- Creator: CorelDRAW X6 -->
<svg xmlns="http://www.w3.org/2000/svg" xml:space="preserve" width="202px" height="202px" version="1.1" style="shape-rendering:geometricPrecision; text-rendering:geometricPrecision; image-rendering:optimizeQuality; fill-rule:evenodd; clip-rule:evenodd"
viewBox="0 0 9028 9028"
 xmlns:xlink="http://www.w3.org/1999/xlink">
 <defs>
  <style type="text/css">
   <![CDATA[
    .fil0 {fill:#6B7F9E}
    .fil4 {fill:#83CF8F}
    .fil6 {fill:#D1D2D4}
    .fil2 {fill:#E4E7ED}
    .fil3 {fill:#FF7069}
    .fil5 {fill:#FFE356}
    .fil1 {fill:white}
   ]]>
  </style>
 </defs>
 <g id="Layer_x0020_1">
  <metadata id="CorelCorpID_0Corel-Layer"/>
  <g id="_495476664">
   <circle class="fil0" cx="4514" cy="4514" r="4514"/>
   <path class="fil1" d="M1191 1459l6646 0 65 0 -49 18c730,802 1174,1867 1174,3036 0,2493 -2021,4514 -4514,4514 -1623,0 -3045,-857 -3841,-2142l0 -4744 0 0 0 -683 518 0z"/>
   <path class="fil2" d="M2532 3812l-371 1c-309,1 -566,-255 -567,-565l-6 -2681c-1,-310 255,-566 564,-567l84 0c311,-1 566,254 567,564l2 901c-11,-4 -23,-6 -35,-6l-148 0 -2 -895c0,-210 -174,-383 -384,-382l-84 0c-210,0 -382,174 -382,384l5 2681c1,210 174,383 384,382l371 -1c209,-1 383,-175 382,-384l-5 -2396 183 -1 5 2396c1,311 -254,566 -564,567zm-640 -3045l192 0 0 692 -192 0 0 -692z"/>
   <polygon class="fil3" points="2810,5002 3155,5002 3155,6346 2810,6346 "/>
   <polygon class="fil4" points="3438,5931 3783,5931 3783,6346 3438,6346 "/>
   <polygon class="fil3" points="4066,5558 4410,5558 4410,6346 4066,6346 "/>
   <polygon class="fil2" points="4694,4737 5038,4737 5038,6346 4694,6346 "/>
   <polygon class="fil4" points="5321,5604 5666,5604 5666,6346 5321,6346 "/>
   <polygon class="fil2" points="5949,4095 6294,4095 6294,6346 5949,6346 "/>
   <polygon class="fil3" points="6577,4837 6922,4837 6922,6346 6577,6346 "/>
   <polygon class="fil2" points="2182,5373 2527,5373 2527,6346 2182,6346 "/>
   <polygon class="fil5" points="2182,6595 8242,6595 8242,6771 2182,6771 "/>
   <path class="fil6" d="M2182 6979l4652 0 0 176 -4652 0 0 -176zm0 902l2079 0 0 176 -2079 0 0 -176zm0 -451l4652 0 0 176 -4652 0 0 -176z"/>
   <polygon class="fil5" points="4053,3606 6711,3606 6711,3782 4053,3782 "/>
  </g>
 </g>
</svg>
