<?xml version="1.0" encoding="UTF-8"?>
<!DOCTYPE svg PUBLIC "-//W3C//DTD SVG 1.1//EN" "http://www.w3.org/Graphics/SVG/1.1/DTD/svg11.dtd">
<!-- Creator: CorelDRAW X6 -->
<svg xmlns="http://www.w3.org/2000/svg" xml:space="preserve" width="202px" height="202px" version="1.1" style="shape-rendering:geometricPrecision; text-rendering:geometricPrecision; image-rendering:optimizeQuality; fill-rule:evenodd; clip-rule:evenodd"
viewBox="0 0 3894 3894"
 xmlns:xlink="http://www.w3.org/1999/xlink">
 <defs>
  <style type="text/css">
   <![CDATA[
    .fil4 {fill:#596366}
    .fil0 {fill:#6B7F9E}
    .fil2 {fill:#F7635B}
    .fil6 {fill:#FCD34E}
    .fil1 {fill:#FF7069}
    .fil5 {fill:#FFE356}
    .fil3 {fill:white}
    .fil7 {fill:#ECF0F1;fill-rule:nonzero}
   ]]>
  </style>
 </defs>
 <g id="Layer_x0020_1">
  <metadata id="CorelCorpID_0Corel-Layer"/>
  <g id="_704812664">
   <circle class="fil0" cx="1947" cy="1947" r="1947"/>
   <path class="fil1" d="M3627 2545c-7,490 -506,939 -742,1033 -114,147 1,320 -236,314l-70 -222c-276,111 -644,133 -892,67l-83 156c-92,2 -151,10 -163,-64l-23 -131c-21,-20 -173,-80 -241,-117 -528,-318 -487,-599 -815,-659 -133,-24 -191,-55 -183,-98l246 -25 -141 -4 -222 -6c-71,-126 -69,-327 -54,-403 15,-76 143,124 569,-398 641,-1078 2961,-940 3047,456 14,10 37,20 62,27l4 1c-3,-10 -4,-20 -3,-30 1,-20 7,-40 17,-56 19,-29 52,-46 90,-37 60,13 101,86 60,138 -12,15 -31,27 -58,34 24,9 56,13 97,12 -1,37 -134,30 -173,-9 -15,-2 -31,-7 -47,-12 -16,-5 -32,-11 -46,-18 0,16 1,32 1,49zm116 -61c3,0 5,0 8,0 104,-4 89,-80 35,-92 -19,-4 -35,5 -45,19 -6,9 -10,20 -10,32 0,12 3,25 10,37 1,1 1,2 2,3z"/>
   <path class="fil1" d="M432 1429l245 530 542 -235c-234,-203 -501,-288 -788,-295z"/>
   <path class="fil2" d="M432 1429c0,0 150,78 252,247 102,169 -6,283 -6,283l-245 -530z"/>
   <path class="fil2" d="M756 2110c98,0 178,71 178,157 0,87 -80,157 -178,157 -98,0 -178,-71 -178,-157 0,-87 80,-157 178,-157z"/>
   <path class="fil3" d="M745 2125c81,0 147,58 147,130 0,72 -66,130 -147,130 -81,0 -147,-58 -147,-130 0,-72 66,-130 147,-130z"/>
   <path class="fil4" d="M749 2143c36,0 65,29 65,65 0,36 -29,65 -65,65 -36,0 -65,-29 -65,-65 0,-36 29,-65 65,-65z"/>
   <path class="fil2" d="M2035 1396c252,0 484,46 671,122l101 169c-413,-177 -1137,-165 -1521,0l78 -169c187,-77 419,-122 671,-122z"/>
   <g>
    <g>
     <path class="fil5" d="M2573 175c119,0 215,96 215,215 0,119 -96,215 -215,215 -119,0 -215,-96 -215,-215 0,-119 96,-215 215,-215z"/>
     <path class="fil6" d="M2573 234c86,0 157,70 157,157 0,86 -70,157 -157,157 -86,0 -157,-70 -157,-157 0,-86 70,-157 157,-157z"/>
    </g>
    <path class="fil3" d="M2628 327c0,0 -13,-18 -38,-21l0 -23 -27 0 0 24c-2,0 -4,1 -6,2 -47,14 -37,51 -36,56 0,6 11,21 32,31 22,11 46,19 48,29 2,10 -7,25 -26,23 -19,-2 -42,-19 -42,-19l-19 22c0,0 15,19 48,23l0 23 27 0 0 -23c35,-5 40,-32 40,-32 0,0 9,-30 -14,-47 -23,-17 -58,-22 -64,-38 -6,-17 13,-31 30,-26 17,6 30,17 30,17l16 -22z"/>
   </g>
   <g>
    <g>
     <path class="fil5" d="M2026 613c215,0 389,174 389,389 0,215 -174,389 -389,389 -215,0 -389,-174 -389,-389 0,-215 174,-389 389,-389z"/>
     <path class="fil6" d="M2026 719c156,0 283,127 283,283 0,156 -127,283 -283,283 -156,0 -283,-127 -283,-283 0,-156 127,-283 283,-283z"/>
    </g>
    <path class="fil3" d="M2125 888c0,0 -23,-32 -69,-39l0 -42 -49 0 0 44c-3,1 -7,2 -10,3 -85,26 -67,91 -66,102 1,10 19,38 58,57 39,19 84,34 87,53 3,19 -13,45 -47,42 -34,-3 -75,-35 -75,-35l-34 40c0,0 26,34 87,41l0 42 49 0 0 -42c62,-10 72,-57 72,-57 0,0 17,-53 -25,-84 -42,-31 -105,-39 -115,-70 -10,-31 24,-57 54,-47 30,10 55,31 55,31l29 -40z"/>
   </g>
   <g>
    <g>
     <path class="fil5" d="M1445 0c134,0 243,109 243,243 0,134 -109,243 -243,243 -134,0 -243,-109 -243,-243 0,-134 109,-243 243,-243z"/>
     <path class="fil6" d="M1445 66c98,0 177,79 177,177 0,98 -79,177 -177,177 -98,0 -177,-79 -177,-177 0,-98 79,-177 177,-177z"/>
    </g>
    <path class="fil3" d="M1508 172c0,0 -14,-20 -43,-24l0 -26 -31 0 0 28c-2,0 -4,1 -6,2 -53,16 -42,57 -41,64 1,6 12,24 36,35 24,12 52,21 54,33 2,12 -8,28 -29,26 -21,-2 -47,-22 -47,-22l-21 25c0,0 17,21 54,26l0 26 31 0 0 -26c39,-6 45,-36 45,-36 0,0 11,-33 -16,-53 -26,-19 -66,-24 -72,-43 -6,-19 15,-35 34,-29 19,6 34,20 34,20l18 -25z"/>
   </g>
   <path class="fil7" d="M1880 166l0 394 -27 0 0 -394 27 0zm152 -119l0 332 -27 0 0 -332 27 0zm167 119l0 394 -27 0 0 -394 27 0z"/>
   <path class="fil2" d="M3627 2496c-452,1066 -2187,1249 -2986,594 109,124 222,300 536,490 67,37 220,97 241,117l23 131c13,74 72,66 163,64l83 -156c248,66 616,44 892,-67l70 222c237,7 122,-167 236,-313 236,-94 735,-543 742,-1033 0,-17 0,-33 -1,-49zm-3077 506l0 0c0,0 -2,-2 -6,-5 2,2 4,3 6,5z"/>
  </g>
 </g>
</svg>
