<?xml version="1.0" encoding="UTF-8"?>
<!DOCTYPE svg PUBLIC "-//W3C//DTD SVG 1.1//EN" "http://www.w3.org/Graphics/SVG/1.1/DTD/svg11.dtd">
<!-- Creator: CorelDRAW X6 -->
<svg xmlns="http://www.w3.org/2000/svg" xml:space="preserve" width="202px" height="202px" version="1.1" style="shape-rendering:geometricPrecision; text-rendering:geometricPrecision; image-rendering:optimizeQuality; fill-rule:evenodd; clip-rule:evenodd"
viewBox="0 0 4286 4286"
 xmlns:xlink="http://www.w3.org/1999/xlink">
 <defs>
  <style type="text/css">
   <![CDATA[
    .fil1 {fill:#2F3F57}
    .fil3 {fill:#384A66}
    .fil0 {fill:#6B7F9E}
    .fil7 {fill:#75BD80}
    .fil6 {fill:#83CF8F}
    .fil2 {fill:#E4E7ED}
    .fil4 {fill:#FED298}
    .fil9 {fill:#FF7069}
    .fil8 {fill:#FFE356}
    .fil5 {fill:white}
    .fil10 {fill:#F0BA7D;fill-rule:nonzero}
   ]]>
  </style>
 </defs>
 <g id="Layer_x0020_1">
  <metadata id="CorelCorpID_0Corel-Layer"/>
  <g id="_499803320">
   <circle class="fil0" cx="2143" cy="2143" r="2143"/>
   <path class="fil1" d="M3106 3253l116 -47 127 68c90,70 225,54 236,76l1 38c1,26 -65,40 -253,31 -29,-1 -58,-45 -58,-45l-36 -4 1 48 -140 -1c0,0 5,-29 -5,-70 -9,-40 11,-95 11,-95z"/>
   <path class="fil2" d="M3059 3119c4,6 49,134 49,134l116 -43 -35 -196 -129 106z"/>
   <path class="fil1" d="M2320 2134l767 281 160 690 -234 103 -139 -577c-174,-62 -703,-147 -893,-261l339 -235z"/>
   <path class="fil2" d="M1298 3344c-6,4 -123,117 -123,117l35 110 186 -111 -97 -116z"/>
   <path class="fil3" d="M2263 2223c-11,191 -165,568 -304,864l-671 512 -113 -184 526 -511 245 -812 317 132z"/>
   <path class="fil4" d="M3000 1499l118 -15c3,-16 12,-63 26,-70 0,-1 41,-37 58,-32 14,1 45,-1 55,-4 10,-3 10,29 -16,37 -26,8 -38,5 -38,5l-6 9 108 -13 15 -2c17,-2 20,33 0,36 0,0 1,5 2,5 28,-6 31,24 2,32l0 2c35,0 28,34 5,37l0 4c23,0 16,26 4,30l-35 12c0,0 -72,14 -96,18 -25,4 -55,-4 -55,-4l-119 24 -29 -111z"/>
   <polygon class="fil5" points="3050,1474 3084,1473 3105,1618 3072,1627 "/>
   <path class="fil2" d="M2266 1210l350 314 434 -54 23 163 -456 97 -478 -249c-68,-174 -26,-276 126,-271z"/>
   <path class="fil1" d="M2231 1134c214,289 87,605 133,1017 -36,144 -292,208 -540,127 0,0 37,-83 54,-303 16,-201 -13,-680 17,-787 28,-101 97,-164 145,-185l191 131z"/>
   <path class="fil3" d="M1305 2037l128 108c36,30 19,78 -2,103l-38 45 -227 -191 38 -45c21,-25 65,-50 101,-20zm5 71l52 44c25,21 33,52 19,70l-27 32 -142 -120 27 -31c15,-17 47,-14 72,7z"/>
   <path class="fil6" d="M1086 2012l409 345c17,14 19,39 5,55l-232 275c-14,17 -39,19 -55,5l-409 -345c-17,-14 -19,-39 -5,-55l232 -275c14,-17 39,-19 55,-5z"/>
   <path class="fil7" d="M1091 2017l398 336c19,16 24,43 10,60l-146 173c-1,-1 -2,-1 -3,-2l-463 -391c-1,-1 -2,-2 -3,-3l146 -172c14,-17 41,-17 61,0z"/>
   <path class="fil6" d="M1054 1985l472 398c9,8 11,22 3,31l-131 155c-8,9 -22,10 -31,3l-472 -398c-9,-8 -11,-22 -3,-31l131 -155c8,-9 22,-10 31,-3z"/>
   <path class="fil5" d="M982 2225l59 50 -30 36c-14,16 -38,18 -54,5l0 0c-16,-14 -18,-38 -5,-54l30 -36z"/>
   <path class="fil5" d="M1219 2425l59 50 -30 36c-14,16 -38,18 -54,5l0 0c-16,-14 -18,-38 -5,-54l30 -36z"/>
   <path class="fil4" d="M1455 2000l-17 57c0,0 11,59 11,62 -1,3 -25,46 -25,46l-25 7 -26 40c0,0 -21,1 -28,-14 -2,-3 2,-14 1,-19l-19 8 -20 -14 -3 -19 -19 2 -16 -12 -3 -21 -22 -3 -13 -13 3 -16 88 -111 35 -13 42 -45 56 78z"/>
   <path class="fil2" d="M2177 1368l-109 49 -304 135 -271 445 -120 -93 230 -480 388 -313c146,-42 256,116 186,257z"/>
   <polygon class="fil5" points="1488,1994 1468,2021 1357,1934 1378,1908 "/>
   <path class="fil4" d="M2432 612l29 48 0 89c0,1 -23,31 -23,31l16 34 24 85 -50 -1 -5 35 -33 2 18 20 -20 25 -6 43c-5,16 -16,24 -36,22l-87 -36 -50 88 -141 -75 -27 -12 30 -100 -2 -213c0,0 60,-174 363,-84z"/>
   <path class="fil3" d="M2487 567c-280,-65 -364,-61 -407,-21 -7,7 -98,134 -59,257 18,56 23,76 50,105l30 -152c9,-46 58,-50 67,-11 9,38 -15,48 -15,48l42 2 19 -96 89 -21 38 -46 120 27 26 -93z"/>
   <polygon class="fil2" points="2060,941 2234,1051 2235,1147 2032,1007 "/>
   <path class="fil3" d="M1175 3460l35 110 -17 140c0,0 33,47 73,47 40,0 81,27 81,27l-3 41 -190 0c0,0 -78,-74 -80,-104 -2,-30 -2,-35 -2,-35l-22 -50 -47 15 -32 -128c0,0 63,-38 102,-60 38,-22 100,-3 100,-3z"/>
   <circle class="fil2" cx="978" cy="2289" r="16"/>
   <circle class="fil2" cx="1216" cy="2489" r="16"/>
   <path class="fil8" d="M3263 902l33 0 0 524 -33 6 0 -530zm33 666l0 123 -33 0 0 -116 33 -6z"/>
   <polygon class="fil9" points="3260,928 3707,928 3569,1103 3707,1260 3260,1260 "/>
   <path class="fil10" d="M3309 1564c-12,4 -40,10 -48,7 -4,-2 -7,-5 -9,-8 -2,-3 -3,-7 -2,-12 1,-5 5,-10 11,-13 -21,-3 -17,-29 -13,-36 -9,-1 -19,-29 -1,-35 -16,0 -24,-28 1,-33l61 -10 -59 13c-5,0 -9,5 -9,10 0,2 0,5 1,7 1,3 4,7 9,9l65 -9 -64 17c-18,15 1,26 1,26l65 -8 -64 15c0,0 -13,20 8,30l52 -6 -47 11c-6,2 -14,21 -1,27 7,5 40,-3 43,-3z"/>
   <path class="fil2" d="M3676 3161l354 0c-362,670 -1071,1125 -1886,1125 -498,0 -956,-170 -1319,-454l727 0 0 -150 1017 0 0 -260 1108 0 0 -260z"/>
  </g>
 </g>
</svg>
