<?xml version="1.0" encoding="UTF-8"?>
<!DOCTYPE svg PUBLIC "-//W3C//DTD SVG 1.1//EN" "http://www.w3.org/Graphics/SVG/1.1/DTD/svg11.dtd">
<!-- Creator: CorelDRAW X6 -->
<svg xmlns="http://www.w3.org/2000/svg" xml:space="preserve" width="202px" height="202px" version="1.1" style="shape-rendering:geometricPrecision; text-rendering:geometricPrecision; image-rendering:optimizeQuality; fill-rule:evenodd; clip-rule:evenodd"
viewBox="0 0 9029 9026"
 xmlns:xlink="http://www.w3.org/1999/xlink">
 <defs>
  <style type="text/css">
   <![CDATA[
    .fil10 {fill:#596366}
    .fil7 {fill:#6B7F9E}
    .fil0 {fill:#83CF8F}
    .fil8 {fill:#8597B1}
    .fil1 {fill:#C6CBD6}
    .fil2 {fill:#E4E7ED}
    .fil5 {fill:#ECF0F1}
    .fil4 {fill:#F0BA7D}
    .fil9 {fill:#FED298}
    .fil6 {fill:#FF7069}
    .fil3 {fill:white}
    .fil11 {fill:white;fill-rule:nonzero}
   ]]>
  </style>
 </defs>
 <g id="Layer_x0020_1">
  <metadata id="CorelCorpID_0Corel-Layer"/>
  <g id="_196900880">
   <circle class="fil0" cx="4516" cy="4513" r="4513"/>
   <path class="fil1" d="M4516 1671c1570,0 2842,1272 2842,2842 0,1569 -1272,2842 -2842,2842 -1569,0 -2842,-1272 -2842,-2842 0,-1570 1272,-2842 2842,-2842z"/>
   <path class="fil2" d="M4516 1671c825,0 1567,351 2086,912 270,445 426,966 426,1525 0,1623 -1316,2939 -2939,2939 -503,0 -976,-126 -1390,-349 -626,-521 -1025,-1307 -1025,-2185 0,-1570 1272,-2842 2842,-2842z"/>
   <path class="fil3" d="M6292 2294c528,423 902,1032 1024,1727 -9,-13 -17,-30 -26,-56 -55,18 -57,20 -123,31l-3 4c-26,37 1,21 -44,60 -55,46 -90,109 -151,146 -7,65 5,79 -11,157 -6,28 -38,105 -76,99 -12,-2 -62,-126 -74,-160 -20,-58 -43,-101 -57,-168 -8,-36 -14,-104 -22,-128 -39,6 -37,31 -75,4 -26,-19 -15,-31 -29,-59 -31,-29 -63,-58 -95,-87 -25,-8 -119,6 -159,1 -72,-7 -78,-2 -121,-60 -76,4 -69,32 -143,-31 -48,-41 -39,-106 -109,-69 -3,60 26,73 53,101 19,21 43,36 53,64 1,1 5,28 6,31 68,4 85,-28 122,-56 36,34 1,40 54,67 42,21 34,9 61,43 14,46 -94,171 -129,193 -27,17 -42,7 -66,28 -36,31 5,26 -59,50 -68,25 -136,77 -207,82 -16,-42 -31,-85 -46,-128 -46,-146 -44,-90 -90,-165 -22,-33 -13,-54 -27,-83 -10,-22 -25,-31 -39,-58 -21,-42 -45,-106 -94,-100 -10,33 45,143 58,171 14,27 35,39 42,77 9,53 -2,47 27,82 61,74 -3,61 92,133 71,54 53,70 83,142 46,13 185,-49 208,-31 28,50 -33,130 -48,174 -51,146 -140,144 -208,256 -37,61 -55,69 -89,141 -39,82 79,310 8,406 -15,22 -65,35 -128,101 -66,72 2,60 -24,180 -20,28 -45,29 -69,49 -9,28 -2,51 -17,86 -16,42 -19,20 -43,54 -17,27 -15,38 -35,63 -17,23 -26,29 -43,44 -79,73 -249,75 -264,65 -40,-34 -13,-43 -23,-91 -10,-42 -32,-78 -51,-110l-2 -3c-9,-16 -17,-31 -22,-46 -33,-103 -21,-182 -78,-287 -72,-136 40,-206 35,-283 -2,-20 -9,-33 -11,-49 -14,-84 -22,-160 -78,-227 -62,-72 -54,-47 -34,-165 25,-136 -33,-101 -115,-105 -40,-124 -118,-63 -197,-27 -49,23 -67,-7 -123,1 -124,17 -26,70 -192,-61 -69,-55 -23,-27 -64,-95 -14,-25 -56,-58 -75,-82 -63,-79 12,-158 1,-248 -19,-168 -46,-22 47,-224 49,-108 124,-109 143,-157 16,-43 5,-74 36,-113 27,-32 66,-25 82,-76 22,-62 -20,-70 -65,-71 -19,-65 -19,-49 -5,-109 8,-33 1,-50 8,-83 18,-84 161,-1 202,-35 19,-36 22,-71 0,-105 -23,-34 -53,-30 -68,-63 35,-23 9,-3 39,-9 35,-8 31,-18 73,-26 37,-7 61,-42 97,-65 52,-33 27,-63 90,-74 101,-18 35,-15 46,-109 15,-6 30,-12 44,-19 32,42 -8,25 30,52 10,-6 22,-12 33,-17 -5,-45 -26,-37 -40,-93 -50,8 -68,50 -108,35 -39,-15 -41,-71 -39,-117 15,-35 87,-54 116,-63 46,-15 39,-46 81,-87 55,-55 15,1 41,-70 60,-2 32,-4 67,-23l2 -1 4 -1c21,-9 48,-12 76,-21 100,-34 141,-17 214,13 56,23 227,24 239,95 -41,43 -80,12 -139,15 11,55 15,55 65,71 8,-26 -4,-16 10,-33 16,4 33,7 49,9 16,-56 36,-48 91,-55 -9,-39 -19,-28 2,-58 57,6 11,1 39,47 40,-5 79,-50 135,-55 35,-4 33,9 82,4 40,-4 38,-19 78,-2 15,-27 0,-26 35,-33 55,-9 102,24 155,31 -39,-48 -76,-39 -28,-119 61,-12 66,-4 93,42 15,-8 21,-17 29,-21zm-4551 1606c128,-582 435,-1098 860,-1486 33,11 77,4 110,3 12,-22 19,-41 40,-49 8,-3 18,-4 32,-3 2,11 5,22 7,33 0,1 2,8 1,7 1,-2 2,4 3,6 57,-34 9,-34 40,-95 -48,-9 -42,-4 -72,-34 29,-32 86,-43 127,-40 -3,29 -16,28 -5,53 33,-20 56,-75 108,-65 10,7 22,14 33,20 -27,26 -68,27 -104,42 -15,158 50,25 28,134 39,-3 77,-31 92,-60 -15,-19 -35,-19 -47,-42 9,-29 29,-51 56,-64 19,-9 41,-14 66,-14 289,2 152,15 241,56 20,9 55,13 67,31 18,28 1,54 30,76 25,19 29,-1 63,42 -7,24 -25,49 -60,50 -49,1 -20,-33 -73,-28 1,50 50,69 5,95 -40,24 -15,-9 -45,8 -1,1 -4,2 -5,3 -2,1 -4,4 -5,5 -5,6 -10,11 -15,16 -73,-20 -59,-11 -103,-59 -16,-18 -19,-23 -48,-20 -18,1 -42,9 -59,-7 36,-44 53,-1 105,-28 9,-4 66,-49 76,-59 -16,-35 -2,-6 -25,-28 -51,-52 -66,-39 -135,-39 -32,37 -57,83 -92,104 -21,12 -47,15 -80,1 15,63 55,15 59,90 -26,-5 -40,-18 -67,-9 -58,22 -6,20 -2,31 0,1 27,4 0,14 -30,11 -5,-6 -63,-40 8,-15 16,-30 25,-45 -47,15 -106,38 -162,65 -63,31 -122,67 -157,100 -1,55 9,18 15,83 85,5 57,31 142,55 16,4 37,9 63,13 0,41 -36,71 -11,114 59,41 61,-39 76,-91 200,-42 104,-101 156,-211 8,-16 19,-34 35,-53 15,1 78,7 92,10 45,8 21,19 70,41 -1,39 -21,90 37,81 45,-8 35,-43 89,-52 25,58 18,82 29,152 131,51 73,93 47,188 16,8 34,15 51,23 -1,28 -2,55 -3,82 -3,0 -140,-30 -149,-33 21,-60 59,-60 84,-122 -49,9 -46,24 -81,35 -32,9 -56,3 -90,7 -12,39 -1,-34 3,16 2,19 11,1 -2,21 -45,-21 -30,-71 -115,-25 19,9 38,17 58,25 -3,56 -7,14 -19,51 -29,95 79,36 107,31 -7,50 -38,50 -82,64 -48,15 -63,34 -101,43 0,-60 -9,-9 17,-51 -38,4 -66,21 -103,36l-4 1c-47,19 -54,22 -59,82 -40,12 -86,26 -115,55 -28,27 -56,54 -84,80 -3,2 -5,4 -6,6 10,75 0,76 -46,106 -38,25 -51,24 -86,55 -114,102 -59,55 -53,230 -24,-7 -46,-15 -68,-23 -17,-117 6,-78 -87,-105 -101,-29 -87,20 -129,29 -46,10 -69,-42 -137,1 -37,25 -73,42 -82,87 -11,55 -35,95 -32,155 6,164 156,173 194,97 25,-51 19,-79 102,-66 8,44 -5,76 -16,109 -7,20 -27,55 -17,82 59,24 61,-21 139,25 5,78 -35,165 25,211 46,34 49,4 90,-4 46,-8 37,20 79,27 24,-29 14,-11 29,-47 27,-62 35,-33 99,-71 6,-4 12,-7 18,-12 7,15 15,30 23,44 47,-56 53,-1 107,14 24,6 40,9 53,9 40,1 44,-19 98,1 6,3 15,5 22,7 1,0 4,1 4,3 1,1 4,3 5,4 9,10 10,20 17,31 37,36 75,71 111,106 72,28 72,-25 154,55 35,33 19,32 38,74 3,7 8,13 12,21 7,20 15,39 24,57 37,49 88,18 140,69 30,29 7,20 74,32 103,17 63,7 141,66 30,22 37,9 65,28 39,55 29,114 -4,162 -101,147 -66,123 -71,240 -4,67 -23,205 -86,222 -228,64 -96,109 -156,222 -17,32 -30,40 -41,66 -45,106 -14,142 -148,118 13,23 5,7 17,28 40,62 46,109 -36,124 -68,13 -39,0 -45,76 -26,11 -38,0 -56,17 24,44 2,7 42,32 -7,24 -13,47 -19,71 -15,57 -20,4 -25,71 24,11 40,9 61,37 -3,22 -25,82 -31,116 34,50 61,104 133,109 -1,42 9,38 -27,47 -31,7 -96,-22 -124,-36 -47,-26 -91,-59 -123,-107 -18,-27 -11,-14 -30,-39 -35,-44 -21,-65 -31,-95 -5,-17 -34,-36 -22,-93 3,-16 28,-93 -3,-79 -31,12 24,7 -19,28 -10,-28 -18,-69 -24,-103 -11,-58 -25,-60 -31,-95 -14,-81 21,-90 -17,-225 -25,-89 -15,-300 -42,-409 -4,-17 -9,-32 -16,-43 -25,-41 -85,-60 -133,-93 -3,-1 -5,-1 -5,-3 -66,-47 -129,-230 -182,-298 -25,-33 -40,-18 -51,-70 -12,-47 6,-39 22,-79 -81,-149 105,-146 66,-325 -8,-33 -32,-79 -52,-93 -38,17 -20,26 -40,58 -31,-17 -62,-35 -92,-52 -94,-90 -44,-25 -70,-84 -56,-124 -110,-55 -177,-116 -30,-26 -36,-66 -86,-58 -75,10 -34,22 -112,-15 -66,-31 -136,-68 -182,-110 -2,-66 22,-69 -19,-130 -7,-11 -15,-22 -24,-32zm891 -1514c17,-15 35,-30 52,-45l1 3c4,6 6,6 10,21 -46,11 -46,19 -64,21zm2432 845c25,16 56,28 75,45 24,65 -6,34 40,101 26,36 21,63 48,83 50,-7 6,8 37,-23 5,-6 21,-24 25,-31 -16,-25 -26,-27 -41,-53 56,-75 81,-32 95,18 36,138 90,98 136,91 46,-7 6,2 48,12 40,10 21,0 49,-7 96,-23 22,162 12,182 -52,6 -42,-5 -79,-9 -76,-8 5,45 -174,-13 -171,-55 -135,-67 -170,52 -39,-3 -37,-10 -74,-23 -14,-5 -22,-8 -27,-10l-2 -1c-15,-5 0,-1 -30,-29 -26,-25 -91,-31 -137,-55 0,-39 35,-72 -7,-119 -14,-4 -207,4 -238,11 -63,13 -74,66 -160,55 -47,-7 -31,-2 -43,-30 15,-15 0,-7 26,-17 10,-4 14,-2 24,-4 140,-21 68,-92 156,-160 73,-58 15,1 56,-70 49,-4 43,20 85,-1 35,-17 24,-33 73,-34 44,44 35,70 106,103 28,13 45,20 64,45 33,47 5,31 17,63 3,-1 6,-3 10,-4l2 -1c38,-18 -19,-24 43,-79 -18,-13 -31,-22 -43,-29l-2 -1c-48,-28 -29,-2 -91,-79 -16,-22 -21,-23 -20,-57 45,-8 53,24 93,60 5,5 12,9 18,14l2 1zm972 1962c-40,20 -45,67 -76,93 -33,30 -76,16 -89,71 -16,69 27,48 -21,138 -17,33 -18,117 8,142 79,76 122,-117 140,-177 14,-43 26,-92 41,-132 15,-43 35,-81 -4,-136zm-131 -2033c6,89 59,123 96,164 -5,42 -15,31 -14,90 45,32 77,52 136,36 8,-71 -15,-68 -36,-117 4,-6 14,-13 15,-15 16,-22 8,9 16,-28 -43,-14 -112,-58 -117,-115 21,-17 15,-7 30,-17 34,-22 8,12 28,-26 -17,-34 -36,-39 -78,-23 -18,7 -66,42 -76,50zm-372 23c-28,-39 -26,-59 -81,-60 -22,23 -47,58 -59,94 -18,54 -5,17 -4,75 -1,2 0,5 0,7 -1,35 -9,-7 -4,25 43,-9 10,-8 42,-18 30,-10 122,-38 148,-31 63,15 116,64 187,15 -4,-63 -80,-87 -133,-115 3,-58 18,-12 15,-68 -18,-1 -29,-4 -46,4 -41,18 -18,23 -18,30 2,31 41,-7 -1,32 -12,10 -31,10 -45,12zm-1063 -442c-2,102 34,68 67,118 -15,43 -18,9 -35,54 -16,37 4,4 -6,69 26,1 65,-8 100,-11 49,-4 48,-9 65,-59 -27,-33 -55,-67 -83,-100 -36,-54 0,-17 -11,-62 -8,-16 -15,-32 -23,-48 -47,16 -43,12 -75,40z"/>
   <g>
    <g>
     <polygon class="fil4" points="1273,4874 1390,4874 1746,4874 1863,4874 1911,5372 1996,5440 2175,5554 1568,6988 961,5554 1140,5440 1225,5372 "/>
     <polygon class="fil5" points="1078,5477 588,5633 1568,6988 2401,5587 2056,5478 1751,5693 1386,5693 "/>
     <polygon class="fil6" points="1459,5673 1501,5776 1408,6952 1568,7075 1728,6952 1635,5776 1677,5673 1568,5669 "/>
     <path class="fil7" d="M1086 5474l-866 276c0,0 -112,58 -146,235 -32,170 -49,343 -75,577 413,379 963,610 1568,610 605,0 1155,-231 1568,-610 -26,-234 -42,-407 -75,-577 -34,-177 -146,-235 -146,-235l-860 -273 -488 1430 -482 -1434z"/>
     <path class="fil8" d="M1086 5474l-187 60 -36 474c0,0 10,39 40,35l169 63c0,0 11,11 1,25l-144 99 498 939c47,3 94,4 141,4 47,0 94,-1 141,-4l498 -939 -144 -99c-10,-14 1,-25 1,-25l169 -63c30,3 40,-35 40,-35l-36 -472 -181 -57 -488 1430 -482 -1434z"/>
     <g>
      <path class="fil9" d="M880 3862c0,46 -17,92 -16,136 -158,-29 -82,441 8,505 7,5 25,-6 39,-16 31,173 296,635 465,829 47,54 333,53 379,2 173,-190 437,-657 469,-831 15,9 32,21 39,16 90,-65 166,-535 8,-505 1,-44 -16,-90 -16,-136 -9,-365 -339,-547 -688,-549 -348,2 -679,184 -688,549z"/>
      <path class="fil10" d="M1092 3394c-50,-6 -230,49 -252,240 -22,191 -11,366 -11,366 0,0 106,27 119,135 13,108 4,108 4,108l38 -9 27 -186c158,-99 -1,-246 157,-280 427,304 803,252 973,109 0,0 -40,150 -9,203 31,53 12,137 12,137l40 -2c0,0 -7,-220 81,-219 335,-553 -725,-1239 -1179,-604z"/>
     </g>
     <g>
      <path class="fil3" d="M1221 5300c12,1 -145,178 -145,178l134 457 358 -267c-197,-97 -315,-222 -347,-368z"/>
      <path class="fil3" d="M1915 5300c-12,1 144,178 144,178l-134 457 -358 -267c197,-97 315,-222 347,-368z"/>
     </g>
    </g>
    <g>
     <polygon class="fil4" points="7166,2565 7283,2565 7639,2565 7757,2565 7804,3063 7889,3131 8068,3245 7461,4679 6854,3245 7033,3131 7118,3063 "/>
     <polygon class="fil5" points="6971,3168 6482,3324 7461,4679 8295,3278 7949,3169 7644,3384 7279,3384 "/>
     <polygon class="fil6" points="7352,3364 7394,3467 7301,4643 7461,4766 7622,4643 7529,3467 7571,3364 7461,3360 "/>
     <path class="fil7" d="M6980 3165l-866 276c0,0 -112,58 -146,235 -32,170 -49,343 -75,577 413,379 963,610 1568,610 605,0 1155,-231 1568,-610 -26,-234 -42,-407 -75,-577 -34,-177 -146,-235 -146,-235l-860 -273 -488 1430 -482 -1434z"/>
     <path class="fil8" d="M6980 3165l-187 60 -36 474c0,0 10,39 40,35l169 63c0,0 11,11 1,25l-144 99 498 939c47,3 94,4 141,4 47,0 94,-1 141,-4l498 -939 -144 -99c-10,-14 1,-25 1,-25l169 -63c30,4 40,-35 40,-35l-36 -472 -181 -57 -488 1430 -482 -1434z"/>
     <g>
      <path class="fil9" d="M6774 1553c0,46 -17,92 -16,136 -158,-29 -82,441 8,505 7,5 25,-6 39,-16 31,173 296,635 465,829 47,54 333,53 379,2 173,-190 437,-657 469,-831 15,9 32,21 39,16 90,-65 166,-535 8,-505 1,-44 -16,-90 -16,-136 -9,-365 -339,-547 -688,-549 -348,2 -679,184 -688,549z"/>
      <path class="fil10" d="M6986 1085c-50,-6 -230,49 -252,240 -22,191 -11,366 -11,366 0,0 106,27 119,135 13,108 4,108 4,108l38 -9 27 -186c158,-99 -1,-246 157,-280 427,304 803,252 973,109 0,0 -40,150 -9,203 31,53 12,137 12,137l40 -2c0,0 -7,-220 81,-219 335,-553 -725,-1239 -1179,-604z"/>
     </g>
     <g>
      <path class="fil3" d="M7114 2992c12,1 -145,178 -145,178l134 457 358 -267c-197,-97 -315,-222 -347,-368z"/>
      <path class="fil3" d="M7808 2992c-12,1 144,178 144,178l-134 457 -358 -267c197,-97 315,-222 347,-368z"/>
     </g>
    </g>
   </g>
   <g>
    <path class="fil11" d="M4524 792c551,0 1074,120 1544,336l-124 -308 135 -54 203 503 31 77 -81 20 -544 137 -35 -141 374 -94c-456,-213 -965,-331 -1502,-331 -983,0 -1873,399 -2517,1043 -130,130 -249,269 -357,417l-58 82 -120 -82c128,-186 273,-360 433,-520 671,-671 1597,-1085 2620,-1085z"/>
    <path class="fil11" d="M4509 8234c-551,0 -1074,-120 -1544,-336l124 308 -135 54 -203 -503 -31 -77 81 -20 544 -137 35 141 -374 94c456,213 965,331 1502,331 983,0 1873,-399 2517,-1043 130,-130 249,-269 357,-417l58 -82 120 82c-128,186 -273,360 -433,520 -671,671 -1597,1085 -2620,1085z"/>
   </g>
  </g>
 </g>
</svg>
