<?xml version="1.0" encoding="UTF-8"?>
<!DOCTYPE svg PUBLIC "-//W3C//DTD SVG 1.1//EN" "http://www.w3.org/Graphics/SVG/1.1/DTD/svg11.dtd">
<!-- Creator: CorelDRAW X6 -->
<svg xmlns="http://www.w3.org/2000/svg" xml:space="preserve" width="202px" height="202px" version="1.1" style="shape-rendering:geometricPrecision; text-rendering:geometricPrecision; image-rendering:optimizeQuality; fill-rule:evenodd; clip-rule:evenodd"
viewBox="0 0 7457 7457"
 xmlns:xlink="http://www.w3.org/1999/xlink">
 <defs>
  <style type="text/css">
   <![CDATA[
    .fil1 {fill:#6B7F9E}
    .fil0 {fill:#E4E7ED}
    .fil3 {fill:#FFE356}
    .fil4 {fill:white}
    .fil2 {fill:#83CF8F;fill-rule:nonzero}
   ]]>
  </style>
 </defs>
 <g id="Layer_x0020_1">
  <metadata id="CorelCorpID_0Corel-Layer"/>
  <g id="_356988240">
   <circle class="fil0" cx="3729" cy="3728" r="3728"/>
   <path class="fil1" d="M334 3982l6788 0c184,0 334,150 334,334l0 2637 -7457 0 0 -2637c0,-184 150,-334 334,-334z"/>
   <path class="fil2" d="M3669 3953l0 -1163c0,-114 47,-218 122,-293l0 0 0 0c75,-75 179,-122 293,-122l1148 0 1090 0c86,0 164,-35 220,-91l0 0c56,-56 91,-134 91,-220l0 -1744 103 0 0 1744c0,114 -47,218 -122,293l0 0 0 0c-75,75 -179,122 -293,122l-1090 0 -1148 0c-86,0 -164,35 -220,91l0 0c-56,56 -91,134 -91,220l0 1163 -103 0z"/>
   <g>
    <path class="fil3" d="M6474 292l422 0 0 475c0,49 -40,89 -89,89l-245 0c-49,0 -89,-40 -89,-89l0 -475z"/>
    <polygon class="fil0" points="6527,292 6843,292 6843,0 6527,0 "/>
   </g>
   <path class="fil3" d="M3626 3840l205 0c16,0 29,13 29,29l0 112 -262 0 0 -112c0,-16 13,-29 29,-29z"/>
   <path class="fil4" d="M2361 617l2735 0 0 93 -2735 0 0 -93zm0 1024l1717 0 0 93 -1717 0 0 -93zm0 -256l2735 0 0 93 -2735 0 0 -93zm0 -256l2194 0 0 93 -2194 0 0 -93zm0 -256l2735 0 0 93 -2735 0 0 -93z"/>
   <path class="fil4" d="M1257 4629l413 0 0 413 -413 0 0 -413zm-643 1628l413 0 0 413 -413 0 0 -413zm5816 -545l413 0 0 958 -413 0 0 -958zm-643 545l413 0 0 413 -413 0 0 -413zm-643 0l413 0 0 413 -413 0 0 -413zm-672 0l413 0 0 413 -413 0 0 -413zm-643 0l413 0 0 413 -413 0 0 -413zm-1929 0l1744 0 0 413 -1744 0 0 -413zm-643 0l413 0 0 413 -413 0 0 -413zm-643 -543l1053 0 0 413 -1053 0 0 -413zm5173 0l413 0 0 413 -413 0 0 -413zm-643 0l413 0 0 413 -413 0 0 -413zm-672 0l413 0 0 413 -413 0 0 -413zm-643 0l413 0 0 413 -413 0 0 -413zm-643 0l413 0 0 413 -413 0 0 -413zm-643 0l413 0 0 413 -413 0 0 -413zm-643 0l413 0 0 413 -413 0 0 -413zm-1286 -543l413 0 0 413 -413 0 0 -413zm5816 0l413 0 0 413 -413 0 0 -413zm-643 0l413 0 0 413 -413 0 0 -413zm-643 0l413 0 0 413 -413 0 0 -413zm-1299 0l1040 0 0 413 -1040 0 0 -413zm-659 0l413 0 0 413 -413 0 0 -413zm-643 0l413 0 0 413 -413 0 0 -413zm-643 0l413 0 0 413 -413 0 0 -413zm-643 0l413 0 0 413 -413 0 0 -413zm-643 -543l413 0 0 413 -413 0 0 -413zm5816 0l413 0 0 413 -413 0 0 -413zm-643 0l413 0 0 413 -413 0 0 -413zm-643 0l413 0 0 413 -413 0 0 -413zm-672 0l413 0 0 413 -413 0 0 -413zm-643 0l413 0 0 413 -413 0 0 -413zm-643 0l413 0 0 413 -413 0 0 -413zm-643 0l413 0 0 413 -413 0 0 -413zm-643 0l413 0 0 413 -413 0 0 -413z"/>
   <path class="fil3" d="M1898 4263l344 0c39,0 70,32 70,70l0 0c0,39 -32,70 -70,70l-344 0c-39,0 -70,-32 -70,-70l0 0c0,-39 32,-70 70,-70zm636 0l344 0c39,0 70,32 70,70l0 0c0,39 -32,70 -70,70l-344 0c-39,0 -70,-32 -70,-70l0 0c0,-39 32,-70 70,-70z"/>
  </g>
 </g>
</svg>
