<?xml version="1.0" encoding="UTF-8"?>
<!DOCTYPE svg PUBLIC "-//W3C//DTD SVG 1.1//EN" "http://www.w3.org/Graphics/SVG/1.1/DTD/svg11.dtd">
<!-- Creator: CorelDRAW X6 -->
<svg xmlns="http://www.w3.org/2000/svg" xml:space="preserve" width="202px" height="202px" version="1.1" style="shape-rendering:geometricPrecision; text-rendering:geometricPrecision; image-rendering:optimizeQuality; fill-rule:evenodd; clip-rule:evenodd"
viewBox="0 0 2810 2810"
 xmlns:xlink="http://www.w3.org/1999/xlink">
 <defs>
  <style type="text/css">
   <![CDATA[
    .fil8 {fill:#FEFEFE}
    .fil4 {fill:#6B7F9E}
    .fil7 {fill:#8597B1}
    .fil1 {fill:#C6CBD6}
    .fil6 {fill:#E4E7ED}
    .fil2 {fill:#ECF0F1}
    .fil9 {fill:#FCD34E}
    .fil0 {fill:#FF7069}
    .fil3 {fill:#FFE356}
    .fil5 {fill:white}
   ]]>
  </style>
 </defs>
 <g id="Layer_x0020_1">
  <metadata id="CorelCorpID_0Corel-Layer"/>
  <g id="_494690344">
   <circle class="fil0" cx="1405" cy="1405" r="1405"/>
   <path class="fil1" d="M1032 1400c637,0 1154,517 1154,1154 0,7 0,13 0,20 -223,149 -491,236 -780,236 -605,0 -1120,-382 -1318,-918 209,-297 554,-492 945,-492z"/>
   <path class="fil2" d="M1645 1576c16,10 32,21 48,32 -16,2 -27,11 -40,2 -10,-7 -11,-20 -8,-34zm59 40c101,72 189,161 262,261 -5,-2 -9,-3 -16,-2 -20,3 -11,8 -12,11 -3,14 18,2 -4,14 -6,3 -15,1 -21,-1 -7,-20 -4,-29 -27,-36 -12,7 -28,19 -37,33 -15,21 -4,7 -11,32 -1,1 -1,2 -1,3 -5,15 -3,-4 -5,11 20,2 5,-2 20,-3 14,-1 57,-1 68,5 25,14 42,42 79,29 6,-28 -24,-48 -43,-66 8,-23 9,-5 14,-24 80,111 140,237 176,372 -33,-8 -34,5 -58,-31 -16,-24 -4,-51 -38,-43 -9,25 2,35 10,50 6,12 14,21 15,34 0,0 -1,13 -1,14 29,10 40,-2 59,-9 11,19 -5,17 15,36 7,6 10,8 12,11 2,9 3,17 5,26 -13,22 -61,52 -76,57 -14,4 -19,-2 -32,4 -19,9 -1,12 -32,14 -32,2 -68,17 -100,10 -1,-20 -3,-41 -4,-61 -2,-69 -8,-44 -18,-82 -5,-17 1,-25 -1,-39 -2,-11 -7,-17 -10,-30 -4,-20 -6,-51 -28,-55 -8,13 1,67 4,81 3,13 11,21 8,38 -3,24 -7,20 2,39 17,39 -9,26 23,69 24,32 14,37 18,71 18,11 86,2 94,13 6,25 -30,52 -42,69 -40,57 -78,45 -122,85 -24,22 -32,23 -56,50 -14,15 -15,52 -18,88 -118,32 -243,50 -371,50 -4,0 -8,0 -12,0 -1,-5 -2,-10 -3,-16 -14,-67 43,-84 50,-117 2,-9 0,-15 1,-22 5,-38 10,-72 -6,-107 -18,-39 -17,-27 6,-75 28,-56 -2,-48 -36,-59 -2,-58 -43,-42 -81,-36 -24,4 -28,-11 -53,-15 -55,-8 -20,27 -75,-50 -23,-32 -6,-14 -16,-49 -3,-12 -17,-32 -22,-45 -17,-42 25,-67 31,-107 12,-75 -17,-15 48,-91 35,-40 67,-31 81,-50 12,-16 11,-31 30,-44 16,-10 32,-3 45,-23 17,-24 0,-33 -19,-39 0,-30 -2,-23 11,-47 8,-13 7,-21 14,-35 18,-34 69,20 91,10 13,-13 18,-28 13,-45 -6,-18 -19,-19 -22,-35 18,-6 4,0 18,1 16,1 16,-4 35,-2 17,1 31,-10 50,-16 27,-8 20,-24 48,-21 46,5 17,-2 33,-41 7,-1 14,-2 22,-3 9,22 -7,10 6,26 5,-1 11,-2 16,-3 3,-18 -5,-19 -6,-37zm-865 1075c-154,-68 -293,-162 -412,-277 -8,-35 -13,-77 -22,-99 -7,-17 -15,-13 -13,-36 1,-22 8,-16 19,-31 -17,-74 63,-50 69,-132 1,-15 -4,-38 -11,-47 -19,2 -12,9 -24,20 -11,-11 -22,-23 -33,-34 -29,-51 -16,-16 -20,-45 -9,-60 -41,-37 -62,-72 -10,-15 -7,-33 -30,-36 -34,-5 -17,5 -46,-20 -25,-22 -50,-46 -65,-70 7,-28 18,-27 8,-57 153,-160 351,-276 573,-327 -4,7 -7,14 -4,24 20,25 31,-9 44,-30 39,3 56,-2 64,-13 35,-5 70,-8 105,-9 -1,7 3,12 15,13 20,2 20,-14 45,-11 3,28 -2,38 -6,69 50,38 20,49 -3,87 6,5 13,11 19,16 -4,12 -8,23 -11,35 -1,0 -57,-30 -60,-33 16,-23 33,-19 51,-42 -22,-2 -23,5 -39,5 -15,0 -25,-6 -40,-8 -10,15 4,-15 -1,7 -2,8 5,2 -3,9 -17,-15 -4,-34 -46,-25 7,6 14,12 22,18 -8,24 -5,5 -15,20 -24,38 30,25 42,27 -9,21 -23,17 -43,17 -23,0 -31,7 -49,6 7,-26 -3,-5 14,-20 -17,-3 -31,1 -49,3l-2 0c-22,2 -26,3 -36,28 -19,0 -41,1 -56,10 -15,8 -31,16 -46,24 -1,1 -2,1 -3,2 -5,34 -9,33 -33,40 -20,6 -25,4 -44,13 -62,30 -32,16 -51,93 -9,-6 -18,-12 -27,-18 7,-52 12,-33 -25,-56 -40,-25 -40,-2 -59,-3 -21,-1 -25,-27 -59,-16 -19,6 -37,9 -46,28 -11,22 -27,36 -33,63 -17,71 46,94 72,66 17,-19 18,-32 52,-16 -2,20 -11,32 -20,45 -6,8 -19,20 -18,33 23,18 29,-2 57,28 -7,34 -36,67 -15,94 16,20 21,8 39,10 21,2 14,13 31,21 14,-10 7,-3 18,-17 19,-23 19,-10 51,-18 3,-1 6,-2 9,-3 1,7 3,15 4,22 27,-18 23,6 45,19 9,6 16,9 22,10 17,5 21,-3 42,12 2,2 6,4 9,6 0,0 1,1 1,2 0,0 1,2 2,2 3,5 2,10 4,16 12,20 23,40 35,60 27,21 34,-2 59,43 11,18 4,16 7,37 0,3 2,7 2,11 1,9 2,19 3,28 10,26 36,19 52,47 9,16 1,10 28,23 42,20 26,11 53,46 10,13 15,9 25,20 10,28 -2,53 -22,69 -62,51 -44,45 -60,95 -8,24 -27,67 -50,81zm866 -831c9,10 21,19 27,28 2,31 -7,14 5,49 7,19 1,30 10,42 22,3 2,4 19,-5 3,-2 12,-8 15,-10 -4,-13 -8,-15 -11,-28 34,-25 39,-4 39,19 -2,64 27,53 47,56 21,3 3,1 19,11 16,9 9,3 22,3 44,2 -11,72 -17,80 -23,-4 -17,-7 -33,-14 -32,-13 -4,20 -73,-27 -67,-45 -50,-46 -80,1 -16,-6 -15,-9 -29,-19 -5,-4 -8,-6 -11,-8l-1 0c-6,-4 0,0 -9,-16 -8,-14 -35,-24 -52,-40 5,-17 24,-27 12,-52 -5,-3 -90,-24 -104,-25 -29,-2 -40,19 -76,4 -20,-9 -13,-5 -15,-18 9,-5 1,-3 13,-4 5,0 6,1 11,1 63,8 41,-31 87,-50 39,-16 7,2 33,-23 22,4 16,14 37,10 17,-3 14,-11 36,-6 13,24 6,34 33,58 11,9 17,14 22,27 8,24 -2,14 0,29 1,0 3,-1 5,-1l1 0c19,-3 -5,-13 28,-29 -6,-8 -11,-14 -15,-18l-1 -1c-17,-18 -12,-5 -29,-45 -4,-11 -6,-13 -2,-27 20,2 20,17 33,37 2,3 4,6 6,8l1 1zm-196 -284c-13,44 6,33 14,59 -12,17 -9,2 -22,19 -11,14 1,2 -11,29 11,4 29,5 44,8 22,4 22,2 36,-17 -8,-18 -15,-36 -23,-54 -9,-28 2,-7 3,-28 -2,-8 -3,-16 -4,-24 -22,1 -20,0 -37,8z"/>
   <path class="fil3" d="M1597 1291c7,-7 -41,124 -77,172 -36,48 -83,96 -83,96l14 -54 -130 114 4 -47c0,0 -53,32 -115,59 -60,26 -61,25 -35,-35 27,-62 59,-115 59,-115l-47 4 114 -130 -54 14c0,0 47,-47 96,-83 48,-36 179,-84 172,-77l39 43 43 39z"/>
   <g>
    <polygon class="fil4" points="1922,1089 1980,1336 1655,1677 1690,1254 "/>
    <polygon class="fil4" points="1717,883 1469,826 1128,1150 1551,1116 "/>
   </g>
   <path class="fil2" d="M1675 1320l-95 -95 -95 -95c197,-214 474,-1201 1316,-1126 115,825 -929,1139 -1126,1316z"/>
   <path class="fil5" d="M1503 1148l-18 -18c168,-182 394,-925 977,-1095l17 33c-514,178 -681,671 -970,1079l-7 1z"/>
   <path class="fil6" d="M2801 4l0 0c-31,675 -646,964 -1174,1268l47 47c198,-177 1241,-491 1126,-1316z"/>
   <path class="fil4" d="M2779 353c-123,-59 -260,-199 -316,-318 102,-30 214,-42 339,-31 18,128 8,244 -23,349z"/>
   <path class="fil7" d="M2480 68c-6,-11 -12,-22 -17,-33 110,-32 225,-41 339,-31 -121,9 -227,31 -321,64z"/>
   <polygon class="fil4" points="1679,1316 1489,1126 1421,1194 1611,1384 "/>
   <circle class="fil4" transform="matrix(-0.716959 -0.716959 -0.716959 0.716959 2348.17 475.788)" r="200"/>
   <circle class="fil3" transform="matrix(-0.506958 -0.506958 -0.506958 0.506958 2348.17 475.784)" r="200"/>
   <path class="fil2" d="M929 681c99,0 180,80 180,180 0,99 -80,180 -180,180l-477 0c-81,0 -146,-66 -146,-146 0,-81 66,-146 146,-146 9,0 18,1 26,2 15,-115 113,-203 232,-203 93,0 174,55 212,134 2,0 5,0 7,0z"/>
   <path class="fil2" d="M2520 1476c71,0 129,58 129,129 0,71 -58,129 -129,129l-342 0c-58,0 -105,-47 -105,-105 0,-58 47,-105 105,-105 6,0 13,1 19,2 11,-82 81,-145 166,-145 67,0 125,39 152,96 2,0 3,0 5,0z"/>
   <path class="fil8" d="M1157 1574c-118,88 -380,445 -364,990 28,-228 94,-701 436,-896l-98 16 26 -110z"/>
   <path class="fil8" d="M919 671c97,0 176,77 176,173 0,95 -79,173 -176,173l-466 0c-79,0 -143,-63 -143,-141 0,-78 64,-141 143,-141 9,0 17,1 26,2 15,-110 111,-195 227,-195 91,0 170,53 207,129 2,0 5,0 7,0z"/>
   <path class="fil8" d="M2510 1454c71,0 129,58 129,129 0,71 -58,129 -129,129l-342 0c-58,0 -105,-47 -105,-105 0,-58 47,-105 105,-105 6,0 13,1 19,2 11,-82 81,-145 166,-145 67,0 125,39 152,96 2,0 3,0 5,0z"/>
   <path class="fil8" d="M1197 1780c-78,47 -253,252 -344,613 103,-274 212,-487 363,-593l-19 -20z"/>
   <path class="fil8" d="M1136 1503c-70,36 -246,221 -305,530 74,-234 190,-433 323,-513l-18 -17z"/>
   <path class="fil9" d="M2345 361c38,-1 76,13 105,42 23,23 37,53 41,83 3,-40 -11,-81 -42,-112 -36,-36 -86,-49 -133,-39 -26,6 -50,19 -70,39 -35,35 -48,83 -40,128 0,-36 14,-72 42,-100 27,-27 61,-41 96,-42z"/>
  </g>
 </g>
</svg>
