<?xml version="1.0" encoding="UTF-8"?>
<!DOCTYPE svg PUBLIC "-//W3C//DTD SVG 1.1//EN" "http://www.w3.org/Graphics/SVG/1.1/DTD/svg11.dtd">
<!-- Creator: CorelDRAW X6 -->
<svg xmlns="http://www.w3.org/2000/svg" xml:space="preserve" width="202px" height="202px" version="1.1" style="shape-rendering:geometricPrecision; text-rendering:geometricPrecision; image-rendering:optimizeQuality; fill-rule:evenodd; clip-rule:evenodd"
viewBox="0 0 9028 9028"
 xmlns:xlink="http://www.w3.org/1999/xlink">
 <defs>
  <style type="text/css">
   <![CDATA[
    .fil7 {fill:#384A66}
    .fil0 {fill:#6B7F9E}
    .fil3 {fill:#75BD80}
    .fil4 {fill:#83CF8F}
    .fil5 {fill:#E4E7ED}
    .fil1 {fill:#FF7069}
    .fil6 {fill:#FFE356}
    .fil2 {fill:white}
    .fil8 {fill:#83CF8F;fill-rule:nonzero}
    .fil9 {fill:#FF7069;fill-rule:nonzero}
   ]]>
  </style>
 </defs>
 <g id="Layer_x0020_1">
  <metadata id="CorelCorpID_0Corel-Layer"/>
  <g id="_525314912">
   <g>
    <circle class="fil0" cx="4514" cy="4514" r="4514"/>
    <path class="fil1" d="M1761 1710l5505 0 0 6381c-762,587 -1716,937 -2753,937 -1036,0 -1991,-349 -2753,-936l0 -6381z"/>
    <path class="fil2" d="M2196 1939l4635 0 0 6448c-678,406 -1470,640 -2318,640 -847,0 -1640,-234 -2318,-640l0 -6448z"/>
    <path class="fil3" d="M4413 832l202 0c125,0 227,102 227,227l0 524 -657 0 0 -524c0,-125 102,-227 227,-227zm101 133c100,0 182,81 182,182 0,100 -81,182 -182,182 -100,0 -181,-81 -181,-182 0,-100 81,-182 181,-182z"/>
    <path class="fil4" d="M3635 1466l1757 0c100,0 182,82 182,182l0 504 -2121 0 0 -504c0,-100 82,-182 182,-182z"/>
    <path class="fil5" d="M3855 2892l2582 0 0 139 -2582 0 0 -139zm0 657l1825 0 0 139 -1825 0 0 -139zm0 -328l2582 0 0 139 -2582 0 0 -139z"/>
    <path class="fil5" d="M3855 4609l2582 0 0 139 -2582 0 0 -139zm0 657l1825 0 0 139 -1825 0 0 -139zm0 -328l2582 0 0 139 -2582 0 0 -139z"/>
    <path class="fil5" d="M3855 6325l2582 0 0 139 -2582 0 0 -139zm0 657l1825 0 0 139 -1825 0 0 -139zm0 -328l2582 0 0 139 -2582 0 0 -139z"/>
    <g>
     <polygon class="fil4" points="7672,5138 8111,5138 8111,1040 7672,1040 "/>
     <polygon class="fil6" points="7892,6011 8111,5138 7672,5138 "/>
     <path class="fil6" d="M7762 641l259 0c71,0 130,69 130,152l0 1905 -518 0 0 -1905c0,-84 58,-152 130,-152z"/>
     <polygon class="fil7" points="7883,6074 7901,6074 7974,5683 7810,5683 "/>
     <path class="fil8" d="M7633 969l633 5 40 0 0 47 0 1419 0 15 -7 12 -60 101c-31,47 -95,11 -65,-54l53 -89 0 -1358 -593 -5 0 -94z"/>
    </g>
    <g>
     <path class="fil9" d="M2682 3298c-13,-15 -11,-38 4,-51 15,-13 38,-11 51,4l129 154 353 -309c15,-13 38,-12 51,3 13,15 12,38 -3,51l-381 334 0 0 -1 0c-15,13 -38,11 -51,-4l-153 -182z"/>
     <path class="fil8" d="M2977 2773c143,0 272,58 366,152 94,94 152,223 152,366 0,143 -58,272 -152,366 -94,94 -223,152 -366,152 -143,0 -272,-58 -366,-152 -94,-94 -152,-223 -152,-366 0,-143 58,-272 152,-366 94,-94 223,-152 366,-152zm317 200c-81,-81 -193,-131 -317,-131 -124,0 -236,50 -317,131 -81,81 -131,193 -131,317 0,124 50,236 131,317 81,81 193,131 317,131 124,0 236,-50 317,-131 81,-81 131,-193 131,-317 0,-124 -50,-236 -131,-317z"/>
    </g>
    <g>
     <path class="fil9" d="M2682 5015c-13,-15 -11,-38 4,-51 15,-13 38,-11 51,4l129 154 353 -309c15,-13 38,-12 51,3 13,15 12,38 -3,51l-381 334 0 0 -1 0c-15,13 -38,11 -51,-4l-153 -182z"/>
     <path class="fil8" d="M2977 4489c143,0 272,58 366,152 94,94 152,223 152,366 0,143 -58,272 -152,366 -94,94 -223,152 -366,152 -143,0 -272,-58 -366,-152 -94,-94 -152,-223 -152,-366 0,-143 58,-272 152,-366 94,-94 223,-152 366,-152zm317 200c-81,-81 -193,-131 -317,-131 -124,0 -236,50 -317,131 -81,81 -131,193 -131,317 0,124 50,236 131,317 81,81 193,131 317,131 124,0 236,-50 317,-131 81,-81 131,-193 131,-317 0,-124 -50,-236 -131,-317z"/>
    </g>
    <g>
     <path class="fil9" d="M2682 6731c-13,-15 -11,-38 4,-51 15,-13 38,-11 51,4l129 154 353 -309c15,-13 38,-12 51,3 13,15 12,38 -3,51l-381 334 0 0 -1 0c-15,13 -38,11 -51,-4l-153 -182z"/>
     <path class="fil8" d="M2977 6205c143,0 272,58 366,152 94,94 152,223 152,366 0,143 -58,272 -152,366 -94,94 -223,152 -366,152 -143,0 -272,-58 -366,-152 -94,-94 -152,-223 -152,-366 0,-143 58,-272 152,-366 94,-94 223,-152 366,-152zm317 200c-81,-81 -193,-131 -317,-131 -124,0 -236,50 -317,131 -81,81 -131,193 -131,317 0,124 50,236 131,317 81,81 193,131 317,131 124,0 236,-50 317,-131 81,-81 131,-193 131,-317 0,-124 -50,-236 -131,-317z"/>
    </g>
   </g>
   <polygon class="fil5" points="3409,2109 5618,2109 5618,2208 3409,2208 "/>
  </g>
 </g>
</svg>
