<?xml version="1.0" encoding="UTF-8"?>
<!DOCTYPE svg PUBLIC "-//W3C//DTD SVG 1.1//EN" "http://www.w3.org/Graphics/SVG/1.1/DTD/svg11.dtd">
<!-- Creator: CorelDRAW X6 -->
<svg xmlns="http://www.w3.org/2000/svg" xml:space="preserve" width="202px" height="202px" version="1.1" style="shape-rendering:geometricPrecision; text-rendering:geometricPrecision; image-rendering:optimizeQuality; fill-rule:evenodd; clip-rule:evenodd"
viewBox="0 0 85014 85014"
 xmlns:xlink="http://www.w3.org/1999/xlink">
 <defs>
  <style type="text/css">
   <![CDATA[
    .fil8 {fill:#6B7F9E}
    .fil4 {fill:#EDB937}
    .fil7 {fill:#F0BA7D}
    .fil2 {fill:#FCD34E}
    .fil6 {fill:#FED298}
    .fil0 {fill:#FF7069}
    .fil3 {fill:#FFE356}
    .fil1 {fill:white}
    .fil5 {fill:white;fill-rule:nonzero}
   ]]>
  </style>
 </defs>
 <g id="Layer_x0020_1">
  <metadata id="CorelCorpID_0Corel-Layer"/>
  <g id="_494695672">
   <circle class="fil0" cx="42507" cy="42507" r="42507"/>
   <path class="fil1" d="M51951 49986l-232 1278 2606 176c191,-249 330,-544 243,-1040l-2617 -415z"/>
   <g>
    <path class="fil2" d="M43440 10135c0,0 2539,-1768 4119,-1674 1580,94 3448,2296 5603,1243 2155,-1053 2298,-1149 3256,-287 958,862 622,2586 622,2586l-3065 4549 -4022 479 -5698 -3400 -815 -3496z"/>
    <path class="fil3" d="M45648 20721c-12,597 -87,1195 -256,1743 -460,1499 -23792,21205 -5327,30948 14277,7533 39206,-3913 24164,-21283l-7943 -9173c0,0 -188,-967 -288,-2234 -8,-313 -62,-1732 -49,-2048 79,-538 -121,-1209 499,-2568 621,-1359 4325,-4219 4325,-4219 0,0 -2415,-2813 -3435,-2508 -1019,305 -4241,6177 -4241,6177 0,0 -828,-1160 -291,-2934 536,-1775 2039,-4465 2039,-4465 0,0 -2951,-1041 -3649,-246 -698,796 -2040,-1039 -2845,-244 -805,795 -1986,2018 -1986,2018 0,0 1986,1529 2522,2875 537,1346 -161,2325 -161,2325 0,0 54,0 -1127,-979 -1181,-979 -2254,-5015 -3649,-4770 -1395,244 -4724,1345 -2317,2811l3382 4649c0,0 340,1482 479,2079 48,300 124,1719 153,2048z"/>
    <path class="fil4" d="M68884 42273c-3415,12362 -21349,13246 -31424,9494 758,573 1618,1124 2605,1644 11243,5932 29086,93 28819,-11138z"/>
    <g>
     <circle class="fil2" cx="50602" cy="37451" r="9636"/>
     <path class="fil1" d="M53876 33702c0,0 -764,-1049 -2279,-1274l0 -1377 -1609 0 0 1457c-111,25 -224,55 -339,89 -2808,846 -2195,3013 -2167,3354 27,340 627,1240 1908,1867 1281,627 2754,1131 2863,1745 109,613 -423,1486 -1540,1377 -1118,-109 -2481,-1145 -2481,-1145l-1104 1309c0,0 872,1115 2861,1363l0 1383 1609 0 0 -1393c2057,-323 2367,-1885 2367,-1885 0,0 559,-1758 -832,-2767 -1390,-1009 -3462,-1281 -3803,-2290 -340,-1009 777,-1868 1773,-1540 995,327 1813,1036 1813,1036l961 -1308z"/>
    </g>
    <path class="fil5" d="M35934 27031c422,-5458 5221,-5626 7511,-6530 285,-112 556,-202 805,-270 90,-898 885,-1599 1854,-1599 415,0 798,129 1107,346l8835 -225c662,245 356,1098 30,1236l-8123 207c7,67 12,135 12,203 0,167 -25,329 -70,481l8286 -212c661,245 356,1098 30,1236l-9910 253c-65,6 -131,10 -198,10l-94 -2 -9 0 -123 3 -19 -16c-115,-14 -226,-38 -333,-72 -537,774 -1399,1309 -2321,1882 -1786,1108 -5150,1712 -4978,5400l-865 37c-196,-4194 3398,-4940 5385,-6174 808,-502 1562,-970 2021,-1596 -158,-155 -287,-338 -377,-539 -193,57 -405,129 -629,218 -2081,821 -6574,777 -6960,5785l-865 -64z"/>
    <polygon class="fil1" points="16534,56280 31868,68887 28238,72232 13832,58744 "/>
    <path class="fil6" d="M42772 47583c4357,1264 12393,2586 12393,2586 0,0 -454,2888 -2886,3445 -2433,556 -8939,-721 -8939,-721 0,0 -1186,1166 907,1555 2093,389 12337,168 12337,168 0,0 10517,-4983 12327,-5650 1811,-668 2886,1000 2886,1000 0,0 -12102,9582 -13234,10417 -1132,834 -19965,2456 -19965,2456l-5580 567 -2207 2360 -991 1436 -10065 -8274 8030 -5702c3166,-5310 10631,-6907 14989,-5642z"/>
    <path class="fil7" d="M70150 51268c-3349,2649 -10717,8472 -11588,9114 -1132,834 -19965,2456 -19965,2456l-5580 567 -2207 2360 -991 1436 -920 -757c2305,-2244 3976,-3700 3566,-3471 -410,230 23875,-2068 25735,-3031 1861,-964 10706,-8091 11094,-8577 388,-486 855,-97 855,-97l0 0z"/>
    <path class="fil8" d="M6331 64833l6942 -6571 17039 14746 -5749 8042c-7544,-3519 -13884,-9185 -18233,-16216z"/>
    <path class="fil1" d="M51915 49942l-223 1076 2504 149c184,-209 317,-458 234,-876l-2516 -349z"/>
    <path class="fil1" d="M69871 50756l308 325 1344 -960c89,-191 -330,-250 -330,-250l-1322 885z"/>
   </g>
  </g>
 </g>
</svg>
