<?xml version="1.0" encoding="UTF-8"?>
<!DOCTYPE svg PUBLIC "-//W3C//DTD SVG 1.1//EN" "http://www.w3.org/Graphics/SVG/1.1/DTD/svg11.dtd">
<!-- Creator: CorelDRAW X6 -->
<svg xmlns="http://www.w3.org/2000/svg" xml:space="preserve" width="202px" height="202px" version="1.1" style="shape-rendering:geometricPrecision; text-rendering:geometricPrecision; image-rendering:optimizeQuality; fill-rule:evenodd; clip-rule:evenodd"
viewBox="0 0 2810 2810"
 xmlns:xlink="http://www.w3.org/1999/xlink">
 <defs>
  <style type="text/css">
   <![CDATA[
    .fil0 {fill:#6B7F9E}
    .fil6 {fill:#83CF8F}
    .fil5 {fill:#E4E7ED}
    .fil8 {fill:#ECF0F1}
    .fil1 {fill:#FCD34E}
    .fil3 {fill:#FFE356}
    .fil2 {fill:white}
    .fil4 {fill:#6B7F9E;fill-rule:nonzero}
    .fil7 {fill:white;fill-rule:nonzero}
   ]]>
  </style>
 </defs>
 <g id="Layer_x0020_1">
  <metadata id="CorelCorpID_0Corel-Layer"/>
  <g id="_357001392">
   <circle class="fil0" cx="1405" cy="1405" r="1405"/>
   <path class="fil1" d="M2143 1414l0 662c0,111 -131,201 -290,201l-1126 0 0 -863 1417 0z"/>
   <path class="fil2" d="M1853 73l0 2046 0 0c0,5 37,155 238,72 -62,61 -157,86 -238,86l-229 0 -1024 0c-91,0 -164,-74 -164,-164l0 -1726c252,-240 593,-387 969,-387 157,0 307,26 448,73z"/>
   <polygon class="fil3" points="525,751 1782,751 1782,795 525,795 "/>
   <path class="fil4" d="M538 693l0 -300 73 0 58 185c-2,-31 -4,-58 -5,-81 -1,-23 -2,-42 -2,-57l0 -47 63 0 0 300 -73 0 -59 -191c3,25 5,49 6,72 1,23 2,46 2,68l0 51 -63 0zm236 0l0 -300 163 0 0 58 -93 0 0 55 86 0 0 60 -86 0 0 66 93 0 0 61 -163 0zm249 0l-60 -300 71 0 16 146c2,16 3,29 4,40 1,11 2,20 3,29 1,-13 2,-25 3,-36 1,-12 3,-23 4,-33l22 -146 71 0 22 146c1,6 3,19 5,41 1,12 3,22 4,29 1,-18 3,-32 4,-43 1,-10 2,-19 3,-26l16 -147 71 0 -60 300 -76 0 -16 -124c-1,-11 -3,-22 -4,-34 -1,-12 -2,-24 -3,-37 -1,15 -2,28 -3,40 -1,12 -2,22 -4,33l-16 124 -76 0zm272 -102l64 0 0 9c0,17 2,28 6,35 4,7 10,10 20,10 7,0 13,-3 17,-8 4,-5 6,-12 6,-21 0,-15 -10,-29 -31,-42 -3,-2 -6,-4 -8,-5l-3 -2c-28,-19 -46,-33 -53,-43 -5,-7 -9,-15 -11,-25 -3,-9 -4,-19 -4,-30 0,-26 8,-47 23,-62 15,-15 36,-22 63,-22 29,0 51,7 66,22 15,15 23,36 23,64 0,1 0,3 0,5 0,2 0,4 0,5l-63 0 0 -4c0,-13 -2,-23 -6,-30 -4,-7 -10,-10 -18,-10 -7,0 -12,2 -16,7 -4,5 -6,11 -6,19 0,13 11,26 34,40 4,3 7,5 10,6 2,1 4,3 8,5 25,16 40,29 47,39 4,7 8,15 10,24 2,9 3,18 3,29 0,30 -8,53 -23,69 -16,16 -38,24 -67,24 -30,0 -53,-8 -69,-23 -15,-16 -23,-39 -23,-69 0,-2 0,-4 0,-6 0,-2 0,-6 1,-10z"/>
   <path class="fil2" d="M1533 385l249 0 0 46 -249 0 0 -46zm0 269l249 0 0 46 -249 0 0 -46zm0 -134l249 0 0 46 -249 0 0 -46z"/>
   <polygon class="fil5" points="525,849 1075,849 1075,1365 525,1365 "/>
   <path class="fil5" d="M1147 858l635 0 0 31 -635 0 0 -31zm0 477l367 0 0 31 -367 0 0 -31zm0 -68l635 0 0 31 -635 0 0 -31zm0 -68l635 0 0 31 -635 0 0 -31zm0 -68l635 0 0 31 -635 0 0 -31zm0 -68l635 0 0 31 -635 0 0 -31zm0 -68l635 0 0 31 -635 0 0 -31zm0 -68l635 0 0 31 -635 0 0 -31z"/>
   <path class="fil5" d="M525 1585l762 0 0 31 -762 0 0 -31zm0 477l440 0 0 31 -440 0 0 -31zm0 -68l762 0 0 31 -762 0 0 -31zm0 -68l762 0 0 31 -762 0 0 -31zm0 -68l762 0 0 31 -762 0 0 -31zm0 -68l762 0 0 31 -762 0 0 -31zm0 -68l762 0 0 31 -762 0 0 -31zm0 -68l762 0 0 31 -762 0 0 -31z"/>
   <polygon class="fil5" points="1348,1585 1782,1585 1782,2101 1348,2101 "/>
   <polygon class="fil3" points="525,1445 1782,1445 1782,1489 525,1489 "/>
   <g>
    <circle class="fil6" cx="2367" cy="661" r="443"/>
    <path class="fil7" d="M1984 647l92 0 0 29 -92 0 0 -29zm587 -310l-46 80 -25 -15 46 -80 25 15zm135 146l-80 46 -15 -25 80 -46 15 25zm44 193l-92 0 0 -29 92 0 0 29zm-59 190l-80 -46 15 -25 80 46 -15 25zm-146 135l-46 -80 25 -15 46 80 -25 15zm-193 44l0 -92 29 0 0 92 -29 0zm-190 -59l46 -80 25 15 -46 80 -25 -15zm-135 -146l80 -46 15 25 -80 46 -15 -25zm15 -383l80 46 -15 25 -80 -46 15 -25zm146 -135l46 80 -25 15 -46 -80 25 -15zm193 -44l0 92 -29 0 0 -92 29 0z"/>
    <path class="fil2" d="M2366 425l0 0c11,0 21,9 21,21l0 202 202 0c11,0 21,9 21,21l0 0c0,11 -9,21 -21,21l-223 0 0 -21 -21 0 0 -223c0,-11 9,-21 21,-21z"/>
    <circle class="fil3" cx="2367" cy="661" r="30"/>
   </g>
   <path class="fil8" d="M1782 51l0 263 -1257 0 0 -4c241,-194 547,-310 880,-310 130,0 257,18 377,51z"/>
  </g>
 </g>
</svg>
