<?xml version="1.0" encoding="UTF-8"?>
<!DOCTYPE svg PUBLIC "-//W3C//DTD SVG 1.1//EN" "http://www.w3.org/Graphics/SVG/1.1/DTD/svg11.dtd">
<!-- Creator: CorelDRAW X6 -->
<svg xmlns="http://www.w3.org/2000/svg" xml:space="preserve" width="202px" height="202px" version="1.1" style="shape-rendering:geometricPrecision; text-rendering:geometricPrecision; image-rendering:optimizeQuality; fill-rule:evenodd; clip-rule:evenodd"
viewBox="0 0 3894 3894"
 xmlns:xlink="http://www.w3.org/1999/xlink">
 <defs>
  <style type="text/css">
   <![CDATA[
    .fil6 {fill:#384A66}
    .fil9 {fill:#596366}
    .fil12 {fill:#75BF80}
    .fil8 {fill:#83CF8F}
    .fil5 {fill:#8597B1}
    .fil1 {fill:#E4E7ED}
    .fil0 {fill:#ECF0F1}
    .fil10 {fill:#F0BA7D}
    .fil3 {fill:#FED298}
    .fil11 {fill:#FFBC86}
    .fil7 {fill:#FFE356}
    .fil4 {fill:white}
    .fil2 {fill:#C6CBD6;fill-rule:nonzero}
   ]]>
  </style>
 </defs>
 <g id="Layer_x0020_1">
  <metadata id="CorelCorpID_0Corel-Layer"/>
  <g id="_196905104">
   <circle class="fil0" cx="1947" cy="1947" r="1947"/>
   <circle class="fil1" cx="1947" cy="1947" r="1947"/>
   <path class="fil2" d="M2021 1740c37,0 72,6 105,17 34,12 66,29 94,50l-16 21c-26,-20 -55,-35 -86,-46 -30,-10 -63,-16 -97,-16l0 -27zm7 614c-37,0 -72,-6 -105,-17 -34,-12 -66,-29 -94,-50l16 -21c26,20 55,35 86,46 30,10 63,16 97,16l0 27zm212 -11c-31,21 -65,37 -101,48 -35,11 -72,16 -111,16 -55,0 -107,-11 -154,-32 -49,-21 -92,-53 -128,-92l20 -18c33,36 74,65 119,85 44,19 92,30 143,30 36,0 70,-5 103,-15 34,-10 65,-25 94,-44l15 22zm-431 -592c31,-21 65,-37 101,-48 35,-11 72,-16 111,-16 55,0 107,11 154,32 49,21 92,53 128,92l-20 18c-33,-36 -74,-65 -119,-85 -44,-19 -92,-30 -143,-30 -36,0 -70,5 -103,15 -34,10 -65,25 -94,44l-15 -22z"/>
   <g>
    <path class="fil3" d="M1781 1872l145 72c0,0 125,-33 135,-30 9,3 4,2 8,3l0 0c33,14 141,66 141,66l-31 -2c13,16 30,37 40,43 17,10 -23,40 -56,18 -33,-21 -42,-48 -42,-48l-17 2 116 106 18 22c16,19 -4,47 -30,38 0,0 -1,0 -1,1 2,4 5,14 2,18 -10,16 -24,29 -54,6 7,6 12,19 7,26 -7,10 -15,15 -23,18 -9,3 -22,-6 -29,-11 7,6 11,19 6,27 -6,10 -25,24 -37,15l-38 -29c0,0 -93,-90 -121,-114 -29,-24 -68,-52 -68,-52l-206 -59 136 -137z"/>
    <polygon class="fil4" points="1837,1882 1896,1906 1787,2081 1728,2057 "/>
    <path class="fil5" d="M1050 909l178 669 632 304 -119 196 -678 -246 -328 -747c57,-268 132,-306 314,-176z"/>
    <path class="fil6" d="M1124 2696l-5 1013c-163,-77 -313,-175 -448,-292l-101 0 -30 -675 584 -46z"/>
    <path class="fil6" d="M1099 881c315,425 14,1218 81,1825 -53,211 -365,222 -731,104 0,0 105,-368 131,-692 23,-296 -20,-1001 25,-1159 42,-148 143,-242 213,-272l281 193z"/>
    <path class="fil7" d="M599 2591l247 0c69,0 95,70 95,118l0 88 -437 0 0 -88c0,-48 26,-118 95,-118zm74 75l100 0c48,0 87,27 87,61l0 61 -273 0 0 -61c0,-33 39,-61 87,-61z"/>
    <path class="fil8" d="M329 2771l787 0c32,0 58,26 58,58l0 530c0,32 -26,58 -58,58l-445 0 -101 0 -241 0c-32,0 -58,-26 -58,-58l0 -530c0,-32 26,-58 58,-58z"/>
    <path class="fil8" d="M268 2771l909 0c18,0 33,15 33,33l0 298c0,18 -15,33 -33,33l-909 0c-18,0 -33,-15 -33,-33l0 -298c0,-18 15,-33 33,-33z"/>
    <path class="fil3" d="M751 2359l18 129c0,0 69,55 71,59 2,4 14,45 14,45l-32 4 19 117c2,9 -22,32 -43,22 -5,-2 -12,-18 -17,-22 -13,41 -36,42 -65,16l-7 -6 -17 19c-10,12 -33,9 -44,-3l-12 -14c-26,33 -48,27 -66,-5l-6 -184 28 -48 2 -115 155 -14z"/>
    <polygon class="fil4" points="779,2406 776,2455 570,2443 573,2393 "/>
    <path class="fil5" d="M1014 1062l-14 108 -250 473 42 766 -223 -12 -121 -774 235 -715c110,-152 298,-75 331,154z"/>
    <path class="fil3" d="M1378 131l40 66 0 123c0,2 -32,43 -32,43l22 47 33 117 -69 -2 -6 48 -46 3 25 28 -28 35 -8 59c-6,22 -22,33 -49,30l-121 -49 -68 121 -195 -103 -37 -16 42 -138 -2 -294c0,0 82,-240 501,-116z"/>
    <path class="fil9" d="M1453 69c-387,-89 -502,-84 -562,-29 -10,9 -135,184 -81,356 24,77 32,105 69,145l42 -210c13,-64 80,-69 92,-16 12,53 -21,67 -21,67l58 3 27 -133 123 -28 52 -64 166 38 35 -128z"/>
    <polygon class="fil4" points="857,597 1098,748 1099,881 818,688 "/>
    <path class="fil10" d="M2379 1842l-151 102c-11,7 -53,-22 -88,-26 -25,-3 -55,7 -53,8l78 36c0,0 38,53 55,63 17,10 -23,40 -56,18 -33,-21 -42,-48 -42,-48l-69 7 -133 117c-18,16 -13,25 0,41 6,7 26,5 35,2 -20,15 9,55 37,33 -17,13 7,59 42,33 -17,23 18,40 33,36l11 -3 -3 -2c-1,0 -29,-29 -30,-32 -10,-20 16,-46 38,-27l19 15 -11 -14c-14,-19 -3,-38 10,-44 10,-4 20,0 29,9l21 17 -18 -21c0,0 -18,-20 -1,-37 16,-18 38,3 38,3l26 21 -22 -26c0,0 -19,-20 -6,-34 18,-19 40,0 57,18 5,5 10,13 14,17 19,-22 32,-45 32,-45l267 -101 -158 -136z"/>
    <polygon class="fil4" points="2305,1867 2244,1899 2354,2074 2414,2043 "/>
    <g>
     <path class="fil11" d="M3373 2407l-35 80c0,0 -69,55 -71,59 -2,4 -15,76 -15,76l21 32 -8 69c0,0 23,20 44,10 5,-2 12,-18 17,-22l14 26 36 3 21 -19 20 21 29 2 23 -20 28 18 26 -2 11 -21 6 -209 -27 -48 -4 -90 -138 35z"/>
     <polygon class="fil4" points="3327,2406 3330,2455 3537,2443 3534,2393 "/>
     <path class="fil5" d="M3092 1062l14 108 250 473 -42 766 223 -12 121 -774 -235 -715c-110,-152 -298,-75 -331,154z"/>
    </g>
    <path class="fil6" d="M2982 2696l5 896c222,-141 413,-325 562,-541l16 -316 -584 -40z"/>
    <path class="fil6" d="M3007 881c-297,532 0,1092 -81,1825 53,211 365,222 731,104 0,0 -105,-368 -131,-692 -23,-296 20,-1001 -25,-1159 -42,-148 -143,-242 -213,-272l-281 193z"/>
    <path class="fil3" d="M2729 131l-40 66 0 123c0,2 32,43 32,43l-22 47 -33 117 69 -2 6 49 46 3 -25 28 28 35 9 59c6,23 22,33 49,30l121 -49 68 121 195 -103 37 -16 -42 -138 2 -294c0,0 -82,-240 -501,-116z"/>
    <path class="fil5" d="M3057 909l-178 669 -595 291 119 189 641 -225 328 -747c-57,-268 -132,-306 -314,-176z"/>
    <path class="fil9" d="M2653 69c387,-89 502,-84 562,-29 10,9 135,184 81,356 -24,77 -32,105 -69,145l-42 -210c-13,-64 -80,-69 -92,-16 -12,53 21,67 21,67l-58 3 -27 -133 -123 -28 -52 -64 -166 38 -35 -128z"/>
    <polygon class="fil4" points="3250,597 3009,748 3007,881 3288,688 "/>
   </g>
   <polygon class="fil12" points="268,3135 1174,3135 1174,3159 268,3159 "/>
   <path class="fil7" d="M502 3099l91 0 0 55c0,25 -20,45 -45,45l0 0c-25,0 -45,-20 -45,-45l0 -55z"/>
   <path class="fil7" d="M865 3099l91 0 0 55c0,25 -20,45 -45,45l0 0c-25,0 -45,-20 -45,-45l0 -55z"/>
  </g>
 </g>
</svg>
