<?xml version="1.0" encoding="UTF-8"?>
<!DOCTYPE svg PUBLIC "-//W3C//DTD SVG 1.1//EN" "http://www.w3.org/Graphics/SVG/1.1/DTD/svg11.dtd">
<!-- Creator: CorelDRAW X6 -->
<svg xmlns="http://www.w3.org/2000/svg" xml:space="preserve" width="203px" height="202px" version="1.1" style="shape-rendering:geometricPrecision; text-rendering:geometricPrecision; image-rendering:optimizeQuality; fill-rule:evenodd; clip-rule:evenodd"
viewBox="0 0 7529 7495"
 xmlns:xlink="http://www.w3.org/1999/xlink">
 <defs>
  <style type="text/css">
   <![CDATA[
    .fil9 {fill:#384A66}
    .fil7 {fill:#5D718F}
    .fil1 {fill:#6B7F9E}
    .fil2 {fill:#83CF8F}
    .fil6 {fill:#C6CBD6}
    .fil0 {fill:#E4E7ED}
    .fil4 {fill:#FF7069}
    .fil5 {fill:#FFE356}
    .fil3 {fill:white}
    .fil8 {fill:#C6CBD6;fill-rule:nonzero}
   ]]>
  </style>
 </defs>
 <g id="Layer_x0020_1">
  <metadata id="CorelCorpID_0Corel-Layer"/>
  <g id="_192946336">
   <circle class="fil0" cx="3748" cy="3748" r="3748"/>
   <path class="fil1" d="M3635 1451c280,36 543,124 780,253l301 -323 378 274 -214 387c199,188 364,413 483,664l434 -84 144 444 -400 187c25,133 38,270 38,410 0,140 -13,277 -38,410l400 187 -144 444 -434 -84c-119,250 -284,475 -483,663l214 387 -378 274 -301 -323c-237,130 -501,217 -780,253l-54 439 -467 0 -54 -439c-280,-36 -543,-124 -780,-253l-301 323 -378 -274 214 -387c-199,-188 -364,-413 -483,-663l-434 84 -144 -444 400 -187c-25,-133 -38,-270 -38,-410 0,-140 13,-277 38,-410l-400 -187 144 -444 434 84c119,-250 284,-475 483,-663l-214 -387 378 -274 301 323c237,-130 501,-217 780,-253l54 -439 467 0 54 439zm-287 459c968,0 1753,785 1753,1753 0,968 -785,1753 -1753,1753 -968,0 -1753,-785 -1753,-1753 0,-968 785,-1753 1753,-1753z"/>
   <circle class="fil2" transform="matrix(1.7632E-014 -0.665748 0.665748 1.7632E-014 4872.67 2456.6)" r="2276"/>
   <circle class="fil3" transform="matrix(1.60987E-014 -0.607851 0.607851 1.60987E-014 4872.67 2456.6)" r="2276"/>
   <path class="fil1" d="M4873 1400l0 0c47,0 86,39 86,86l0 809c0,47 -39,86 -86,86l0 0c-47,0 -86,-39 -86,-86l0 -809c0,-47 39,-86 86,-86z"/>
   <path class="fil1" d="M5670 2460l0 0c-2,47 -42,86 -90,86l-532 -2c-47,0 -85,-39 -83,-86l0 0c2,-47 42,-86 89,-86l532 2c47,0 85,39 83,86z"/>
   <polygon class="fil4" points="4205,3270 4148,3218 4836,2461 4893,2513 "/>
   <circle class="fil4" cx="4873" cy="2457" r="191"/>
   <circle class="fil5" cx="4873" cy="2457" r="98"/>
   <polygon class="fil4" points="3556,2490 3556,2423 3725,2423 3725,2490 "/>
   <polygon class="fil4" points="4906,3773 4839,3773 4839,3604 4906,3604 "/>
   <polygon class="fil4" points="6189,2423 6189,2490 6020,2490 6020,2423 "/>
   <g>
    <polygon class="fil6" points="2510,4467 2702,4467 2702,4899 2510,4899 "/>
    <polygon class="fil6" points="2858,4149 3050,4149 3050,4899 2858,4899 "/>
    <polygon class="fil6" points="3206,3846 3398,3846 3398,4899 3206,4899 "/>
   </g>
   <path class="fil1" d="M6026 4966l0 0 7 -4 0 0 7 -4 0 0 7 -4 0 0c13,-6 25,-12 38,-17l-13 -227 207 -44 81 212c39,-1 77,1 114,5l101 -204 202 64 -34 225c37,20 72,42 106,68l190 -125 142 157 -143 177c8,13 16,26 23,40l1 2 1 2 1 2 1 2 1 2 1 2 1 2 1 2 1 2 1 2 1 2 1 2 1 2 1 2 1 2 1 2 1 2c5,10 10,21 14,31l227 -14 46 207 -212 83c1,42 -1,84 -6,126l203 102 -65 202 -225 -36c-18,33 -39,65 -62,96l126 189 -156 143 -178 -142c-5,3 -10,6 -14,9l0 0 0 0 -7 4 0 0 -7 4 0 0 -7 4 0 0c-25,14 -50,26 -75,36l13 227 -207 44 -81 -212c-39,1 -77,-1 -114,-5l-101 204 -202 -64 34 -225c-37,-20 -72,-42 -106,-68l-190 125 -142 -157 143 -177c-2,-4 -5,-8 -7,-12l-1 -2 -1 -2 -1 -2 -1 -2 -1 -2 -1 -2 -1 -2 -1 -2 -1 -2 -1 -2 -1 -2 -1 -2 -1 -2 -1 -2 -1 -2 -1 -2 -1 -2 -1 -2 -1 -2c-10,-18 -19,-37 -27,-56l-227 14 -46 -207 212 -83c-1,-42 0,-84 6,-126l-203 -102 65 -202 225 36c18,-33 39,-65 62,-96l-126 -189 156 -143 178 142c17,-10 34,-20 51,-29zm297 399c5,-1 10,-2 14,-3l1 0 6 -1 1 0 4 -1 5 -1 0 0c39,-4 78,0 116,12l2 0 1 0 6 2 1 0 0 0c35,12 67,31 95,55l1 1 4 3 3 3 1 1c5,5 10,10 15,16 15,17 28,35 39,54l0 0 3 6 0 0c12,23 22,49 28,76 1,5 2,10 3,14l0 1 1 6 0 1 1 4 1 5 0 0c4,39 0,78 -12,116l0 2 0 1 -2 6 0 1 0 0c-12,35 -31,67 -55,95l-1 1 -3 4 -3 3 -1 1c-5,5 -10,10 -16,15 -17,15 -35,28 -54,39l0 0 -6 3 0 0c-23,12 -49,22 -76,28 -5,1 -10,2 -14,3l-1 0 -6 1 -1 0 -4 1 -5 1 0 0c-39,4 -78,0 -116,-12l-2 0 -1 0 -6 -2 -1 0 0 0c-35,-12 -67,-31 -95,-55l-1 -1 -4 -3 -3 -3 -1 -1c-5,-5 -10,-10 -15,-16 -15,-17 -28,-35 -39,-54l0 0 -3 -6 0 0c-12,-23 -22,-49 -28,-76 -1,-5 -2,-10 -3,-14l0 -1 -1 -6 0 -1 -1 -4 0 -5 0 0c-4,-39 0,-78 12,-116l0 -2 0 -1 2 -6 0 -1 0 0c12,-35 31,-67 55,-95l1 -1 3 -4 3 -3 1 -1c5,-5 10,-10 16,-15 17,-15 35,-28 54,-39l0 0 6 -3 0 0c23,-12 49,-22 76,-28z"/>
   <path class="fil7" d="M6384 5210c243,0 440,197 440,440 0,243 -197,440 -440,440 -243,0 -440,-197 -440,-440 0,-243 197,-440 440,-440zm-61 155c5,-1 10,-2 14,-3l1 0 6 -1 1 0 4 -1 5 -1 0 0c39,-4 78,0 116,12l2 0 1 0 6 2 1 0 0 0c35,12 67,31 95,55l1 1 4 3 3 3 1 1c5,5 10,10 15,16 15,17 28,35 39,54l0 0 3 6 0 0c12,23 22,49 28,76 1,5 2,10 3,14l0 1 1 6 0 1 1 4 1 5 0 0c4,39 0,78 -12,116l0 2 0 1 -2 6 0 1 0 0c-12,35 -31,67 -55,95l-1 1 -3 4 -3 3 -1 1c-5,5 -10,10 -16,15 -17,15 -35,28 -54,39l0 0 -6 3 0 0c-23,12 -49,22 -76,28 -5,1 -10,2 -14,3l-1 0 -6 1 -1 0 -4 1 -5 1 0 0c-39,4 -78,0 -116,-12l-2 0 -1 0 -6 -2 -1 0 0 0c-35,-12 -67,-31 -95,-55l-1 -1 -4 -3 -3 -3 -1 -1c-5,-5 -10,-10 -15,-16 -15,-17 -28,-35 -39,-54l0 0 -3 -6 0 0c-12,-23 -22,-49 -28,-76 -1,-5 -2,-10 -3,-14l0 -1 -1 -6 0 -1 -1 -4 0 -5 0 0c-4,-39 0,-78 12,-116l0 -2 0 -1 2 -6 0 -1 0 0c12,-35 31,-67 55,-95l1 -1 3 -4 3 -3 1 -1c5,-5 10,-10 16,-15 17,-15 35,-28 54,-39l0 0 6 -3 0 0c23,-12 49,-22 76,-28z"/>
   <path class="fil8" d="M6659 4210c173,33 336,97 482,185l0 0c149,90 281,206 389,342l-67 54c-102,-128 -226,-237 -366,-322l0 0c-137,-83 -290,-143 -453,-174l16 -85zm515 585c-81,-75 -172,-138 -271,-188 -97,-49 -202,-84 -312,-104l15 -85c119,21 231,59 335,111 107,53 205,122 292,202l-59 63z"/>
   <polygon class="fil8" points="2907,2975 3289,2911 3259,3284 3182,3113 2510,3782 2288,3523 1776,4041 2297,3411 2511,3671 3090,3038 "/>
   <path class="fil8" d="M4219 6429c166,-1 327,-32 477,-89 153,-58 295,-143 419,-250l56 65c-131,114 -282,204 -445,266 -159,60 -331,93 -507,94l0 -86zm659 -323c-100,63 -209,113 -323,145 -112,32 -229,49 -350,48l0 -86c112,1 221,-15 326,-45 107,-31 208,-77 301,-135l46 73z"/>
   <path class="fil9" d="M4447 1211l37 -12 33 102 -37 12 -33 -102zm851 2492l-37 12 -33 -102 37 -12 33 102zm820 -1671l12 37 -102 33 -12 -37 102 -33zm-858 -832l37 12 -33 102 -37 -12 33 -102zm370 181l32 23 -63 87 -32 -23 63 -87zm296 287l23 32 -87 63 -23 -32 87 -63zm205 1178l-12 37 -102 -33 12 -37 102 33zm-181 370l-23 32 -87 -63 23 -32 87 63zm-287 296l-32 23 -63 -87 32 -23 63 87zm-1178 205l-37 -12 33 -102 37 12 -33 102zm-370 -181l-32 -23 63 -87 32 23 -63 87zm-296 -287l-23 -32 87 -63 23 32 -87 63zm-192 -364l-12 -37 102 -33 12 37 -102 33zm-12 -814l12 -37 102 33 -12 37 -102 -33zm181 -370l23 -32 87 63 -23 32 -87 -63zm287 -296l32 -23 63 87 -32 23 -63 -87z"/>
   <polygon class="fil4" points="4839,1140 4906,1140 4906,1309 4839,1309 "/>
  </g>
 </g>
</svg>
