<?xml version="1.0" encoding="UTF-8"?>
<!DOCTYPE svg PUBLIC "-//W3C//DTD SVG 1.1//EN" "http://www.w3.org/Graphics/SVG/1.1/DTD/svg11.dtd">
<!-- Creator: CorelDRAW X6 -->
<svg xmlns="http://www.w3.org/2000/svg" xml:space="preserve" width="202px" height="202px" version="1.1" style="shape-rendering:geometricPrecision; text-rendering:geometricPrecision; image-rendering:optimizeQuality; fill-rule:evenodd; clip-rule:evenodd"
viewBox="0 0 2810 2810"
 xmlns:xlink="http://www.w3.org/1999/xlink">
 <defs>
  <style type="text/css">
   <![CDATA[
    .fil13 {fill:#0F5F9B}
    .fil11 {fill:#596366}
    .fil15 {fill:#666666}
    .fil7 {fill:#6B7F9E}
    .fil14 {fill:#83CF8F}
    .fil4 {fill:#8597B1}
    .fil8 {fill:#AAB5BD}
    .fil2 {fill:#C9CACC}
    .fil12 {fill:#CCCCCC}
    .fil5 {fill:#D1D2D4}
    .fil9 {fill:#ECF0F1}
    .fil10 {fill:#F0BA7D}
    .fil6 {fill:#FED298}
    .fil3 {fill:#FF7069}
    .fil0 {fill:#FFE356}
    .fil1 {fill:white}
   ]]>
  </style>
 </defs>
 <g id="Layer_x0020_1">
  <metadata id="CorelCorpID_0Corel-Layer"/>
  <g id="_494693632">
   <circle class="fil0" cx="1405" cy="1405" r="1405"/>
   <polygon class="fil1" points="1327,280 2753,280 2753,1367 1327,1367 "/>
   <path class="fil2" d="M1547 1024c117,-46 275,-120 417,-336l-43 -31 129 -37 -1 130 -38 -28c-83,117 -206,266 -463,302z"/>
   <g>
    <path class="fil0" d="M2509 430l-128 126 136 118c27,-32 44,-73 44,-118 0,-49 -20,-93 -51,-126z"/>
    <path class="fil3" d="M2386 349l0 180 128 -126c-33,-33 -78,-54 -128,-54z"/>
    <path class="fil4" d="M2371 385c-99,0 -180,80 -180,180 0,99 80,180 180,180 54,0 103,-24 136,-62l-136 -118 0 -180z"/>
   </g>
   <path class="fil2" d="M2241 822l401 0 0 18 -401 0 0 -18zm0 120l231 0 0 18 -231 0 0 -18zm0 -40l401 0 0 18 -401 0 0 -18zm0 -40l401 0 0 18 -401 0 0 -18z"/>
   <path class="fil5" d="M2241 992l340 0 0 18 -340 0 0 -18zm0 120l163 0 0 18 -163 0 0 -18zm0 -40l288 0 0 18 -288 0 0 -18zm0 -40l401 0 0 18 -401 0 0 -18z"/>
   <path class="fil6" d="M1563 677c0,0 27,-56 54,-52 27,4 28,5 28,5l134 -15c15,-2 19,22 1,25l-87 12c0,0 15,6 14,15 -1,9 -8,24 -8,24 0,0 7,16 7,20 -1,4 -18,19 -18,19l7 16 -12 13c0,0 -57,10 -65,13 -8,3 -44,-9 -44,-9l-56 9 -3 -78 48 -17z"/>
   <path class="fil6" d="M269 1382c0,0 20,0 28,17l17 36c-5,24 -16,33 -16,33 8,7 8,15 1,32 -7,15 -26,11 -34,4 0,0 -12,12 -21,10 -9,-3 -14,-5 -14,-5 0,0 -15,6 -19,5 -4,-2 -15,-22 -15,-22l-17 4 -16 -15c0,0 8,-62 6,-71 -1,-9 13,-37 13,-37l4 -56 77 14 6 51z"/>
   <path class="fil7" d="M589 415l177 0 108 1002c-122,25 -244,26 -364,0l66 -934 12 -68z"/>
   <polygon class="fil1" points="589,415 766,415 818,896 548,896 577,483 "/>
   <path class="fil8" d="M589 415c59,0 118,0 177,0l1 9 -86 96 -93 -97 1 -8z"/>
   <path class="fil3" d="M657 524c14,0 28,0 42,0 2,7 3,15 5,22 19,85 26,195 44,280l-66 56 -66 -56c15,-72 27,-230 42,-302z"/>
   <path class="fil3" d="M637 518c10,-12 19,-23 29,-35l24 0c10,12 19,23 29,35 -5,11 -10,22 -14,33 -17,-1 -36,0 -53,0 -5,-11 -10,-22 -14,-33z"/>
   <polygon class="fil4" points="456,1307 476,2457 636,2457 693,1305 "/>
   <polygon class="fil7" points="556,2457 636,2457 693,1305 575,1306 "/>
   <polygon class="fil7" points="915,1307 895,2457 735,2457 678,1305 "/>
   <polygon class="fil4" points="815,2457 735,2457 678,1305 796,1306 "/>
   <path class="fil9" d="M568 628l110 190 110 -190 44 645c0,0 -92,79 -103,80 -11,2 -14,-7 -14,-7l-36 -79 -36 79c0,0 -4,8 -14,7 -11,-2 -103,-80 -103,-80l44 -645z"/>
   <path class="fil1" d="M579 435l11 -20 78 69 -57 68 -32 -117zm198 0l-11 -20 -78 69 57 68 32 -117z"/>
   <path class="fil7" d="M772 422l40 42 175 68c0,0 16,-5 22,6 5,11 227,167 227,167l282 -27 9 130 -321 55 -246 -100 -35 292 83 404c0,0 -153,69 -179,73 -27,3 -33,-17 -33,-17l-80 -502 56 -591zm-188 0l-40 42 -175 68c0,0 -13,-5 -19,6 -5,11 -166,453 -166,453l-42 343 139 4 29 -297 98 -206 22 220 -83 404c0,0 153,69 179,73 27,3 33,-17 33,-17l80 -502 -56 -591z"/>
   <polygon class="fil1" points="170,1333 271,1336 271,1359 169,1359 "/>
   <g>
    <polygon class="fil10" points="609,365 588,415 666,483 688,483 765,415 755,366 "/>
    <path class="fil6" d="M540 144c0,9 -3,18 -3,27 -31,-6 -16,88 2,100 1,1 5,-1 8,-3 6,34 59,126 92,165 9,11 66,11 75,0 34,-38 87,-131 93,-165 3,2 6,4 8,3 18,-13 33,-106 2,-100 0,-9 -3,-18 -3,-27 -2,-73 -67,-109 -137,-109 -69,0 -135,37 -137,109z"/>
    <path class="fil11" d="M582 51c-10,-1 -46,10 -50,48 -4,38 -2,73 -2,73 0,0 21,5 24,27 3,22 1,22 1,22l8 -2 5 -37c31,-20 0,-49 31,-56 85,60 160,50 193,22 0,0 -8,30 -2,40 6,11 2,27 2,27l8 0c0,0 -1,-44 16,-44 67,-110 -144,-246 -234,-120z"/>
   </g>
   <polygon class="fil1" points="1518,686 1549,679 1559,789 1526,794 "/>
   <g>
    <g>
     <path class="fil6" d="M383 1801c0,14 -4,92 -4,105 -42,-9 -13,130 10,149 2,1 6,-2 10,-5 6,38 39,88 78,135l-16 152 102 -7 102 7 -16 -152c39,-46 72,-97 78,-135 4,3 9,6 10,5 24,-19 52,-157 10,-149 0,-13 -4,-92 -4,-105 -2,-107 -89,-161 -181,-161 -92,0 -179,54 -181,161z"/>
     <g>
      <path class="fil12" d="M435 2301l-86 31c87,99 187,185 298,257l136 -255 -91 -32 -80 63 -96 0 -81 -64z"/>
      <path class="fil13" d="M535 2359l11 30 -9 121c18,14 37,28 56,41l-11 -162 11 -30 -29 -1 -29 1z"/>
      <path class="fil14" d="M437 2301l-88 31c165,187 378,331 621,410 -4,-86 -7,-250 -13,-290 -8,-44 -38,-69 -38,-69l-226 -80c-86,-46 -171,-50 -255,-1z"/>
      <path class="fil1" d="M478 2213c-31,16 -29,33 -29,33l-3 51c74,-41 162,-41 236,0l-4 -51c0,0 2,-15 -29,-33 -43,-26 -121,-27 -172,0z"/>
      <path class="fil15" d="M438 1671c-45,37 -101,83 -80,155l41 145c19,66 21,186 108,185l57 -1 57 1c87,1 90,-119 108,-185l41 -145c20,-72 -35,-118 -80,-155 -51,-42 -201,-42 -253,0z"/>
     </g>
    </g>
    <g>
     <path class="fil6" d="M1224 1801c0,14 -4,92 -4,105 -42,-9 -13,130 10,149 2,1 6,-2 10,-5 6,38 39,88 78,135l-16 152 102 -7 102 7 -16 -152c39,-46 72,-97 78,-135 4,3 9,6 10,5 24,-19 52,-157 10,-149 0,-13 -4,-92 -4,-105 -2,-107 -89,-161 -181,-161 -92,0 -179,54 -181,161z"/>
     <g>
      <polygon class="fil12" points="1276,2301 1147,2347 1347,2656 1453,2656 1624,2334 1533,2302 1453,2365 1357,2365 "/>
      <polygon class="fil13" points="1376,2359 1387,2390 1369,2656 1442,2656 1423,2390 1434,2359 1405,2358 "/>
      <path class="fil14" d="M1278 2301l-228 81c0,0 -31,25 -38,69 -6,35 -9,196 -12,300 128,39 264,59 405,59 141,0 277,-21 405,-59 -3,-104 -6,-265 -12,-300 -8,-44 -38,-69 -38,-69l-226 -80c-86,-46 -171,-50 -255,-1z"/>
      <path class="fil1" d="M1319 2213c-31,16 -29,33 -29,33l-4 51c74,-41 162,-41 236,0l-4 -51c0,0 2,-15 -29,-33 -43,-26 -121,-27 -172,0z"/>
      <path class="fil15" d="M1279 1671c-45,37 -101,83 -80,155l41 145c19,66 21,186 108,185l57 -1 57 1c87,1 90,-119 108,-185l41 -145c20,-72 -35,-118 -80,-155 -51,-42 -201,-42 -253,0z"/>
     </g>
    </g>
    <g>
     <path class="fil6" d="M2065 1801c0,14 -4,92 -4,105 -42,-9 -13,130 10,149 2,1 6,-2 10,-5 6,38 39,88 78,135l-16 152 102 -7 102 7 -16 -152c39,-46 72,-97 78,-135 4,3 9,6 10,5 24,-19 52,-157 10,-149 0,-13 -4,-92 -4,-105 -2,-107 -89,-161 -181,-161 -92,0 -179,54 -181,161z"/>
     <g>
      <path class="fil12" d="M2118 2301l-129 46 161 249c116,-73 221,-162 311,-264l-86 -31 -80 63 -96 0 -81 -64z"/>
      <path class="fil13" d="M2218 2359l11 30 -11 162c19,-13 37,-27 56,-41l-9 -121 11 -30 -29 -1 -29 1z"/>
      <path class="fil14" d="M2120 2301l-228 81c0,0 -31,25 -38,69 -6,33 -9,186 -12,290 242,-79 455,-222 619,-409l-86 -31c-86,-46 -171,-50 -255,-1z"/>
      <path class="fil1" d="M2161 2213c-31,16 -29,33 -29,33l-4 51c74,-41 162,-41 236,0l-3 -51c0,0 2,-15 -29,-33 -43,-26 -121,-27 -172,0z"/>
      <path class="fil15" d="M2120 1671c-45,37 -101,83 -80,155l41 145c19,66 21,186 108,185l57 -1 57 1c87,1 90,-119 108,-185l41 -145c20,-72 -35,-118 -80,-155 -51,-42 -201,-42 -253,0z"/>
     </g>
    </g>
   </g>
   <path class="fil11" d="M1270 269l1540 0 0 46 -1540 0 0 -46zm0 1064l1540 0 0 46 -1540 0 0 -46z"/>
   <polygon class="fil4" points="1587,1183 1638,1183 1638,1268 1587,1268 "/>
   <polygon class="fil14" points="1708,1097 1759,1097 1759,1268 1708,1268 "/>
   <polygon class="fil0" points="1828,1006 1880,1006 1880,1268 1828,1268 "/>
   <polygon class="fil3" points="1949,909 2000,909 2000,1268 1949,1268 "/>
  </g>
 </g>
</svg>
