<?xml version="1.0" encoding="UTF-8"?>
<!DOCTYPE svg PUBLIC "-//W3C//DTD SVG 1.1//EN" "http://www.w3.org/Graphics/SVG/1.1/DTD/svg11.dtd">
<!-- Creator: CorelDRAW X6 -->
<svg xmlns="http://www.w3.org/2000/svg" xml:space="preserve" width="202px" height="202px" version="1.1" style="shape-rendering:geometricPrecision; text-rendering:geometricPrecision; image-rendering:optimizeQuality; fill-rule:evenodd; clip-rule:evenodd"
viewBox="0 0 3894 3894"
 xmlns:xlink="http://www.w3.org/1999/xlink">
 <defs>
  <style type="text/css">
   <![CDATA[
    .fil4 {fill:#5D718F}
    .fil5 {fill:#6B7F9E}
    .fil6 {fill:#8597B1}
    .fil7 {fill:#E3E6E6}
    .fil0 {fill:#E4E7ED}
    .fil2 {fill:#FCD34E}
    .fil1 {fill:#FFE356}
    .fil3 {fill:white}
   ]]>
  </style>
 </defs>
 <g id="Layer_x0020_1">
  <metadata id="CorelCorpID_0Corel-Layer"/>
  <g id="_704800784">
   <circle class="fil0" cx="1947" cy="1947" r="1947"/>
   <g>
    <g>
     <path class="fil1" d="M2681 0c235,0 425,190 425,425 0,235 -190,425 -425,425 -235,0 -425,-190 -425,-425 0,-235 190,-425 425,-425z"/>
     <path class="fil2" d="M2681 116c171,0 309,138 309,309 0,171 -138,309 -309,309 -171,0 -309,-138 -309,-309 0,-171 138,-309 309,-309z"/>
    </g>
    <path class="fil3" d="M2790 300c0,0 -25,-35 -76,-42l0 -46 -53 0 0 48c-4,1 -7,2 -11,3 -93,28 -73,100 -72,111 1,11 21,41 63,62 43,21 91,38 95,58 4,20 -14,49 -51,46 -37,-4 -82,-38 -82,-38l-37 43c0,0 29,37 95,45l0 46 53 0 0 -46c68,-11 79,-63 79,-63 0,0 19,-58 -28,-92 -46,-33 -115,-43 -126,-76 -11,-33 26,-62 59,-51 33,11 60,34 60,34l32 -43z"/>
   </g>
   <g>
    <g>
     <path class="fil1" d="M916 452c163,0 295,132 295,295 0,163 -132,295 -295,295 -163,0 -295,-132 -295,-295 0,-163 132,-295 295,-295z"/>
     <path class="fil2" d="M916 533c119,0 215,96 215,215 0,119 -96,215 -215,215 -119,0 -215,-96 -215,-215 0,-119 96,-215 215,-215z"/>
    </g>
    <path class="fil3" d="M992 661c0,0 -18,-24 -53,-29l0 -32 -37 0 0 34c-3,1 -5,1 -8,2 -65,19 -51,69 -50,77 1,8 14,29 44,43 30,14 64,26 66,40 3,14 -10,34 -36,32 -26,-3 -57,-26 -57,-26l-25 30c0,0 20,26 66,31l0 32 37 0 0 -32c47,-7 55,-43 55,-43 0,0 13,-41 -19,-64 -32,-23 -80,-30 -88,-53 -8,-23 18,-43 41,-36 23,8 42,24 42,24l22 -30z"/>
   </g>
   <path class="fil4" d="M204 1421l2719 0c112,0 204,92 204,204l0 2066c0,112 -92,204 -204,204l-2719 0c-112,0 -204,-92 -204,-204l0 -2066c0,-112 92,-204 204,-204z"/>
   <path class="fil4" d="M175 1770l2958 0c96,0 175,79 175,175l0 1774c0,96 -79,175 -175,175l-2958 0c-96,0 -175,-79 -175,-175l0 -1774c0,-96 79,-175 175,-175z"/>
   <g>
    <g>
     <path class="fil1" d="M1874 897c388,0 702,314 702,702 0,388 -314,702 -702,702 -388,0 -702,-314 -702,-702 0,-388 314,-702 702,-702z"/>
     <path class="fil2" d="M1874 1089c282,0 511,229 511,511 0,282 -229,511 -511,511 -282,0 -511,-229 -511,-511 0,-282 229,-511 511,-511z"/>
    </g>
    <path class="fil3" d="M2054 1394c0,0 -42,-58 -125,-70l0 -76 -88 0 0 80c-6,1 -12,3 -19,5 -154,46 -120,165 -119,184 2,19 34,68 105,102 70,34 151,62 157,96 6,34 -23,82 -84,76 -61,-6 -136,-63 -136,-63l-61 72c0,0 48,61 157,75l0 76 88 0 0 -76c113,-18 130,-103 130,-103 0,0 31,-96 -46,-152 -76,-55 -190,-70 -209,-126 -19,-55 43,-102 97,-84 55,18 99,57 99,57l53 -72z"/>
   </g>
   <path class="fil5" d="M149 1770l2984 0c96,0 175,79 175,175l0 1694c0,96 -79,175 -175,175l-2958 0c-96,0 -175,-79 -175,-175l0 -2014c0,77 76,145 149,145z"/>
   <path class="fil4" d="M3307 2617l0 543 -409 0c-76,0 -139,-62 -139,-139l0 -265c0,-76 62,-139 139,-139l409 0z"/>
   <path class="fil6" d="M2898 2588l432 0c76,0 139,62 139,139l0 265c0,76 -62,139 -139,139l-432 0c-76,0 -139,-62 -139,-139l0 -265c0,-76 62,-139 139,-139z"/>
   <circle class="fil7" cx="3035" cy="2865" r="146"/>
   <circle class="fil3" cx="3030" cy="2859" r="136"/>
  </g>
 </g>
</svg>
