<?xml version="1.0" encoding="UTF-8"?>
<!DOCTYPE svg PUBLIC "-//W3C//DTD SVG 1.1//EN" "http://www.w3.org/Graphics/SVG/1.1/DTD/svg11.dtd">
<!-- Creator: CorelDRAW X6 -->
<svg xmlns="http://www.w3.org/2000/svg" xml:space="preserve" width="202px" height="202px" version="1.1" style="shape-rendering:geometricPrecision; text-rendering:geometricPrecision; image-rendering:optimizeQuality; fill-rule:evenodd; clip-rule:evenodd"
viewBox="0 0 4286 4286"
 xmlns:xlink="http://www.w3.org/1999/xlink">
 <defs>
  <style type="text/css">
   <![CDATA[
    .fil6 {fill:#596366}
    .fil3 {fill:#6B7F9E}
    .fil4 {fill:#8597B1}
    .fil2 {fill:#ECF0F1}
    .fil1 {fill:#F0BA7D}
    .fil9 {fill:#FCD34E}
    .fil5 {fill:#FED298}
    .fil0 {fill:#FF7069}
    .fil8 {fill:#FFE356}
    .fil7 {fill:white}
   ]]>
  </style>
 </defs>
 <g id="Layer_x0020_1">
  <metadata id="CorelCorpID_0Corel-Layer"/>
  <g id="_196894376">
   <circle class="fil0" cx="2143" cy="2143" r="2143"/>
   <g>
    <polygon class="fil1" points="1915,2191 2024,2191 2352,2191 2460,2191 2505,2651 2583,2714 2748,2819 2188,4143 1627,2819 1793,2714 1871,2651 "/>
    <polygon class="fil2" points="1736,2748 1284,2892 2188,4143 2957,2850 2638,2749 2357,2947 2020,2947 "/>
    <polygon class="fil0" points="2087,2929 2126,3024 2040,4110 2188,4223 2336,4110 2250,3024 2289,2929 2188,2925 "/>
    <path class="fil3" d="M1743 2745l-799 255c0,0 -104,57 -135,217 -23,122 -38,358 -53,559 374,318 858,510 1387,510 569,0 1087,-222 1471,-585 -14,-182 -27,-377 -48,-484 -31,-160 -135,-217 -135,-217l-794 -252 -450 1320 -445 -1323z"/>
    <path class="fil4" d="M1743 2745l-172 55 -33 437c0,0 9,36 36,33l156 58c0,0 10,10 1,23l-133 91 448 841c32,1 65,2 97,2 65,0 128,-3 191,-9l443 -835 -133 -91c-9,-13 1,-23 1,-23l156 -58c27,3 36,-33 36,-33l-33 -436 -167 -53 -450 1320 -445 -1323z"/>
    <g>
     <path class="fil5" d="M1522 1240c0,45 -16,89 -15,131 -153,-28 -79,426 7,489 7,5 24,-6 38,-15 30,167 286,614 450,802 45,52 322,51 367,2 167,-184 423,-636 453,-804 14,9 31,20 38,15 87,-63 161,-517 7,-489 1,-43 -15,-87 -15,-131 -8,-353 -329,-529 -665,-531 -337,2 -657,178 -665,531z"/>
     <path class="fil6" d="M1728 787c-48,-6 -223,48 -244,232 -21,185 -11,355 -11,355 0,0 102,26 115,131 13,105 4,105 4,105l37 -8 26 -180c153,-96 -1,-238 152,-271 413,294 777,244 942,105 0,0 -38,145 -9,196 30,52 12,133 12,133l38 -2c0,0 -7,-213 78,-212 324,-535 -702,-1199 -1141,-584z"/>
    </g>
    <g>
     <path class="fil7" d="M1867 2585c11,1 -133,164 -133,164l123 422 331 -247c-182,-89 -290,-205 -320,-340z"/>
     <path class="fil7" d="M2508 2585c-11,1 133,164 133,164l-123 422 -331 -247c182,-89 290,-205 320,-340z"/>
    </g>
   </g>
   <g>
    <circle class="fil7" cx="3594" cy="3594" r="692"/>
    <circle class="fil8" cx="3594" cy="3594" r="606"/>
    <polygon class="fil9" points="3597,3159 3701,3483 4041,3482 3766,3681 3871,4005 3597,3804 3322,4005 3428,3681 3152,3482 3492,3483 "/>
    <polygon class="fil7" points="3594,3152 3699,3475 4039,3475 3763,3674 3869,3997 3594,3797 3320,3997 3425,3674 3150,3475 3490,3475 "/>
   </g>
  </g>
 </g>
</svg>
