<?xml version="1.0" encoding="UTF-8"?>
<!DOCTYPE svg PUBLIC "-//W3C//DTD SVG 1.1//EN" "http://www.w3.org/Graphics/SVG/1.1/DTD/svg11.dtd">
<!-- Creator: CorelDRAW X6 -->
<svg xmlns="http://www.w3.org/2000/svg" xml:space="preserve" width="202px" height="202px" version="1.1" style="shape-rendering:geometricPrecision; text-rendering:geometricPrecision; image-rendering:optimizeQuality; fill-rule:evenodd; clip-rule:evenodd"
viewBox="0 0 3894 3894"
 xmlns:xlink="http://www.w3.org/1999/xlink">
 <defs>
  <style type="text/css">
   <![CDATA[
    .fil2 {fill:#FEFEFE}
    .fil3 {fill:#596366}
    .fil4 {fill:#83CF8F}
    .fil1 {fill:#FF7069}
    .fil0 {fill:#FFE356}
    .fil7 {fill:#FEFEFE;fill-rule:nonzero}
    .fil6 {fill:#384A66;fill-rule:nonzero}
    .fil5 {fill:#6B7F9E;fill-rule:nonzero}
   ]]>
  </style>
 </defs>
 <g id="Layer_x0020_1">
  <metadata id="CorelCorpID_0Corel-Layer"/>
  <g id="_357007200">
   <circle class="fil0" cx="1947" cy="1947" r="1947"/>
   <path class="fil1" d="M2340 1367c446,676 491,1484 101,1806 -390,321 -1067,34 -1513,-642 -446,-676 -491,-1484 -101,-1806 390,-321 1067,-34 1513,642z"/>
   <path class="fil2" d="M2277 1400c365,571 403,1251 83,1519 -319,268 -875,23 -1240,-547 -365,-571 -403,-1251 -83,-1519 319,-268 875,-23 1240,547zm-140 174c182,284 200,622 41,755 -159,133 -435,12 -616,-272 -182,-284 -200,-622 -41,-755 159,-133 435,-12 616,272zm-32 53c134,210 148,460 31,559 -118,99 -322,9 -456,-201 -134,-210 -148,-460 -31,-559 118,-99 322,-9 456,201zm99 -149c263,411 290,900 60,1094 -230,193 -630,17 -893,-394 -263,-411 -290,-900 -60,-1094 230,-193 630,-17 893,394z"/>
   <path class="fil2" d="M1998 1726c57,90 63,197 13,239 -50,42 -137,4 -195,-86 -57,-90 -63,-197 -13,-239 50,-42 137,-4 195,86z"/>
   <g>
    <path class="fil3" d="M2111 1625l1613 -939c26,-15 60,-6 76,20l0 0c15,26 6,60 -20,76l-1613 939c-26,15 -60,6 -76,-20l0 0c-15,-26 -6,-60 20,-76z"/>
    <path class="fil4" d="M3121 1166l670 -390 103 176 -530 309 -243 -95zm-56 -96l670 -390 -103 -176 -530 309 -38 258z"/>
    <polygon class="fil3" points="1928,1796 2077,1478 2278,1823 "/>
   </g>
   <path class="fil5" d="M1375 3026l-185 798c-11,48 -59,78 -107,67 -48,-11 -78,-59 -67,-107l207 -893c50,49 101,94 152,135zm448 242l96 344c13,48 -15,97 -62,110 -48,13 -97,-15 -110,-62l-133 -478c70,37 140,65 210,86z"/>
   <path class="fil6" d="M1375 3026l-26 112c-52,-41 -103,-85 -153,-133l26 -113c50,49 101,94 152,135zm488 384c-68,-19 -138,-45 -207,-78l-42 -150c70,37 140,65 210,86l40 142z"/>
   <path class="fil7" d="M2560 1110c-9,5 -21,2 -26,-7 -5,-9 -2,-21 7,-26l337 -194c9,-5 21,-2 26,7 5,9 2,21 -7,26l-337 194zm-49 160c-9,5 -21,2 -26,-7 -5,-9 -2,-21 7,-26l337 -194c9,-5 21,-2 26,7 5,9 2,21 -7,26l-337 194z"/>
   <path class="fil7" d="M3061 1513c9,-5 21,-2 26,7 5,9 2,21 -7,26l-337 194c-9,5 -21,2 -26,-7 -5,-9 -2,-21 7,-26l337 -194zm49 -160c9,-5 21,-2 26,7 5,9 2,21 -7,26l-337 194c-9,5 -21,2 -26,-7 -5,-9 -2,-21 7,-26l337 -194z"/>
  </g>
 </g>
</svg>
