<?xml version="1.0" encoding="UTF-8"?>
<!DOCTYPE svg PUBLIC "-//W3C//DTD SVG 1.1//EN" "http://www.w3.org/Graphics/SVG/1.1/DTD/svg11.dtd">
<!-- Creator: CorelDRAW X6 -->
<svg xmlns="http://www.w3.org/2000/svg" xml:space="preserve" width="202px" height="202px" version="1.1" style="shape-rendering:geometricPrecision; text-rendering:geometricPrecision; image-rendering:optimizeQuality; fill-rule:evenodd; clip-rule:evenodd"
viewBox="0 0 85019 85019"
 xmlns:xlink="http://www.w3.org/1999/xlink">
 <defs>
  <style type="text/css">
   <![CDATA[
    .fil7 {fill:#596366}
    .fil1 {fill:#5D718F}
    .fil9 {fill:#6B7F9E}
    .fil5 {fill:#8597B1}
    .fil0 {fill:#E4E7ED}
    .fil2 {fill:#F0BA7D}
    .fil3 {fill:#F2F2F2}
    .fil6 {fill:#FED298}
    .fil4 {fill:#FF7069}
    .fil8 {fill:white}
   ]]>
  </style>
 </defs>
 <g id="Layer_x0020_1">
  <metadata id="CorelCorpID_0Corel-Layer"/>
  <g id="_704798768">
   <circle class="fil0" cx="42509" cy="42509" r="42509"/>
   <g>
    <g>
     <path class="fil1" d="M10693 44478l-2971 860 -6122 1452c0,0 -747,-522 -1202,876 -15,48 -34,139 -54,267 957,7519 3881,14422 8236,20184 5580,6986 13096,12292 21710,15059 -525,-8244 -2212,-34333 -2595,-35510 -455,-1398 -1202,-876 -1202,-876l-6122 -1452 -2971 -860 -3352 149 -3353 -149z"/>
     <polygon class="fil2" points="11255,38958 12363,38958 15727,38958 16836,38958 17288,43772 18091,44431 19785,45535 14045,59408 8306,45535 10000,44431 10803,43773 "/>
     <polygon class="fil3" points="9413,44788 8312,45147 14045,61115 19829,45179 18654,44798 15776,46878 12325,46878 "/>
     <polygon class="fil4" points="13012,46687 13408,47685 12529,59062 14045,60249 15562,59062 14683,47685 15078,46687 14045,46645 "/>
     <path class="fil5" d="M9492 44762l-1765 577 -340 4582c0,0 93,377 374,343l1593 612c0,0 104,107 11,242l-1363 955 5928 11209 6158 -11209 -1363 -955c-93,-135 11,-242 11,-242l1593 -612c280,34 374,-343 374,-343l-338 -4567 -1711 -555 -4609 16317 -4553 -16353z"/>
     <g>
      <path class="fil6" d="M7545 29170c0,447 -160,886 -148,1315 -1496,-284 -773,4262 73,4887 67,49 232,-62 372,-152 294,1672 2799,6140 4392,8020 442,523 3148,514 3586,20 1631,-1837 4133,-6358 4429,-8040 140,90 305,201 372,152 847,-625 1569,-5171 74,-4887 12,-429 -148,-867 -148,-1315 -83,-3530 -3209,-5292 -6501,-5307 -3292,15 -6418,1777 -6501,5307z"/>
      <path class="fil7" d="M9549 24645c-471,-56 -2175,478 -2380,2322 -204,1845 -107,3545 -107,3545 0,0 999,258 1124,1304 125,1047 36,1047 36,1047l361 -83 257 -1796c1493,-957 -11,-2376 1482,-2708 4034,2942 7594,2439 9199,1055 0,0 -375,1448 -86,1964 289,516 117,1329 117,1329l375 -18c0,0 -68,-2132 766,-2122 3164,-5347 -6855,-11989 -11144,-5840z"/>
     </g>
     <g>
      <path class="fil8" d="M10764 43085c117,8 -1366,1720 -1366,1720l1262 4424 3385 -2584c-1862,-935 -2973,-2146 -3282,-3560z"/>
      <path class="fil8" d="M17327 43085c-117,8 1366,1720 1366,1720l-1262 4424 -3385 -2584c1862,-935 2974,-2146 3282,-3560z"/>
     </g>
    </g>
    <g>
     <path class="fil1" d="M67621 44478l-2971 860 -6122 1452c0,0 -747,-522 -1202,876 -383,1177 -2070,27266 -2595,35510 8614,-2766 16128,-8072 21709,-15058 4356,-5761 7278,-12666 8237,-20185 -20,-129 -38,-219 -54,-267 -455,-1398 -1202,-876 -1202,-876l-6122 -1452 -2971 -860 -3352 149 -3353 -149z"/>
     <polygon class="fil2" points="68183,38958 69292,38958 72655,38958 73764,38958 74216,43772 75020,44431 76713,45535 70974,59408 65234,45535 66928,44431 67731,43773 "/>
     <polygon class="fil3" points="66341,44788 65241,45147 70974,61115 76758,45179 75582,44798 72704,46878 69253,46878 "/>
     <polygon class="fil4" points="69941,46687 70336,47685 69457,59062 70974,60249 72490,59062 71611,47685 72007,46687 70974,46645 "/>
     <path class="fil5" d="M66420 44762l-1765 577 -340 4582c0,0 93,377 374,343l1593 612c0,0 104,107 11,242l-1363 955 6043 11248 6043 -11248 -1363 -955c-93,-135 11,-242 11,-242l1593 -612c280,34 374,-343 374,-343l-339 -4567 -1710 -555 -4609 16317 -4553 -16353z"/>
     <g>
      <path class="fil6" d="M64473 29170c0,447 -160,886 -148,1315 -1496,-284 -773,4262 73,4887 67,49 232,-62 372,-152 294,1672 2799,6140 4392,8020 442,523 3147,514 3586,20 1631,-1837 4133,-6358 4429,-8040 140,90 305,201 372,152 847,-625 1568,-5171 74,-4887 12,-429 -148,-867 -148,-1315 -83,-3530 -3209,-5292 -6501,-5307 -3292,15 -6418,1777 -6501,5307z"/>
      <path class="fil7" d="M66478 24645c-471,-56 -2175,478 -2380,2322 -204,1845 -107,3545 -107,3545 0,0 999,258 1124,1304 125,1047 36,1047 36,1047l361 -83 257 -1796c1493,-957 -11,-2376 1482,-2708 4034,2942 7594,2439 9199,1055 0,0 -375,1448 -86,1964 289,516 117,1329 117,1329l375 -18c0,0 -68,-2132 765,-2122 3165,-5347 -6854,-11989 -11144,-5840z"/>
     </g>
     <g>
      <path class="fil8" d="M67692 43085c117,8 -1366,1720 -1366,1720l1263 4424 3385 -2584c-1862,-935 -2973,-2146 -3282,-3560z"/>
      <path class="fil8" d="M74256 43085c-117,8 1366,1720 1366,1720l-1262 4424 -3385 -2584c1862,-935 2974,-2146 3282,-3560z"/>
     </g>
    </g>
   </g>
   <g>
    <path class="fil9" d="M36197 54529l-5593 1620 -11526 2734c0,0 -1407,-984 -2265,1649 -387,1188 -1478,7337 -2560,13732 7511,6688 17408,10755 28256,10755 10849,0 20746,-4066 28257,-10755 -1082,-6395 -2173,-12544 -2560,-13732 -858,-2633 -2265,-1649 -2265,-1649l-11526 -2734 -5593 -1620 -6313 282 -6312 -282z"/>
    <polygon class="fil2" points="37255,44138 39343,44138 45676,44138 47763,44138 48615,53201 50127,54442 53316,56519 42509,82638 31703,56519 34892,54442 36405,53201 "/>
    <polygon class="fil3" points="33788,55113 31716,55790 42509,82638 53399,55850 51186,55132 45768,59047 39271,59047 "/>
    <polygon class="fil4" points="40565,58688 41309,60568 39655,81987 42510,84223 45365,81987 43710,60568 44455,58688 42510,58609 "/>
    <path class="fil5" d="M33937 55064l-3323 1085 -638 8628c0,0 176,709 703,646l2999 1153c0,0 196,202 21,455l-2567 1799 7316 15995c1309,124 2636,190 3976,193l-8487 -29954zm12633 29761l7316 -15994 -2567 -1799c-175,-254 21,-455 21,-455l2999 -1153c527,64 703,-646 703,-646l-636 -8599 -3220 -1045 -8591 29885c1341,-3 2666,-69 3975,-193z"/>
    <g>
     <path class="fil6" d="M30271 25708c0,842 -301,1667 -278,2475 -2816,-535 -1456,8024 137,9201 126,93 438,-115 700,-287 553,3148 5269,11560 8268,15101 833,983 5926,967 6751,37 3072,-3460 7783,-11972 8338,-15138 263,172 574,380 701,287 1593,-1177 2953,-9736 137,-9201 22,-808 -278,-1632 -278,-2475 -156,-6647 -6041,-9964 -12239,-9993 -6197,28 -12082,3346 -12238,9993z"/>
     <path class="fil7" d="M34045 17188c-888,-106 -4097,900 -4481,4373 -385,3473 -201,6673 -201,6673 0,0 1880,486 2116,2457 236,1971 68,1971 68,1971l681 -157 485 -3380c2812,-1803 -21,-4473 2791,-5098 7595,5539 14296,4591 17318,1985 0,0 -705,2726 -162,3697 544,972 219,2503 219,2503l706 -35c0,0 -128,-4014 1440,-3996 5959,-10067 -12905,-22571 -20980,-10995z"/>
    </g>
    <g>
     <path class="fil8" d="M36331 51907c220,16 -2572,3239 -2572,3239l2378 8329 6373 -4866c-3506,-1760 -5597,-4040 -6178,-6702z"/>
     <path class="fil8" d="M48689 51907c-220,16 2571,3239 2571,3239l-2377 8329 -6373 -4866c3506,-1760 5598,-4040 6179,-6702z"/>
    </g>
   </g>
  </g>
 </g>
</svg>
