<?xml version="1.0" encoding="UTF-8"?>
<!DOCTYPE svg PUBLIC "-//W3C//DTD SVG 1.1//EN" "http://www.w3.org/Graphics/SVG/1.1/DTD/svg11.dtd">
<!-- Creator: CorelDRAW X6 -->
<svg xmlns="http://www.w3.org/2000/svg" xml:space="preserve" width="202px" height="202px" version="1.1" style="shape-rendering:geometricPrecision; text-rendering:geometricPrecision; image-rendering:optimizeQuality; fill-rule:evenodd; clip-rule:evenodd"
viewBox="0 0 85014 85014"
 xmlns:xlink="http://www.w3.org/1999/xlink">
 <defs>
  <style type="text/css">
   <![CDATA[
    .fil5 {fill:#5D718F}
    .fil6 {fill:#6B7F9E}
    .fil0 {fill:#83CF8F}
    .fil3 {fill:#E4E7ED}
    .fil2 {fill:#FFE356}
    .fil1 {fill:white}
    .fil4 {fill:#FF7069;fill-rule:nonzero}
   ]]>
  </style>
 </defs>
 <g id="Layer_x0020_1">
  <metadata id="CorelCorpID_0Corel-Layer"/>
  <g id="_495516912">
   <circle class="fil0" cx="42507" cy="42507" r="42507"/>
   <path class="fil1" d="M43460 17642c-3429,22963 11211,17183 11934,22725l0 7003c-723,5541 -15363,-238 -11934,22725l14507 0 14507 0c3430,-22963 -11211,-17183 -11934,-22725l0 -7003c723,-5541 15363,239 11934,-22725l-14507 0 -14507 0z"/>
   <path class="fil2" d="M45501 25044c-431,4200 116,6500 3330,9016 2448,1916 6067,2024 8135,4422 667,495 1334,472 2001,0 2068,-2398 5687,-2506 8135,-4422 3215,-2516 3761,-4816 3330,-9016l-24931 0zm12509 14564c572,0 1036,464 1036,1036 0,572 -464,1036 -1036,1036 -572,0 -1036,-464 -1036,-1036 0,-572 464,-1036 1036,-1036zm0 9043c572,0 1036,464 1036,1036 0,572 -464,1036 -1036,1036 -572,0 -1036,-464 -1036,-1036 0,-573 464,-1036 1036,-1036zm0 -3015c572,0 1036,464 1036,1036 0,573 -464,1036 -1036,1036 -572,0 -1036,-464 -1036,-1036 0,-572 464,-1036 1036,-1036zm0 -3014c572,0 1036,464 1036,1036 0,572 -464,1036 -1036,1036 -572,0 -1036,-464 -1036,-1036 0,-572 464,-1036 1036,-1036zm-12021 24597l23954 0c-2641,-20749 -21348,-20973 -23954,0z"/>
   <g>
    <path class="fil3" d="M39269 40922c406,124 795,286 1164,483l1549 -1076 2279 2280 -1076 1549c196,368 358,758 482,1164l1856 335 0 3224 -1856 335c-124,406 -286,795 -483,1164l1076 1549 -2279 2279 -1549 -1076c-369,196 -758,358 -1164,483l-335 1856 -3224 0 -334 -1856c-406,-124 -795,-286 -1164,-483l-1549 1076 -2280 -2280 1076 -1549c-196,-368 -358,-758 -483,-1164l-1856 -335 0 -3224 1856 -335c124,-406 287,-795 483,-1164l-1076 -1549 2280 -2279 1549 1076c368,-196 758,-358 1164,-483l335 -1856 3224 0 335 1856zm-1947 2902c1901,0 3443,1541 3443,3443 0,1901 -1541,3443 -3443,3443 -1901,0 -3443,-1541 -3443,-3443 0,-1901 1541,-3443 3443,-3443z"/>
    <g>
     <path class="fil3" d="M23047 19849c465,93 920,215 1361,364l2039 -2735 3073 1774 -1351 3137c352,310 685,642 995,995l3137 -1351 1775 3073 -2735 2039c149,442 271,896 364,1361l3390 399 0 3548 -3389 399c-93,465 -215,919 -364,1361l2735 2039 -1774 3073 -3137 -1351c-310,352 -643,684 -995,995l1351 3137 -3073 1774 -2040 -2736c-442,149 -896,272 -1361,364l-399 3390 -3548 0 -399 -3389c-465,-93 -919,-215 -1361,-364l-2039 2735 -3073 -1774 1351 -3138c-352,-310 -685,-642 -995,-995l-3137 1351 -1774 -3073 2735 -2040c-149,-442 -271,-896 -364,-1361l-3390 -399 0 -3548 3389 -399c93,-465 215,-920 364,-1361l-2735 -2039 1774 -3073 3138 1351c310,-352 642,-684 995,-995l-1351 -3137 3073 -1775 2040 2736c441,-149 896,-271 1361,-364l399 -3390 3548 0 399 3390zm-2173 3510c4043,0 7321,3278 7321,7321 0,4043 -3278,7321 -7321,7321 -4043,0 -7321,-3278 -7321,-7321 0,-4043 3278,-7321 7321,-7321z"/>
     <circle class="fil1" cx="20874" cy="30680" r="8977"/>
     <path class="fil4" d="M13119 30382l1860 0 0 595 -1861 0 0 -596zm15511 595l-1860 0 0 -595 1860 0 0 595zm-8053 7458l0 -1860 595 0 0 1860 -595 0zm595 -15511l0 1860 -595 0 0 -1860 595 0z"/>
     <path class="fil5" d="M20867 25887l0 0c231,0 421,189 421,421l0 4087 4087 0c232,0 421,189 421,421l0 0c0,232 -189,421 -421,421l-4508 0 0 -421 -421 0 0 -4508c0,-232 189,-421 421,-421z"/>
     <circle class="fil2" cx="20875" cy="30680" r="819"/>
    </g>
   </g>
   <path class="fil6" d="M35293 15714l45348 0 0 1928 -3521 0 0 52452 3521 0 0 1928 -45348 0 0 -1928 3521 0 0 -52452 -3521 0 0 -1928zm40111 1928l-34874 0 0 52452 34874 0 0 -52452z"/>
   <path class="fil3" d="M43460 17642l29013 0c75,499 138,979 195,1451l-29403 0c58,-472 121,-952 195,-1451z"/>
  </g>
 </g>
</svg>
