<?xml version="1.0" encoding="UTF-8"?>
<!DOCTYPE svg PUBLIC "-//W3C//DTD SVG 1.1//EN" "http://www.w3.org/Graphics/SVG/1.1/DTD/svg11.dtd">
<!-- Creator: CorelDRAW X6 -->
<svg xmlns="http://www.w3.org/2000/svg" xml:space="preserve" width="202px" height="202px" version="1.1" style="shape-rendering:geometricPrecision; text-rendering:geometricPrecision; image-rendering:optimizeQuality; fill-rule:evenodd; clip-rule:evenodd"
viewBox="0 0 85018 85019"
 xmlns:xlink="http://www.w3.org/1999/xlink">
 <defs>
  <style type="text/css">
   <![CDATA[
    .fil10 {fill:#333333}
    .fil9 {fill:#377BBA}
    .fil6 {fill:#596366}
    .fil2 {fill:#6B7F9E}
    .fil4 {fill:#8597B1}
    .fil11 {fill:#E4E7ED}
    .fil8 {fill:#ECF0F1}
    .fil1 {fill:#F0BA7D}
    .fil3 {fill:#F2F2F2}
    .fil5 {fill:#FED298}
    .fil0 {fill:#FF7069}
    .fil7 {fill:white}
   ]]>
  </style>
 </defs>
 <g id="Layer_x0020_1">
  <metadata id="CorelCorpID_0Corel-Layer"/>
  <g id="_192941512">
   <circle class="fil0" cx="42509" cy="42509" r="42509"/>
   <g>
    <polygon class="fil1" points="38543,32489 40119,32489 44899,32489 46475,32489 47117,39174 48258,40090 50665,41622 42509,60887 34353,41622 36760,40090 37901,39175 "/>
    <path class="fil2" d="M36039 40548l-11628 3711c0,0 -1131,589 -1728,2298 -3464,3711 -14558,15839 -14558,18918 0,3649 9470,12437 9470,12437l4495 0 0 3150 20420 0 20420 0 0 -3150 4495 0c0,0 9469,-8788 9469,-12437 0,-3080 -11096,-15209 -14559,-18919 -597,-1708 -1727,-2297 -1727,-2297l-11549 -3661 -980 2874 -5569 -270 -5489 266 -981 -2921zm-13950 21261l1441 5749 -255 6073 -1186 -1358 -4139 -5911 4139 -4553zm40839 10465l-1186 1284 -256 -7055 1441 -4695 4139 4553 -4139 5912z"/>
    <polygon class="fil3" points="35926,40584 34362,41084 42509,60887 50728,41128 49058,40599 44968,43486 40065,43486 "/>
    <polygon class="fil0" points="41041,43222 41603,44608 40354,60407 42509,62056 44664,60407 43415,44608 43977,43222 42509,43163 "/>
    <path class="fil4" d="M36039 40548l-2508 801 -482 6364c0,0 133,523 531,476l2263 851c0,0 148,149 15,336l-1937 1327 6693 12614c627,36 1258,55 1894,55 635,0 1267,-18 1893,-55l6693 -12614 -1937 -1327c-133,-187 15,-336 15,-336l2264 -851c398,47 531,-476 531,-476l-480 -6343 -2431 -770 -6549 19206 -6470 -19257z"/>
    <g>
     <path class="fil5" d="M33272 18896c0,621 -227,1229 -210,1825 -2126,-395 -1099,5919 103,6786 95,69 331,-85 529,-211 417,2322 3977,8527 6241,11138 629,725 4472,713 5095,28 2318,-2552 5874,-8830 6293,-11166 199,127 433,280 529,211 1203,-867 2229,-7181 104,-6786 17,-596 -210,-1204 -210,-1825 -118,-4902 -4560,-7350 -9237,-7370 -4678,21 -9120,2468 -9237,7370z"/>
     <path class="fil6" d="M36120 12611c-670,-78 -3091,664 -3382,3225 -291,2562 -152,4922 -152,4922 0,0 1419,358 1597,1812 178,1454 51,1454 51,1454l514 -115 366 -2492c2122,-1330 -16,-3300 2107,-3761 5732,4086 10790,3387 13071,1464 0,0 -533,2010 -122,2727 410,717 165,1846 165,1846l533 -25c0,0 -96,-2961 1087,-2947 4497,-7425 -9740,-16649 -15836,-8110z"/>
    </g>
    <g>
     <path class="fil7" d="M37846 38220c167,11 -1941,2389 -1941,2389l1795 6144 4810 -3590c-2646,-1298 -4225,-2980 -4663,-4943z"/>
     <path class="fil7" d="M47172 38220c-166,11 1941,2389 1941,2389l-1795 6144 -4810 -3590c2646,-1298 4225,-2980 4663,-4943z"/>
    </g>
    <g>
     <g>
      <path class="fil8" d="M21674 74367c2712,0 4910,1365 4910,3048 0,1683 -2199,3048 -4910,3048 -2712,0 -4910,-1365 -4910,-3048 0,-1683 2198,-3048 4910,-3048zm0 805c2111,0 3821,1005 3821,2243 0,1238 -1711,2243 -3821,2243 -2111,0 -3821,-1005 -3821,-2243 0,-1238 1711,-2243 3821,-2243z"/>
      <ellipse class="fil9" cx="21674" cy="77415" rx="3821" ry="2243"/>
      <path class="fil5" d="M20119 78696l0 2456c0,305 -249,554 -554,554l-976 0c-305,0 -554,-249 -554,-554l0 -3801c0,-58 9,-114 26,-167l0 -837c0,-711 582,-1293 1293,-1293l7995 0c711,0 1293,582 1293,1293l0 836c17,53 26,109 26,168l0 3801c0,305 -249,554 -554,554l-976 0c-305,0 -554,-249 -554,-554l0 -2456 -766 0 0 2456c0,305 -249,554 -554,554l-977 0c-305,0 -554,-249 -554,-554l0 -2456 -766 0 0 2456c0,305 -249,554 -554,554l-977 0c-305,0 -554,-249 -554,-554l0 -2456 -766 0z"/>
     </g>
     <g>
      <path class="fil8" d="M63345 74367c-2712,0 -4910,1365 -4910,3048 0,1683 2198,3048 4910,3048 2712,0 4910,-1365 4910,-3048 0,-1683 -2199,-3048 -4910,-3048zm0 805c-2111,0 -3821,1005 -3821,2243 0,1238 1711,2243 3821,2243 2111,0 3821,-1005 3821,-2243 0,-1238 -1711,-2243 -3821,-2243z"/>
      <ellipse class="fil10" cx="63345" cy="77415" rx="3821" ry="2243"/>
      <path class="fil5" d="M64900 78696l0 2456c0,305 249,554 554,554l977 0c305,0 554,-249 554,-554l0 -3801c0,-58 -9,-114 -26,-167l0 -837c0,-711 -582,-1293 -1293,-1293l-7995 0c-711,0 -1293,582 -1293,1293l0 836c-17,53 -26,109 -26,168l0 3801c0,305 249,554 554,554l976 0c305,0 554,-249 554,-554l0 -2456 765 0 0 2456c0,305 249,554 554,554l976 0c305,0 554,-249 554,-554l0 -2456 766 0 0 2456c0,305 249,554 554,554l977 0c305,0 554,-249 554,-554l0 -2456 766 0z"/>
     </g>
    </g>
    <g>
     <g>
      <path class="fil8" d="M20607 50679l43806 0c1399,0 2543,1144 2543,2543l0 24211c0,1399 -1144,2544 -2543,2544l-43806 0c-1399,0 -2543,-1145 -2543,-2544l0 -24211c0,-1399 1144,-2543 2543,-2543z"/>
      <path class="fil11" d="M19028 81225l46962 0c531,0 965,434 965,965l0 1863c0,531 -434,965 -965,965l-46962 0c-532,0 -965,-434 -965,-965l0 -1863c0,-531 433,-965 965,-965z"/>
      <path class="fil11" d="M25245 79394l4151 0 0 2830 -4151 0 0 -2830zm30380 0l4151 0 0 2830 -4151 0 0 -2830z"/>
     </g>
     <path class="fil7" d="M37905 61662l9210 0c123,0 224,100 224,224l0 2085c0,123 -100,224 -224,224l-9210 0c-124,0 -224,-100 -224,-224l0 -2085c0,-124 100,-224 224,-224z"/>
    </g>
   </g>
  </g>
 </g>
</svg>
