<?xml version="1.0" encoding="UTF-8"?>
<!DOCTYPE svg PUBLIC "-//W3C//DTD SVG 1.1//EN" "http://www.w3.org/Graphics/SVG/1.1/DTD/svg11.dtd">
<!-- Creator: CorelDRAW X6 -->
<svg xmlns="http://www.w3.org/2000/svg" xml:space="preserve" width="202px" height="202px" version="1.1" style="shape-rendering:geometricPrecision; text-rendering:geometricPrecision; image-rendering:optimizeQuality; fill-rule:evenodd; clip-rule:evenodd"
viewBox="0 0 3894 3894"
 xmlns:xlink="http://www.w3.org/1999/xlink">
 <defs>
  <style type="text/css">
   <![CDATA[
    .fil8 {fill:#377BBA}
    .fil1 {fill:#596366}
    .fil6 {fill:#6B7F9E}
    .fil9 {fill:#8597B1}
    .fil10 {fill:#E4E7ED}
    .fil7 {fill:#ECF0F1}
    .fil3 {fill:#F0BA7D}
    .fil4 {fill:#F2F2F2}
    .fil2 {fill:#FED298}
    .fil0 {fill:#FF7069}
    .fil5 {fill:white}
   ]]>
  </style>
 </defs>
 <g id="Layer_x0020_1">
  <metadata id="CorelCorpID_0Corel-Layer"/>
  <g id="_495519528">
   <circle class="fil0" cx="1947" cy="1947" r="1947"/>
   <path class="fil1" d="M1284 1847c89,-149 228,-322 86,-584 -209,-912 753,-1097 898,-721 237,89 230,580 109,837 -5,106 -115,198 83,471l14 -3 0 0c-258,75 -918,40 -1191,0z"/>
   <path class="fil2" d="M1536 1374c73,152 99,212 189,280 -21,388 -319,203 -537,554 -19,30 -78,182 -130,330 241,158 530,250 840,250 310,0 598,-92 840,-250 -52,-148 -111,-299 -130,-330 -218,-352 -516,-166 -537,-554 90,-68 117,-128 189,-280 18,9 36,22 51,6 14,-16 83,-227 71,-255 -12,-28 -24,-10 -43,3 1,-6 -15,76 -14,64 2,-99 -70,-187 -92,-450 -207,382 -802,225 -777,387 -116,-81 25,249 28,253 14,16 33,4 51,-6z"/>
   <path class="fil3" d="M1726 1655c-5,96 -28,157 -61,200l242 133 236 -123c-38,-43 -64,-106 -70,-210 0,0 -100,74 -177,75 -77,1 -170,-75 -170,-75z"/>
   <path class="fil4" d="M1693 1808c-54,117 -167,130 -288,195l490 785 5 0c33,0 65,-1 97,-3l398 -782c-126,-68 -244,-79 -295,-210l-200 169 -206 -155z"/>
   <polygon class="fil0" points="1847,1927 1867,1986 1823,2654 1899,2724 1974,2654 1930,1986 1950,1927 1899,1925 "/>
   <path class="fil5" d="M1701 1761l-50 104 149 250 97 -191 -196 -164zm395 0l51 102 -150 253 -97 -191 196 -164z"/>
   <g>
    <g>
     <path class="fil6" d="M1574 1923c-125,59 -335,83 -477,286 -14,20 -47,92 -85,181 -176,207 -407,487 -411,531 -5,71 -16,123 -11,137 5,14 125,486 125,486l433 9 -135 -549 230 -203 0 915 656 0 656 0 0 -915 230 203 -135 549 433 -9c0,0 120,-472 125,-486 5,-14 -5,-66 -11,-137 -3,-44 -235,-324 -411,-531 -38,-89 -71,-161 -85,-181 -143,-204 -353,-227 -478,-287l-252 487 -73 106 -69 -107 -256 -486 0 0z"/>
     <g>
      <g>
       <path class="fil7" d="M950 3386c124,0 224,62 224,139 0,77 -100,139 -224,139 -124,0 -224,-62 -224,-139 0,-77 100,-139 224,-139zm0 37c96,0 174,46 174,102 0,56 -78,102 -174,102 -96,0 -174,-46 -174,-102 0,-56 78,-102 174,-102z"/>
       <ellipse class="fil8" cx="950" cy="3525" rx="174" ry="102"/>
       <path class="fil2" d="M879 3583l0 112c0,14 -11,25 -25,25l-44 0c-14,0 -25,-11 -25,-25l0 -173c0,-3 0,-5 1,-8l0 -38c0,-32 26,-59 59,-59l364 0c32,0 59,26 59,59l0 38c1,2 1,5 1,8l0 173c0,14 -11,25 -25,25l-44 0c-14,0 -25,-11 -25,-25l0 -112 -35 0 0 112c0,14 -11,25 -25,25l-44 0c-14,0 -25,-11 -25,-25l0 -112 -35 0 0 112c0,14 -11,25 -25,25l-44 0c-14,0 -25,-11 -25,-25l0 -112 -35 0z"/>
      </g>
      <g>
       <path class="fil7" d="M2848 3386c-124,0 -224,62 -224,139 0,77 100,139 224,139 124,0 224,-62 224,-139 0,-77 -100,-139 -224,-139zm0 37c-96,0 -174,46 -174,102 0,56 78,102 174,102 96,0 174,-46 174,-102 0,-56 -78,-102 -174,-102z"/>
       <ellipse class="fil8" cx="2848" cy="3525" rx="174" ry="102"/>
       <path class="fil2" d="M2919 3583l0 112c0,14 11,25 25,25l44 0c14,0 25,-11 25,-25l0 -173c0,-3 0,-5 -1,-8l0 -38c0,-32 -26,-59 -59,-59l-364 0c-32,0 -59,26 -59,59l0 38c-1,2 -1,5 -1,8l0 173c0,14 11,25 25,25l44 0c14,0 25,-11 25,-25l0 -112 35 0 0 112c0,14 11,25 25,25l44 0c14,0 25,-11 25,-25l0 -112 35 0 0 112c0,14 11,25 25,25l44 0c14,0 25,-11 25,-25l0 -112 35 0z"/>
      </g>
     </g>
    </g>
    <path class="fil9" d="M1604 1908l298 580 293 -580c15,9 30,18 47,26l-340 665 -343 -669c16,-8 31,-13 45,-22z"/>
   </g>
   <g>
    <g>
     <path class="fil7" d="M896 2259l2006 0c64,0 116,52 116,116l0 1109c0,64 -52,116 -116,116l-2006 0c-64,0 -116,-52 -116,-116l0 -1109c0,-64 52,-116 116,-116z"/>
     <path class="fil10" d="M824 3657l2151 0c24,0 44,20 44,44l0 85c0,24 -20,44 -44,44l-2151 0c-24,0 -44,-20 -44,-44l0 -85c0,-24 20,-44 44,-44z"/>
     <path class="fil10" d="M1108 3574l190 0 0 130 -190 0 0 -130zm1391 0l190 0 0 130 -190 0 0 -130z"/>
    </g>
    <path class="fil5" d="M1688 2762l422 0c6,0 10,5 10,10l0 96c0,6 -5,10 -10,10l-422 0c-6,0 -10,-5 -10,-10l0 -96c0,-6 5,-10 10,-10z"/>
   </g>
  </g>
 </g>
</svg>
